<?xml version="1.0" standalone="no"?>
<!DOCTYPE svg PUBLIC "-//W3C//DTD SVG 20010904//EN"
 "http://www.w3.org/TR/2001/REC-SVG-20010904/DTD/svg10.dtd">
<svg version="1.0" xmlns="http://www.w3.org/2000/svg"
 width="2112.000000pt" height="2112.000000pt" viewBox="0 0 2112.000000 2112.000000"
 preserveAspectRatio="xMidYMid meet">
<metadata>
Created by potrace 1.11, written by Peter Selinger 2001-2013
</metadata>
<g transform="translate(0.000000,2112.000000) scale(0.100000,-0.100000)"
fill="#000000" stroke="none">
<path d="M18503 20452 c-7 -15 -23 -45 -37 -67 -28 -45 -64 -109 -80 -142 -6
-13 -14 -23 -18 -23 -5 0 -8 -4 -8 -9 0 -10 -120 -222 -131 -231 -6 -6 -19
-37 -18 -46 0 -4 -3 -10 -8 -13 -12 -8 -93 -150 -93 -162 0 -5 -4 -9 -9 -9 -5
0 -14 -13 -20 -30 -5 -16 -15 -30 -21 -30 -6 0 -8 -4 -5 -10 3 -5 2 -10 -3
-10 -6 0 -13 -12 -17 -27 -3 -15 -10 -30 -14 -33 -10 -8 -81 -130 -81 -141 0
-5 -5 -9 -11 -9 -5 0 -8 -4 -5 -8 3 -5 -3 -18 -14 -29 -10 -12 -16 -24 -13
-27 4 -3 1 -6 -6 -6 -7 0 -9 -5 -6 -10 3 -6 -1 -13 -9 -16 -9 -3 -14 -10 -11
-14 3 -5 -1 -14 -8 -22 -7 -7 -19 -28 -26 -45 -7 -18 -17 -33 -22 -33 -4 0
-11 -10 -15 -22 -4 -13 -9 -25 -13 -28 -3 -3 -19 -31 -36 -62 -16 -32 -34 -58
-39 -58 -5 0 -6 -3 -3 -6 4 -4 -2 -19 -13 -34 -11 -16 -20 -33 -20 -39 0 -5
-7 -14 -16 -19 -9 -5 -15 -12 -14 -16 1 -4 -31 -64 -71 -134 -41 -70 -73 -130
-71 -134 1 -5 -1 -8 -6 -8 -4 0 -16 -17 -27 -37 -11 -21 -32 -57 -48 -80 -15
-24 -25 -43 -22 -43 4 0 -1 -7 -9 -16 -9 -8 -14 -20 -11 -25 4 -5 2 -9 -3 -9
-5 0 -17 -17 -28 -37 -10 -21 -21 -40 -24 -43 -4 -4 -18 -29 -64 -115 -6 -11
-14 -22 -17 -25 -3 -3 -20 -32 -38 -65 -18 -33 -38 -66 -43 -72 -6 -7 -7 -13
-2 -13 5 0 1 -5 -8 -11 -10 -5 -18 -14 -18 -20 0 -13 -180 -322 -192 -330 -5
-3 -9 -8 -8 -10 4 -9 -36 -85 -59 -113 -7 -9 -10 -16 -6 -16 5 0 1 -8 -7 -17
-20 -24 -118 -193 -118 -204 0 -5 -5 -9 -11 -9 -5 0 -8 -4 -5 -8 3 -5 -4 -19
-15 -30 -11 -12 -17 -22 -13 -22 4 0 -1 -9 -11 -20 -11 -12 -20 -27 -21 -35
-1 -8 -12 -26 -23 -41 -12 -15 -21 -33 -21 -40 0 -8 -4 -14 -10 -14 -5 0 -10
-6 -10 -14 0 -8 -6 -21 -12 -28 -17 -18 -45 -66 -59 -100 -6 -16 -15 -28 -20
-28 -5 0 -9 -8 -9 -19 0 -10 -7 -24 -15 -31 -8 -7 -15 -18 -15 -26 0 -7 -6
-17 -14 -21 -8 -4 -15 -11 -15 -16 -1 -8 -27 -58 -48 -92 -7 -11 -15 -27 -19
-35 -4 -8 -20 -34 -35 -56 -16 -23 -26 -44 -23 -46 2 -3 -2 -11 -11 -18 -8 -7
-15 -19 -15 -26 0 -8 -5 -14 -11 -14 -5 0 -7 -4 -4 -10 3 -5 2 -10 -3 -10 -4
0 -14 -16 -22 -35 -8 -19 -16 -35 -20 -35 -3 0 -21 -30 -40 -67 -19 -38 -38
-70 -41 -73 -3 -3 -14 -21 -24 -40 -10 -19 -21 -37 -24 -40 -3 -3 -15 -24 -26
-47 -25 -54 -40 -60 -57 -22 -7 16 -17 29 -21 29 -5 0 -5 5 -1 11 4 7 1 10 -6
7 -8 -2 -23 -21 -34 -43 -19 -37 -20 -37 -35 -18 -18 23 -51 82 -48 86 1 1
-13 23 -31 49 -18 26 -32 51 -32 57 0 6 -5 11 -11 11 -5 0 -8 4 -4 9 3 5 -1
15 -8 23 -8 7 -20 25 -27 38 -7 14 -38 68 -69 120 -30 52 -55 98 -53 103 1 4
-2 7 -7 7 -5 0 -14 12 -20 28 -6 15 -20 41 -31 57 -11 17 -23 38 -26 48 -4 9
-10 17 -14 17 -4 0 -11 11 -14 24 -3 14 -12 31 -19 38 -6 8 -25 38 -41 68 -16
30 -35 62 -42 71 -8 9 -11 19 -7 22 3 4 1 7 -6 7 -7 0 -10 4 -7 9 4 5 3 11 -2
13 -11 4 -67 101 -64 111 1 4 -2 7 -6 7 -5 0 -19 23 -32 50 -13 28 -27 50 -32
50 -5 0 -6 5 -3 10 3 6 2 10 -3 10 -5 0 -19 23 -32 50 -13 28 -30 56 -37 61
-7 6 -10 15 -7 20 3 5 0 9 -5 9 -6 0 -11 6 -11 13 0 8 -9 22 -20 32 -10 9 -18
20 -17 24 2 9 -64 124 -77 133 -6 4 -8 8 -4 8 4 0 -4 16 -17 36 -14 20 -22 40
-19 45 3 5 0 9 -6 9 -5 0 -18 17 -28 38 -9 20 -20 39 -23 42 -3 3 -8 12 -12
20 -4 8 -20 38 -37 65 -17 28 -33 58 -37 68 -3 9 -9 17 -14 17 -5 0 -9 5 -9
10 0 6 -18 39 -39 75 -22 36 -42 74 -46 85 -3 11 -11 20 -16 20 -5 0 -9 9 -9
19 0 11 -4 21 -8 23 -5 2 -20 24 -34 49 -44 79 -53 94 -58 99 -3 3 -12 19 -20
35 -8 17 -17 32 -20 35 -3 3 -14 23 -26 45 -27 52 -48 89 -54 95 -8 8 -40 62
-58 100 -9 19 -20 37 -25 38 -4 2 -5 8 -1 13 3 5 1 9 -4 9 -5 0 -17 18 -28 40
-10 22 -22 40 -26 40 -5 0 -8 4 -8 9 0 7 -30 62 -121 221 -8 14 -18 28 -24 32
-7 5 -7 8 0 8 7 0 7 3 0 8 -10 7 -14 14 -63 101 -14 25 -36 63 -49 83 -12 21
-23 42 -23 47 0 5 -7 14 -15 21 -8 7 -12 16 -9 21 3 5 2 9 -3 9 -4 0 -19 21
-33 48 -22 43 -65 116 -98 167 -6 11 -15 27 -19 35 -3 8 -14 26 -23 40 -9 14
-30 50 -47 80 -17 30 -60 105 -95 167 -36 61 -63 114 -60 117 3 3 1 6 -4 6 -5
0 -21 21 -34 47 -14 26 -30 53 -37 60 -6 7 -15 23 -19 36 -4 12 -9 24 -13 27
-8 7 -25 35 -58 97 -25 48 -28 51 -44 37 -9 -8 -31 -42 -48 -76 -18 -33 -39
-67 -47 -75 -8 -8 -12 -18 -9 -23 3 -5 2 -10 -3 -12 -10 -4 -132 -214 -132
-228 0 -5 -4 -10 -10 -10 -5 0 -10 -5 -10 -10 0 -6 -11 -28 -25 -50 -14 -22
-23 -40 -20 -40 3 0 -4 -9 -15 -20 -11 -11 -20 -24 -20 -30 0 -5 -18 -39 -40
-75 -22 -36 -40 -70 -40 -75 0 -6 -4 -10 -10 -10 -5 0 -12 -11 -16 -25 -3 -13
-12 -29 -20 -36 -8 -6 -14 -20 -14 -30 0 -11 -4 -19 -9 -19 -5 0 -19 -19 -31
-42 -43 -84 -110 -199 -128 -220 -8 -10 -12 -18 -9 -18 3 0 -16 -36 -43 -79
-26 -44 -51 -89 -55 -100 -3 -12 -11 -21 -16 -21 -5 0 -9 -6 -9 -14 0 -8 -6
-21 -13 -28 -6 -7 -21 -31 -32 -53 -11 -22 -22 -42 -25 -45 -9 -9 -30 -45 -41
-70 -6 -14 -18 -33 -27 -43 -9 -10 -17 -25 -18 -34 -2 -9 -9 -20 -16 -24 -7
-5 -10 -9 -6 -9 4 0 -8 -25 -27 -55 -19 -30 -35 -59 -35 -65 0 -5 -4 -10 -10
-10 -5 0 -10 -4 -10 -9 0 -13 -152 -275 -162 -279 -4 -2 -8 -9 -8 -16 0 -7
-13 -33 -30 -59 -16 -26 -26 -47 -22 -47 4 0 2 -4 -4 -8 -6 -4 -24 -31 -39
-59 -15 -29 -31 -53 -36 -53 -5 0 -9 -6 -9 -14 0 -8 -22 -51 -50 -96 -27 -45
-50 -84 -50 -87 0 -5 -72 -125 -80 -133 -3 -3 -6 -12 -8 -20 -2 -8 -9 -22 -16
-30 -7 -8 -32 -51 -56 -95 -24 -44 -46 -82 -49 -85 -4 -3 -19 -30 -35 -60 -16
-30 -35 -62 -42 -71 -8 -8 -14 -21 -14 -27 0 -6 -6 -17 -12 -24 -12 -12 -26
-35 -79 -135 -13 -24 -26 -43 -31 -43 -4 0 -8 -7 -8 -16 0 -9 -9 -27 -20 -41
-11 -14 -20 -31 -20 -38 0 -7 -7 -15 -15 -19 -8 -3 -15 -13 -15 -21 0 -9 -14
-36 -30 -61 -17 -24 -27 -44 -23 -44 4 0 3 -4 -4 -8 -6 -4 -13 -14 -15 -22 -2
-8 -11 -23 -21 -32 -10 -9 -17 -18 -15 -21 2 -2 -16 -36 -39 -75 -24 -39 -43
-74 -43 -77 0 -4 -7 -13 -15 -22 -8 -8 -13 -19 -10 -24 4 -5 1 -9 -4 -9 -6 0
-11 -7 -11 -15 0 -8 -4 -15 -9 -15 -5 0 -13 -9 -16 -21 -4 -11 -29 -56 -55
-99 -26 -43 -46 -81 -42 -84 3 -3 1 -6 -5 -6 -6 0 -16 -13 -22 -30 -5 -16 -15
-30 -22 -30 -7 0 -10 -3 -6 -6 3 -3 -5 -24 -19 -45 -13 -21 -24 -43 -24 -49 0
-5 -4 -10 -10 -10 -5 0 -10 -6 -10 -13 0 -7 -16 -36 -35 -65 -20 -28 -33 -52
-30 -52 4 0 -3 -12 -14 -26 -12 -15 -21 -33 -21 -40 0 -8 -3 -14 -7 -14 -5 0
-13 -10 -19 -23 -18 -38 -66 -121 -85 -149 -11 -14 -19 -33 -19 -42 0 -9 -7
-19 -15 -22 -8 -4 -15 -10 -15 -15 0 -7 -72 -137 -100 -179 -9 -14 -58 -100
-89 -159 -8 -14 -17 -28 -21 -31 -3 -3 -14 -22 -23 -42 -10 -20 -22 -40 -27
-43 -6 -4 -8 -11 -5 -16 4 -5 1 -9 -4 -9 -6 0 -11 -7 -11 -15 0 -7 -6 -18 -14
-22 -8 -4 -15 -10 -15 -13 0 -11 -41 -94 -41 -85 0 6 -12 -15 -27 -45 -15 -30
-31 -56 -35 -58 -5 -2 -8 -10 -8 -18 0 -8 -5 -14 -11 -14 -5 0 -7 -4 -4 -10 3
-5 1 -10 -5 -10 -6 0 -8 -4 -5 -10 3 -5 1 -10 -4 -10 -6 0 -11 -6 -11 -13 0
-7 -8 -22 -17 -33 -10 -11 -19 -26 -21 -34 -2 -8 -10 -22 -18 -31 -8 -8 -14
-21 -14 -27 0 -6 -6 -17 -13 -24 -7 -7 -26 -39 -42 -70 -16 -32 -33 -58 -38
-58 -4 0 -5 -4 -2 -10 3 -5 3 -10 -2 -10 -4 0 -14 -15 -22 -32 -8 -18 -17 -35
-21 -38 -4 -3 -26 -41 -50 -85 -24 -44 -48 -87 -55 -95 -7 -8 -25 -40 -41 -70
-16 -30 -31 -57 -35 -60 -3 -3 -8 -12 -12 -20 -3 -8 -22 -42 -42 -75 -19 -33
-41 -71 -48 -85 -6 -14 -17 -31 -24 -38 -7 -8 -11 -17 -8 -22 3 -5 2 -10 -2
-12 -9 -3 -53 -71 -71 -108 -6 -14 -16 -32 -22 -40 -15 -23 -125 -213 -133
-230 -4 -8 -17 -31 -28 -50 -12 -19 -60 -102 -107 -185 -48 -82 -89 -152 -92
-155 -3 -3 -11 -16 -17 -30 -18 -38 -73 -132 -94 -161 -10 -14 -16 -29 -12
-33 3 -3 1 -6 -5 -6 -7 0 -12 -6 -12 -14 0 -7 -7 -19 -15 -26 -8 -7 -12 -16
-9 -21 3 -5 0 -9 -5 -9 -6 0 -11 -7 -11 -15 0 -8 -4 -15 -10 -15 -5 0 -10 -4
-10 -10 0 -5 -19 -42 -43 -82 -24 -40 -46 -80 -50 -88 -4 -8 -13 -24 -20 -35
-44 -74 -111 -191 -112 -195 0 -3 -10 -20 -23 -37 -13 -18 -20 -33 -15 -33 4
0 3 -4 -3 -8 -6 -4 -28 -37 -48 -74 -21 -37 -42 -70 -47 -74 -5 -3 -7 -10 -4
-15 4 -5 1 -9 -4 -9 -6 0 -11 -4 -11 -10 0 -5 -20 -44 -45 -86 -25 -41 -45
-80 -45 -85 0 -5 -5 -9 -11 -9 -5 0 -8 -4 -5 -9 4 -5 3 -11 -2 -13 -4 -1 -23
-30 -41 -63 -19 -33 -39 -63 -45 -67 -6 -4 -7 -8 -3 -8 5 0 0 -12 -11 -27 -10
-16 -22 -35 -25 -43 -4 -8 -18 -33 -32 -55 -14 -22 -35 -60 -47 -85 -13 -25
-26 -47 -29 -50 -6 -5 -141 -240 -193 -335 -6 -11 -13 -22 -16 -25 -7 -7 -29
-42 -40 -65 -5 -11 -26 -47 -45 -80 -19 -33 -38 -68 -41 -77 -4 -10 -11 -18
-16 -18 -5 0 -7 -4 -4 -9 3 -5 -1 -14 -9 -21 -8 -7 -15 -19 -15 -26 0 -8 -5
-14 -11 -14 -5 0 -8 -4 -5 -8 3 -5 -3 -18 -14 -29 -10 -12 -16 -24 -13 -27 4
-3 2 -6 -4 -6 -6 0 -13 -8 -16 -17 -3 -10 -22 -45 -42 -78 -19 -33 -42 -75
-50 -92 -9 -18 -20 -33 -25 -33 -6 0 -9 -3 -8 -7 2 -5 -24 -54 -57 -111 -33
-57 -69 -120 -80 -140 -11 -20 -23 -39 -26 -42 -3 -3 -8 -12 -12 -20 -3 -8
-20 -37 -37 -65 -16 -27 -33 -57 -37 -65 -3 -8 -21 -39 -40 -68 -18 -29 -33
-56 -33 -61 0 -4 -9 -20 -20 -33 -10 -14 -16 -28 -13 -32 3 -3 1 -6 -5 -6 -7
0 -12 -7 -12 -15 0 -8 -4 -15 -10 -15 -5 0 -10 -7 -10 -15 0 -8 -5 -15 -12
-15 -6 0 -9 -3 -5 -6 3 -3 -8 -29 -25 -57 -17 -29 -52 -88 -76 -132 -25 -44
-49 -81 -54 -83 -4 -2 -8 -12 -8 -23 0 -11 -7 -22 -15 -25 -8 -4 -15 -11 -15
-18 0 -7 -20 -44 -44 -84 -25 -40 -42 -72 -39 -72 3 0 -1 -8 -9 -17 -14 -17
-38 -57 -84 -143 -11 -19 -25 -39 -31 -43 -7 -4 -13 -16 -13 -26 0 -10 -7 -24
-15 -31 -8 -7 -15 -19 -15 -26 0 -8 -5 -14 -11 -14 -5 0 -8 -4 -4 -9 3 -5 -1
-15 -8 -23 -7 -7 -24 -33 -38 -58 -13 -25 -26 -47 -29 -50 -3 -3 -13 -20 -22
-38 -10 -17 -26 -47 -35 -64 -10 -18 -22 -36 -26 -39 -5 -3 -9 -13 -10 -21 -2
-8 -13 -27 -25 -42 -12 -16 -22 -33 -22 -38 0 -4 -12 -27 -27 -51 -28 -43 -33
-51 -72 -122 -12 -22 -33 -58 -47 -80 -13 -22 -29 -51 -35 -65 -6 -14 -16 -32
-23 -40 -7 -8 -30 -46 -51 -85 -21 -38 -46 -82 -56 -97 -11 -14 -19 -29 -19
-32 0 -3 -25 -46 -55 -97 -30 -50 -55 -95 -55 -99 0 -4 -7 -13 -15 -20 -8 -7
-13 -16 -10 -20 2 -4 -3 -16 -13 -26 -9 -11 -28 -39 -42 -64 -13 -25 -39 -70
-56 -100 -18 -30 -47 -83 -66 -117 -18 -35 -36 -63 -40 -63 -5 0 -8 -6 -8 -13
0 -7 -11 -29 -25 -48 -13 -20 -21 -39 -18 -43 4 -3 1 -6 -5 -6 -7 0 -12 -7
-12 -15 0 -8 -4 -15 -8 -15 -5 0 -14 -16 -22 -35 -8 -19 -17 -35 -21 -35 -4 0
-12 -12 -18 -28 -6 -15 -16 -36 -23 -46 -51 -78 -76 -124 -71 -130 4 -3 1 -6
-6 -6 -7 0 -10 -4 -7 -9 3 -5 -1 -14 -9 -21 -14 -11 -21 -24 -62 -103 -9 -17
-19 -34 -23 -37 -4 -3 -17 -26 -30 -52 -13 -27 -27 -48 -32 -48 -4 0 -7 -3 -6
-7 3 -10 -52 -106 -67 -115 -5 -4 -7 -8 -3 -8 4 0 -14 -35 -39 -77 -41 -70
-76 -131 -107 -188 -6 -11 -13 -22 -16 -25 -3 -3 -10 -14 -16 -25 -59 -108
-78 -140 -86 -143 -4 -2 -6 -8 -2 -13 3 -5 0 -9 -6 -9 -6 0 -8 -5 -5 -10 3 -6
0 -13 -9 -16 -8 -3 -18 -19 -21 -35 -4 -16 -10 -29 -14 -29 -5 0 -16 -18 -26
-40 -10 -22 -22 -40 -27 -40 -5 0 -7 -4 -4 -9 3 -5 -1 -14 -9 -21 -8 -7 -15
-16 -15 -21 0 -10 -72 -132 -83 -140 -5 -3 -9 -10 -9 -15 0 -7 -54 -104 -105
-189 -7 -11 -15 -27 -19 -35 -4 -8 -13 -22 -20 -30 -7 -8 -14 -19 -15 -25 -4
-14 -30 -61 -58 -103 -13 -20 -24 -41 -25 -47 -1 -5 -14 -28 -29 -50 -15 -22
-27 -45 -27 -52 0 -7 -4 -13 -10 -13 -5 0 -10 -5 -10 -10 0 -6 -16 -35 -35
-65 -19 -30 -31 -55 -27 -55 4 0 -2 -7 -12 -15 -11 -8 -17 -15 -13 -15 8 0
-53 -102 -67 -112 -6 -4 -8 -8 -3 -8 4 0 -3 -17 -16 -38 -27 -44 -27 -45 -111
-191 -37 -62 -66 -118 -66 -122 0 -5 -4 -9 -10 -9 -5 0 -10 -6 -10 -13 0 -8
-9 -24 -20 -37 -11 -12 -17 -26 -15 -30 3 -5 2 -10 -3 -12 -9 -4 -122 -197
-122 -209 0 -5 -4 -9 -10 -9 -5 0 -10 -9 -10 -20 0 -11 -4 -20 -8 -20 -5 0
-17 -18 -28 -40 -10 -22 -23 -40 -27 -40 -5 0 -6 -4 -3 -9 3 -5 -1 -14 -9 -21
-8 -7 -15 -18 -15 -25 0 -7 -7 -18 -15 -25 -8 -7 -12 -16 -10 -21 3 -4 -3 -12
-12 -18 -10 -6 -13 -11 -8 -11 7 0 7 -3 0 -8 -5 -4 -23 -32 -39 -62 -16 -30
-32 -57 -35 -60 -3 -3 -13 -19 -22 -35 -29 -56 -44 -80 -54 -87 -5 -4 -7 -8
-3 -8 4 0 -7 -24 -25 -53 -53 -87 -55 -90 -88 -152 -17 -33 -37 -63 -43 -67
-6 -5 -7 -8 -1 -8 6 0 6 -3 -1 -8 -10 -7 -54 -82 -97 -165 -10 -20 -24 -37
-30 -37 -6 0 -7 -3 -4 -6 4 -4 -2 -19 -13 -34 -11 -16 -20 -33 -20 -39 0 -6
-5 -11 -11 -11 -5 0 -8 -4 -5 -8 3 -5 -3 -18 -14 -29 -10 -12 -16 -24 -13 -27
4 -3 1 -6 -5 -6 -7 0 -12 -9 -12 -19 0 -11 -4 -21 -8 -23 -7 -3 -56 -77 -58
-88 -2 -16 -29 -60 -36 -60 -4 0 -7 -3 -6 -7 1 -5 -4 -19 -13 -33 -51 -82 -79
-132 -79 -141 0 -5 -4 -9 -8 -9 -4 0 -13 -12 -19 -27 -7 -16 -26 -50 -42 -78
-17 -27 -37 -65 -46 -82 -8 -18 -20 -33 -26 -33 -5 0 -8 -3 -6 -8 2 -4 -4 -20
-14 -37 -10 -16 -23 -40 -28 -52 -5 -11 -15 -24 -21 -28 -5 -3 -8 -11 -5 -16
4 -5 2 -9 -3 -9 -5 0 -12 -8 -16 -18 -3 -9 -10 -24 -16 -32 -8 -13 -72 -122
-161 -277 -11 -18 -29 -50 -41 -70 -12 -21 -33 -58 -47 -83 -13 -25 -29 -48
-34 -51 -5 -3 -9 -10 -9 -15 0 -9 -37 -77 -67 -124 -9 -14 -21 -37 -28 -53 -7
-15 -18 -27 -24 -27 -7 0 -10 -3 -6 -6 3 -3 -8 -28 -24 -55 -16 -28 -29 -54
-29 -59 0 -5 -8 -14 -18 -19 -9 -6 -13 -11 -8 -11 5 0 1 -9 -9 -20 -10 -11
-14 -20 -10 -20 4 0 2 -8 -7 -17 -8 -10 -20 -31 -27 -47 -10 -24 -10 -28 1
-20 11 9 54 10 203 5 29 -1 149 4 171 7 7 1 14 10 18 20 3 9 16 35 29 57 13
22 34 58 47 80 12 22 31 54 41 70 10 17 30 53 45 80 14 28 30 52 34 55 4 3 15
21 24 40 8 19 20 42 25 50 39 61 85 146 83 153 -1 4 2 7 6 7 5 0 17 18 28 40
10 22 23 40 27 40 5 0 6 4 2 9 -3 5 -1 12 4 15 5 4 27 37 48 74 21 37 43 76
50 87 7 11 15 27 19 35 4 8 27 48 51 88 24 41 43 78 43 83 0 5 5 9 12 9 6 0 9
3 5 6 -3 3 3 15 13 27 11 11 17 23 15 28 -3 4 1 14 9 21 15 16 47 74 45 84 0
4 3 10 8 13 12 8 113 180 113 192 0 5 4 9 9 9 5 0 12 11 15 25 4 14 11 25 16
25 6 0 10 7 10 15 0 8 7 23 15 32 8 10 15 22 15 26 -1 4 8 19 20 34 11 14 20
32 20 39 0 8 4 14 9 14 5 0 13 9 16 20 4 11 24 49 46 85 21 36 39 69 39 75 0
5 4 10 9 10 5 0 12 11 15 25 4 14 11 25 16 25 6 0 10 6 10 14 0 7 9 25 21 40
11 14 17 26 12 26 -4 0 -3 4 2 8 6 4 16 18 23 32 7 14 21 39 32 55 11 17 24
39 29 51 15 34 75 129 83 132 5 2 6 8 2 13 -3 5 0 9 6 9 6 0 9 4 6 9 -3 5 1
14 9 21 8 7 15 19 15 26 0 8 5 14 10 14 6 0 10 9 10 20 0 11 4 20 8 20 4 0 26
34 47 75 22 41 43 75 46 75 3 0 11 16 19 35 8 19 17 35 22 35 4 0 7 3 6 8 -1
4 5 18 14 32 9 14 57 97 107 185 50 88 95 165 100 171 5 7 7 15 4 18 -4 3 -1
6 5 6 7 0 12 7 12 15 0 8 3 15 8 15 4 0 20 27 37 60 16 33 33 60 37 60 4 0 8
9 8 20 0 11 4 20 9 20 5 0 12 8 15 18 4 9 14 31 24 47 9 17 35 62 56 100 22
39 42 72 46 75 3 3 11 17 17 32 7 16 17 28 23 28 6 0 9 4 5 9 -3 5 -1 12 5 16
6 4 8 11 5 16 -4 5 -1 9 5 9 6 0 14 8 17 18 5 14 69 127 113 202 40 68 88 150
100 175 8 17 18 32 21 35 3 3 23 37 44 75 21 39 42 72 46 73 5 2 9 10 9 19 0
8 7 21 15 30 8 8 13 19 10 24 -4 5 -1 9 4 9 6 0 17 15 25 33 16 34 47 89 57
97 3 3 13 21 23 40 9 19 30 56 46 82 16 27 27 48 24 48 -2 0 4 10 16 22 11 12
20 28 20 35 0 7 5 13 11 13 5 0 8 4 4 9 -3 5 -1 12 4 15 5 3 21 29 36 58 15
29 30 55 34 58 7 6 38 61 60 107 8 18 19 33 23 33 4 0 8 7 8 15 0 8 5 15 11
15 5 0 8 4 4 9 -3 5 2 17 11 25 8 9 12 16 7 16 -4 0 -3 4 3 8 14 9 49 74 46
85 -1 4 2 7 6 7 9 0 30 40 28 53 0 5 7 13 17 18 9 6 17 14 17 18 0 5 32 64 71
132 40 68 83 144 97 169 14 25 37 63 51 85 33 53 77 133 92 168 6 15 15 27 20
27 5 0 9 6 9 13 0 8 9 24 20 37 11 12 17 27 14 31 -3 5 0 9 5 9 6 0 11 7 11
15 0 8 5 15 11 15 5 0 7 5 4 10 -3 6 0 13 9 16 8 3 18 19 21 35 4 16 10 29 13
29 4 0 23 30 42 68 19 37 38 69 41 72 3 3 14 21 24 40 10 19 21 37 24 40 3 3
21 34 40 70 19 36 37 67 40 70 3 3 13 19 21 35 8 17 17 32 20 35 9 9 51 84 63
113 6 15 15 27 19 27 4 0 8 7 8 15 0 8 5 15 12 15 6 0 8 3 5 6 -3 4 3 18 13
32 11 13 20 31 20 38 0 8 5 14 11 14 5 0 7 5 4 10 -3 6 -1 10 4 10 6 0 11 6
11 14 0 7 7 19 15 26 8 7 12 16 9 21 -3 5 0 9 5 9 6 0 11 4 11 10 0 5 16 34
35 64 19 29 31 56 28 60 -4 3 -2 6 4 6 5 0 20 21 33 48 13 26 26 49 30 52 4 3
20 30 36 60 16 30 31 57 34 60 3 3 17 26 30 53 14 26 29 47 33 47 5 0 5 5 2
10 -3 6 -1 10 6 10 7 0 10 3 6 6 -3 4 7 26 24 50 16 24 26 44 22 44 -4 0 -3 4
3 8 6 4 26 34 44 67 19 33 37 62 42 63 4 2 6 7 3 12 -2 4 4 18 15 30 11 13 20
29 20 37 0 7 4 13 9 13 5 0 12 11 15 25 4 14 11 25 17 25 6 0 8 4 5 9 -3 5 1
14 9 21 8 7 15 19 15 26 0 8 5 14 11 14 5 0 7 5 4 10 -3 6 -1 10 4 10 6 0 11
4 11 9 0 6 29 60 65 121 67 114 92 158 141 245 15 28 31 52 34 55 4 3 17 26
29 53 13 26 27 47 32 47 6 0 8 4 5 9 -3 4 6 23 19 41 14 19 25 40 25 47 0 7 4
13 9 13 5 0 11 8 14 18 6 18 48 92 91 160 14 23 26 43 26 46 0 2 30 55 67 117
36 63 73 127 82 142 9 16 21 36 26 45 6 10 28 49 49 87 22 39 43 72 48 73 4 2
8 12 8 23 0 11 7 22 15 25 8 4 12 10 9 15 -3 5 0 9 6 9 6 0 9 4 6 9 -3 4 3 19
14 31 11 12 22 31 25 41 4 11 11 19 16 19 6 0 8 4 4 9 -3 5 2 16 10 24 8 9 15
20 15 26 0 6 4 11 10 11 5 0 9 3 8 8 -3 10 32 75 46 84 6 4 7 8 3 8 -5 0 -1 7
7 16 9 8 14 19 11 24 -3 5 -2 10 3 12 10 4 92 144 92 157 0 6 3 11 8 11 4 0
18 21 32 48 13 26 27 49 30 52 3 3 11 16 18 30 6 14 20 39 30 55 9 17 33 57
52 90 19 33 40 66 47 73 7 8 11 18 7 23 -3 5 2 12 10 15 9 3 13 10 10 15 -3 5
0 9 7 9 7 0 10 3 6 6 -3 4 9 29 27 58 18 28 35 59 39 69 3 9 11 17 17 17 6 0
8 5 4 11 -3 6 -2 14 3 18 6 3 27 38 48 76 21 39 41 72 44 75 3 3 17 26 31 53
13 26 28 47 32 47 5 0 7 3 6 8 -2 6 20 50 47 94 37 60 115 202 115 209 0 5 4
9 9 9 5 0 14 14 20 30 5 17 15 30 20 30 6 0 11 6 11 14 0 7 25 55 55 105 30
51 55 94 55 96 0 8 65 110 73 113 4 2 5 7 2 11 -2 5 7 23 20 41 14 19 25 39
25 45 0 6 10 22 23 35 12 14 20 25 18 25 -7 0 33 75 41 75 4 0 8 4 8 9 0 11
190 344 201 351 4 3 11 18 14 33 4 15 10 27 14 27 3 0 24 34 46 75 21 41 43
75 47 75 4 0 8 9 8 20 0 10 8 23 18 29 9 5 16 12 15 15 -3 8 9 40 17 46 7 5
20 28 86 148 15 26 33 55 41 64 8 9 12 22 8 27 -3 6 -2 11 2 11 5 0 36 46 68
103 32 56 67 114 76 128 10 14 16 29 12 33 -3 3 -2 6 4 6 6 0 21 23 34 50 13
28 27 50 31 50 5 0 8 4 8 9 0 5 32 63 70 130 39 66 70 125 70 131 0 5 4 10 8
10 8 0 35 46 36 63 1 4 6 11 13 15 6 4 15 20 18 35 4 15 10 27 14 27 3 0 15
17 26 38 11 20 33 60 50 87 34 58 49 83 88 157 16 29 35 60 43 69 8 8 14 20
14 26 0 6 7 16 15 23 8 7 15 21 15 31 0 11 5 19 10 19 6 0 10 6 10 13 0 7 9
23 20 35 12 12 18 22 15 22 -4 0 3 13 14 29 12 16 21 32 21 35 0 4 12 25 27
49 15 23 37 60 48 82 12 22 33 59 49 83 15 24 31 54 36 67 5 14 14 25 20 25 6
0 9 4 5 9 -3 5 2 17 11 25 8 9 13 16 11 16 -5 0 82 151 100 175 5 6 19 32 33
58 13 26 29 47 34 47 5 0 7 3 3 6 -3 4 9 31 28 60 19 30 35 58 35 63 0 4 9 20
20 33 10 14 16 28 13 32 -3 3 -1 6 5 6 7 0 12 6 12 13 0 7 9 23 20 35 12 12
18 22 15 22 -3 0 6 17 20 37 14 21 25 43 25 50 0 7 3 13 8 13 4 0 18 23 31 50
14 28 29 50 35 50 5 0 6 3 3 6 -4 4 1 19 11 33 28 43 41 64 63 106 12 22 27
43 33 47 6 4 8 8 4 8 -4 0 10 29 32 65 22 36 40 70 40 75 0 6 5 10 11 10 5 0
8 4 5 9 -3 5 1 14 9 21 8 7 12 16 9 21 -3 5 -1 9 4 9 5 0 47 66 92 148 46 81
89 154 96 162 7 8 12 17 11 20 0 3 6 16 15 30 32 51 118 202 118 207 0 2 14
24 30 49 17 24 27 44 23 44 -4 0 -3 4 4 8 6 4 13 14 15 22 3 14 7 21 36 55 7
8 10 15 7 15 -3 0 9 24 28 53 18 28 51 84 72 122 22 39 48 84 57 100 10 17 24
41 30 55 7 14 18 31 25 38 7 7 13 20 13 28 0 8 5 14 10 14 6 0 10 4 10 10 0 8
78 147 118 210 9 14 17 27 17 30 0 3 11 21 25 40 14 19 24 37 24 40 -1 3 4 14
11 25 54 90 95 165 95 174 0 6 4 11 9 11 5 0 14 14 21 30 7 17 17 30 22 30 5
0 7 4 3 9 -3 5 2 16 10 24 8 9 15 18 15 20 0 7 123 221 130 227 8 6 24 43 22
51 -1 4 8 15 18 24 11 10 20 24 20 31 0 7 6 19 13 26 7 7 21 30 30 50 10 20
22 40 27 43 6 4 8 11 5 16 -4 5 -1 9 4 9 6 0 11 7 11 15 0 7 7 18 16 23 9 5
16 13 16 18 2 22 11 44 18 44 5 0 13 12 19 28 16 38 62 116 73 120 4 2 6 8 2
13 -3 5 0 9 7 9 7 0 10 3 6 6 -3 4 5 23 18 43 14 19 25 41 25 48 0 7 4 13 8
13 8 0 35 46 36 63 1 4 6 11 12 15 5 4 16 22 23 40 8 17 18 32 23 32 5 0 7 4
3 9 -3 6 3 14 12 20 10 6 15 11 10 11 -4 0 4 18 18 40 14 22 25 44 25 50 0 5
4 10 9 10 5 0 12 12 15 26 l7 27 23 -34 c12 -19 33 -54 47 -79 13 -25 26 -47
29 -50 3 -3 16 -25 29 -50 13 -25 31 -53 39 -62 8 -10 12 -18 8 -18 -4 0 1
-12 12 -27 19 -27 35 -54 90 -153 14 -25 33 -56 42 -70 9 -14 27 -46 40 -72
13 -27 27 -48 32 -48 4 0 7 -3 6 -7 -2 -7 6 -23 40 -78 7 -11 18 -31 24 -45 7
-14 15 -27 18 -30 14 -12 60 -100 53 -100 -4 0 0 -5 10 -11 9 -5 17 -15 17
-20 0 -6 9 -24 21 -40 11 -16 17 -29 12 -29 -4 0 -3 -4 3 -8 12 -8 94 -150 94
-163 0 -5 3 -9 8 -9 4 0 13 -15 21 -32 8 -18 17 -35 20 -38 4 -3 18 -26 31
-52 14 -27 28 -48 32 -48 5 0 8 -7 8 -15 0 -9 9 -25 20 -37 10 -12 17 -25 14
-30 -3 -4 0 -8 5 -8 6 0 11 -5 11 -10 0 -6 18 -39 39 -75 22 -36 42 -74 46
-85 3 -11 11 -20 16 -20 5 0 9 -10 9 -22 0 -12 3 -19 6 -15 4 3 18 -17 33 -46
14 -29 29 -54 32 -57 3 -3 19 -30 36 -60 17 -30 47 -84 68 -120 21 -36 46 -81
57 -100 11 -19 54 -93 96 -165 41 -71 83 -144 93 -161 9 -17 23 -42 31 -55 7
-13 15 -26 19 -29 3 -3 13 -21 23 -40 45 -88 96 -172 109 -181 5 -3 8 -9 7
-13 -2 -4 9 -26 24 -48 14 -22 26 -46 26 -53 0 -7 4 -15 8 -17 5 -1 15 -15 23
-29 17 -32 105 -187 136 -238 12 -20 30 -53 40 -73 10 -21 21 -38 25 -38 5 0
8 -4 8 -10 0 -5 18 -39 40 -75 22 -36 40 -68 40 -71 0 -3 9 -19 21 -35 11 -16
17 -29 12 -29 -4 0 -3 -4 3 -8 12 -7 52 -72 80 -127 8 -16 23 -43 34 -60 11
-16 27 -47 37 -67 10 -21 21 -38 25 -38 5 0 8 -7 8 -15 0 -8 5 -15 11 -15 5 0
7 -4 4 -10 -3 -5 -1 -10 6 -10 7 0 9 -3 6 -6 -3 -4 3 -18 13 -32 11 -13 20
-29 20 -34 0 -5 7 -17 16 -25 9 -10 13 -25 10 -39 -6 -24 -114 -215 -126 -224
-4 -3 -11 -16 -15 -30 -4 -13 -14 -30 -21 -38 -8 -7 -14 -20 -14 -28 0 -8 -4
-14 -9 -14 -5 0 -11 -8 -14 -17 -6 -17 -42 -82 -74 -132 -8 -12 -29 -48 -46
-80 -16 -31 -33 -58 -37 -61 -3 -3 -14 -21 -23 -40 -10 -19 -28 -53 -41 -75
-14 -22 -37 -62 -51 -90 -15 -27 -33 -57 -41 -66 -8 -8 -14 -21 -14 -27 0 -7
-5 -12 -12 -12 -6 0 -8 -3 -5 -7 4 -3 0 -15 -10 -25 -9 -10 -13 -18 -9 -18 4
0 -4 -15 -18 -33 -14 -19 -23 -37 -19 -40 3 -4 2 -7 -4 -7 -6 0 -21 -22 -34
-50 -13 -27 -27 -50 -31 -50 -5 0 -8 -6 -8 -14 0 -7 -9 -25 -21 -40 -11 -14
-17 -26 -13 -26 4 0 0 -8 -9 -17 -8 -10 -30 -45 -48 -78 -17 -33 -38 -67 -45
-75 -7 -8 -17 -26 -23 -40 -6 -14 -22 -43 -35 -65 -14 -22 -31 -51 -39 -65 -7
-14 -24 -43 -37 -65 -13 -22 -36 -65 -53 -95 -16 -30 -36 -62 -43 -70 -7 -8
-17 -26 -23 -40 -6 -14 -22 -43 -36 -65 -14 -22 -28 -48 -31 -57 -4 -10 -10
-18 -15 -18 -5 0 -8 -3 -7 -7 2 -8 -23 -54 -59 -109 -12 -19 -19 -34 -15 -34
4 0 3 -4 -3 -8 -5 -4 -21 -27 -34 -52 -14 -25 -27 -47 -30 -50 -4 -3 -19 -30
-35 -60 -16 -30 -34 -61 -39 -68 -6 -7 -20 -32 -32 -55 -40 -75 -79 -142 -92
-155 -7 -7 -13 -17 -13 -22 0 -5 -25 -50 -55 -101 -30 -50 -55 -95 -55 -100 0
-5 -5 -9 -12 -9 -6 0 -9 -3 -5 -6 3 -3 -12 -35 -34 -70 -21 -35 -39 -67 -39
-71 0 -3 -6 -14 -14 -22 -7 -9 -26 -41 -42 -71 -16 -30 -35 -61 -41 -68 -7 -7
-13 -20 -13 -28 0 -8 -7 -17 -15 -20 -8 -4 -15 -14 -15 -24 0 -10 -6 -25 -13
-32 -7 -7 -20 -26 -29 -43 -8 -16 -32 -59 -53 -95 -21 -36 -48 -84 -61 -107
-32 -59 -57 -97 -69 -105 -5 -4 -6 -8 -2 -8 5 0 0 -12 -10 -27 -11 -16 -30
-49 -44 -75 -13 -27 -27 -48 -31 -48 -5 0 -8 -4 -8 -9 0 -5 -24 -51 -54 -102
-29 -52 -62 -110 -72 -129 -10 -19 -21 -37 -24 -40 -8 -8 -28 -42 -51 -90 -13
-25 -26 -47 -29 -50 -4 -3 -20 -30 -37 -60 -81 -149 -137 -240 -146 -240 -5 0
-7 -7 -3 -15 3 -8 1 -15 -4 -15 -6 0 -10 -7 -10 -15 0 -8 -5 -15 -11 -15 -5 0
-8 -4 -5 -9 4 -5 3 -11 -2 -13 -4 -1 -18 -23 -30 -48 -12 -25 -22 -41 -22 -36
0 5 -13 -16 -30 -48 -16 -32 -34 -64 -41 -72 -6 -8 -8 -14 -3 -14 5 0 1 -5 -8
-11 -10 -5 -18 -14 -18 -20 0 -5 -25 -52 -55 -104 -30 -52 -80 -138 -110 -190
-30 -52 -55 -99 -55 -104 0 -5 -4 -11 -8 -13 -5 -1 -22 -28 -39 -58 -49 -88
-254 -444 -262 -455 -5 -5 -22 -35 -38 -65 -37 -68 -140 -246 -161 -280 -9
-14 -15 -27 -15 -30 1 -3 -4 -12 -11 -20 -7 -8 -26 -40 -42 -70 -16 -30 -32
-57 -35 -60 -3 -3 -20 -32 -38 -65 -18 -32 -42 -72 -52 -87 -11 -15 -17 -28
-14 -28 4 0 -1 -7 -9 -16 -9 -8 -14 -20 -11 -25 4 -5 2 -9 -3 -9 -5 0 -22 -25
-37 -55 -16 -30 -32 -55 -37 -55 -5 0 -6 -5 -3 -10 3 -6 2 -10 -2 -10 -5 0
-14 -12 -20 -27 -7 -16 -23 -46 -37 -68 -14 -22 -29 -47 -33 -55 -23 -46 -78
-135 -85 -138 -4 -2 -6 -8 -2 -13 3 -5 0 -9 -5 -9 -6 0 -10 -3 -9 -7 2 -8 -60
-121 -108 -195 -13 -21 -24 -40 -24 -43 0 -2 -18 -34 -40 -70 -22 -36 -40 -68
-40 -71 0 -3 -9 -18 -20 -34 -11 -15 -17 -30 -13 -34 3 -3 2 -6 -4 -6 -10 0
-30 -34 -80 -132 -8 -16 -19 -28 -24 -28 -5 0 -8 -3 -7 -7 3 -13 -24 -63 -34
-63 -4 0 -7 -3 -6 -7 3 -10 -29 -71 -53 -102 -10 -13 -16 -27 -13 -32 3 -5 0
-9 -5 -9 -6 0 -11 -7 -11 -15 0 -8 -4 -15 -9 -15 -5 0 -13 -9 -16 -21 -4 -12
-17 -36 -29 -54 -29 -46 -60 -99 -60 -107 -1 -4 -7 -13 -13 -20 -7 -6 -13 -17
-13 -24 0 -7 -3 -14 -7 -16 -5 -1 -21 -28 -37 -58 -16 -30 -41 -73 -55 -95
-14 -22 -25 -42 -26 -45 0 -3 -10 -20 -23 -37 -13 -18 -20 -33 -16 -33 4 0 1
-8 -7 -17 -8 -10 -23 -34 -34 -53 -10 -19 -25 -41 -32 -48 -7 -8 -11 -17 -8
-22 3 -4 -2 -11 -11 -14 -9 -4 -14 -9 -11 -12 3 -3 -2 -14 -11 -23 -15 -16
-54 -79 -57 -91 0 -3 -12 -23 -26 -45 -15 -22 -29 -50 -33 -62 -4 -13 -12 -23
-17 -23 -5 0 -9 -7 -9 -15 0 -8 -5 -15 -11 -15 -5 0 -8 -4 -5 -9 4 -5 3 -11
-1 -13 -10 -4 -39 -52 -59 -95 -8 -18 -19 -33 -24 -33 -6 0 -10 -7 -10 -16 0
-8 -12 -31 -26 -50 -15 -19 -24 -34 -20 -34 5 0 -33 -62 -54 -87 -6 -7 -8 -13
-5 -13 3 0 -8 -20 -25 -44 -16 -25 -30 -49 -30 -55 0 -6 -9 -20 -20 -31 -12
-12 -18 -25 -15 -30 4 -6 1 -10 -4 -10 -6 0 -11 -6 -11 -14 0 -8 -4 -16 -8
-18 -5 -1 -26 -33 -46 -70 -21 -37 -42 -70 -47 -74 -5 -3 -7 -10 -4 -15 4 -5
1 -9 -4 -9 -6 0 -11 -7 -11 -15 0 -8 -5 -15 -11 -15 -5 0 -8 -4 -4 -9 3 -5 -1
-16 -9 -24 -13 -13 -105 -169 -145 -245 -8 -15 -20 -33 -28 -40 -7 -8 -11 -18
-8 -23 4 -5 1 -9 -4 -9 -6 0 -18 -15 -26 -33 -8 -17 -26 -50 -40 -72 -14 -22
-28 -48 -32 -57 -3 -10 -9 -18 -14 -18 -5 0 -9 -4 -9 -9 0 -9 -17 -39 -85
-153 -5 -9 -21 -36 -34 -60 -13 -24 -26 -45 -30 -48 -3 -3 -15 -23 -26 -45
-11 -22 -22 -42 -25 -45 -4 -3 -24 -36 -45 -75 -21 -38 -42 -71 -47 -73 -4 -2
-8 -12 -8 -23 0 -10 -4 -19 -8 -19 -5 0 -17 -18 -28 -40 -10 -22 -23 -40 -27
-40 -5 0 -5 -5 -2 -10 3 -6 -1 -13 -9 -16 -9 -3 -14 -10 -11 -14 3 -4 -3 -18
-13 -31 -10 -13 -22 -31 -26 -39 -3 -8 -25 -44 -47 -80 -22 -36 -45 -77 -52
-92 -6 -16 -15 -28 -20 -28 -4 0 -6 -4 -3 -9 3 -4 -3 -16 -14 -26 -11 -10 -17
-22 -14 -26 3 -5 0 -9 -5 -9 -6 0 -11 -7 -11 -15 0 -8 -4 -15 -10 -15 -5 0
-10 -4 -10 -10 0 -8 -78 -147 -118 -210 -9 -14 -15 -29 -14 -33 1 -4 -5 -10
-13 -13 -8 -4 -15 -15 -15 -25 0 -10 -3 -19 -7 -19 -5 0 -17 -18 -27 -40 -11
-22 -23 -40 -28 -40 -5 0 -6 -4 -3 -10 3 -5 2 -10 -3 -10 -6 0 -12 -10 -16
-23 -3 -12 -14 -32 -26 -44 -11 -12 -20 -28 -20 -36 0 -7 -8 -22 -18 -33 -10
-10 -19 -23 -20 -29 -1 -5 -7 -17 -14 -26 -7 -8 -22 -33 -33 -55 -11 -21 -22
-41 -25 -44 -3 -3 -11 -16 -18 -30 -31 -60 -44 -80 -51 -80 -4 0 -8 -6 -8 -12
0 -7 -35 -71 -78 -143 -43 -71 -89 -148 -102 -170 -13 -22 -28 -52 -34 -67 -6
-16 -15 -28 -20 -28 -5 0 -9 -7 -9 -15 0 -8 -4 -15 -10 -15 -5 0 -10 -9 -10
-20 0 -11 -4 -20 -10 -20 -5 0 -10 -6 -10 -14 0 -7 -7 -19 -15 -26 -8 -7 -12
-16 -9 -21 3 -5 1 -9 -3 -9 -5 0 -20 -21 -33 -47 -14 -27 -28 -50 -31 -53 -4
-3 -17 -25 -30 -50 -13 -25 -25 -47 -28 -50 -4 -3 -17 -25 -30 -50 -13 -25
-30 -52 -37 -61 -8 -8 -14 -19 -14 -23 0 -4 -9 -21 -21 -37 -11 -16 -18 -29
-14 -29 3 0 -3 -10 -15 -22 -11 -12 -20 -28 -20 -35 0 -7 -5 -13 -12 -13 -6 0
-8 -3 -5 -6 4 -4 -4 -21 -16 -38 -12 -17 -22 -34 -22 -38 0 -4 -8 -16 -17 -28
-10 -11 -15 -20 -13 -20 3 0 1 -6 -5 -13 -14 -16 -116 -191 -136 -233 -9 -19
-19 -34 -23 -34 -4 0 -13 -16 -21 -35 -8 -19 -17 -35 -21 -35 -4 0 -11 -10
-15 -22 -4 -13 -19 -42 -35 -64 -16 -23 -26 -44 -23 -46 2 -3 -2 -11 -11 -18
-8 -7 -15 -19 -15 -26 0 -8 -3 -14 -8 -14 -4 0 -18 -21 -32 -48 -13 -26 -27
-49 -31 -52 -3 -3 -12 -17 -20 -32 -36 -70 -142 -248 -150 -254 -5 -3 -7 -9
-5 -13 3 -4 -3 -17 -12 -27 -10 -10 -25 -35 -34 -54 -10 -19 -31 -55 -48 -80
-16 -25 -30 -51 -30 -57 0 -7 -4 -13 -9 -13 -14 0 -22 -44 -9 -51 6 -4 22 -3
34 1 13 5 25 6 28 2 2 -4 120 -5 261 -2 245 5 258 6 269 25 6 11 16 23 21 27
7 5 7 8 0 8 -6 0 -6 3 1 8 6 4 28 39 48 77 21 39 45 76 54 82 9 7 13 13 9 13
-4 0 4 18 18 40 14 22 25 43 25 47 0 3 6 14 14 22 7 9 30 47 50 85 20 38 36
65 36 60 0 -4 8 7 18 26 10 19 29 53 42 75 13 22 35 60 48 85 14 25 32 53 40
63 8 9 11 17 6 17 -5 0 -4 4 2 8 6 4 26 34 44 67 19 33 37 62 42 63 4 2 8 12
8 23 0 10 3 19 8 19 4 0 19 21 32 47 14 27 28 50 33 51 4 2 7 7 7 12 0 5 21
44 46 87 26 43 55 92 64 108 9 17 55 93 100 170 46 77 90 154 98 170 9 17 19
32 23 35 5 3 15 22 24 43 8 20 20 37 26 37 5 0 8 4 4 9 -3 5 -1 12 4 16 9 5
17 19 58 98 9 17 19 34 23 37 5 4 84 138 158 270 14 25 28 47 32 50 3 3 13 21
23 40 9 19 32 60 52 90 19 30 41 67 48 83 6 15 15 27 19 27 5 0 8 4 8 10 0 5
13 31 29 57 113 189 205 349 203 356 -1 4 1 7 6 7 4 0 14 15 21 33 8 17 22 37
30 44 9 7 12 13 8 13 -5 0 -1 7 7 16 9 8 14 20 11 25 -4 5 -2 9 3 9 5 0 19 20
32 45 13 25 28 45 33 45 6 0 8 3 4 6 -3 4 9 29 27 58 18 28 35 58 40 66 4 8
12 24 19 35 7 11 27 47 46 80 19 33 47 78 61 100 15 22 29 45 30 50 2 6 14 27
26 47 13 21 24 42 24 48 0 5 5 10 10 10 6 0 10 4 10 9 0 5 12 30 28 55 15 26
32 56 37 66 6 10 17 25 24 34 7 9 10 16 5 16 -5 0 -4 4 1 8 14 10 33 41 46 74
6 16 14 28 18 28 3 0 12 15 20 33 8 17 17 34 20 37 3 3 17 25 30 50 14 25 31
51 38 58 7 7 13 18 13 23 0 5 11 26 23 47 51 80 61 97 56 98 -2 1 3 10 12 20
19 23 74 119 68 119 -2 0 6 11 19 25 12 13 22 28 22 32 0 5 12 27 27 51 15 23
26 45 25 50 -1 4 3 7 8 7 6 0 10 5 10 11 0 6 20 41 44 79 25 37 42 71 39 74
-4 3 -1 6 5 6 7 0 12 6 12 14 0 7 7 19 15 26 8 7 12 16 9 21 -3 5 0 9 5 9 6 0
11 7 11 15 0 8 4 15 8 15 5 0 14 16 22 35 8 19 17 35 22 35 4 0 8 6 8 14 0 8
6 21 14 28 7 8 17 24 20 36 4 12 12 22 17 22 5 0 9 7 9 15 0 8 1 16 3 16 1 1
144 3 317 5 173 2 315 4 315 5 0 0 198 2 441 3 242 1 446 6 452 10 7 4 18 4
24 0 16 -10 50 -10 66 0 6 4 12 3 12 -1 0 -10 41 -10 58 1 7 4 18 3 25 -2 7
-5 21 -7 32 -5 37 8 217 8 222 0 2 -4 10 -4 16 0 6 4 176 8 377 10 201 1 602
4 891 6 290 3 532 7 538 11 6 4 11 4 11 -1 0 -4 27 -8 60 -8 33 0 60 4 60 9 0
5 6 4 13 -2 8 -7 18 -7 27 -2 9 5 19 5 27 -2 9 -7 13 -7 13 2 0 9 3 10 13 1 8
-6 17 -8 20 -5 9 10 89 11 114 2 12 -4 24 -4 27 0 2 4 134 7 293 7 l288 0 0
-2521 0 -2521 33 -1 c18 -1 37 -4 42 -7 6 -4 10 -1 10 6 0 8 4 8 13 1 7 -6 19
-7 26 -3 7 5 28 5 47 1 21 -5 34 -4 34 2 0 7 4 7 13 0 7 -6 18 -8 24 -4 6 4
67 5 136 2 119 -5 125 -4 126 15 6 98 4 235 -3 235 -5 0 -3 6 3 14 9 10 9 16
1 21 -8 5 -8 11 -1 19 7 9 7 16 -1 24 -8 8 -8 15 1 26 8 10 9 16 1 21 -6 3 -7
12 -3 18 10 16 10 38 0 59 -4 10 -4 18 0 18 10 0 9 303 -1 319 -4 6 -4 11 1
11 9 0 9 213 -1 228 -3 6 -2 13 3 17 7 4 7 15 1 31 -6 14 -7 23 -2 21 9 -6 7
76 -2 91 -3 6 -2 13 3 17 7 4 7 15 1 31 -6 14 -7 23 -2 21 9 -6 8 56 -2 71 -3
6 -2 14 4 17 8 5 8 11 0 20 -8 10 -8 15 0 20 8 5 8 10 0 20 -8 10 -8 15 0 20
8 5 8 11 -1 21 -9 11 -9 17 0 28 8 10 9 16 1 21 -6 3 -7 12 -3 18 10 16 10 38
0 59 -4 10 -4 18 0 18 4 0 8 59 8 130 0 72 -4 130 -9 130 -5 0 -3 6 3 14 9 10
9 16 1 21 -8 5 -8 10 0 20 7 9 8 15 1 19 -6 4 -7 15 -1 30 5 15 5 27 -2 34 -6
6 -6 12 1 16 7 5 7 15 1 32 -6 14 -7 23 -2 21 9 -6 7 76 -2 91 -3 6 -2 13 3
17 7 4 7 15 1 31 -6 15 -6 23 -1 19 6 -3 6 6 1 25 -5 18 -5 32 1 36 6 4 6 11
-1 19 -6 8 -7 16 -2 19 10 6 8 48 -3 65 -3 6 -3 11 2 11 10 0 9 303 -1 319 -4
6 -4 11 1 11 10 0 9 192 -1 208 -3 6 -2 14 4 17 8 5 8 11 0 20 -8 10 -8 15 0
20 8 5 8 10 0 20 -8 10 -8 15 0 20 8 5 8 11 -1 21 -9 11 -9 17 0 28 8 10 9 16
1 21 -6 3 -7 12 -3 18 10 16 10 38 0 60 -4 9 -4 17 0 17 4 0 8 59 8 130 0 72
-4 130 -9 130 -5 0 -3 6 3 14 9 10 9 16 1 21 -8 5 -8 10 0 20 8 10 8 15 0 20
-8 5 -8 10 0 20 8 10 8 15 0 20 -8 5 -8 10 0 20 8 10 8 15 0 20 -8 5 -8 10 0
20 8 10 8 15 0 20 -8 5 -8 11 -1 19 7 9 7 16 -1 24 -8 8 -8 15 1 26 8 10 9 16
1 21 -6 3 -7 12 -3 18 10 16 10 38 0 60 -4 9 -4 17 0 17 4 0 8 59 8 130 0 72
-4 130 -9 130 -5 0 -3 6 3 14 9 10 9 16 1 21 -8 5 -8 10 0 20 8 10 8 15 0 20
-8 5 -8 10 0 20 8 10 8 15 0 20 -8 5 -8 10 0 20 8 10 8 15 0 20 -8 5 -8 10 0
20 8 10 8 15 0 20 -8 5 -8 11 -1 19 7 9 7 16 -1 24 -8 8 -8 15 1 26 8 10 9 16
1 21 -6 3 -7 12 -3 18 10 16 10 38 0 60 -4 9 -4 17 0 17 4 0 8 59 8 130 0 72
-4 130 -9 130 -5 0 -3 6 3 14 9 10 9 16 1 21 -8 5 -8 10 0 20 8 10 8 15 0 20
-8 5 -8 10 0 20 8 10 8 15 0 20 -8 5 -8 10 0 20 8 10 8 15 0 20 -8 5 -8 10 0
20 8 10 8 15 0 20 -8 5 -8 11 -1 19 7 9 7 16 -1 24 -8 8 -8 15 1 26 8 10 9 16
1 21 -6 3 -7 12 -3 18 10 16 10 38 0 60 -4 9 -4 17 0 17 4 0 8 59 8 130 0 72
-4 130 -9 130 -5 0 -3 6 3 14 9 10 9 16 1 21 -8 5 -8 11 -1 19 7 9 7 16 -1 24
-8 8 -8 15 1 26 8 10 9 16 1 21 -6 3 -7 12 -3 18 10 16 10 38 0 59 -4 10 -4
18 0 18 10 0 9 303 -1 319 -4 6 -4 11 1 11 9 0 9 213 -1 228 -3 6 -2 13 3 17
7 4 7 15 1 31 -6 14 -7 23 -2 21 9 -6 7 76 -2 91 -3 6 -2 13 3 17 7 4 7 15 1
31 -6 14 -7 23 -2 21 9 -6 8 56 -2 71 -3 6 -2 14 4 17 8 5 8 11 0 20 -8 10 -8
15 0 20 8 5 8 10 0 20 -8 10 -8 15 0 20 8 5 8 11 -1 21 -9 11 -9 17 0 28 8 10
9 16 1 21 -6 3 -7 12 -3 18 10 16 10 38 0 60 -4 9 -4 17 0 17 4 0 8 59 8 130
0 72 -4 130 -9 130 -5 0 -3 6 3 14 9 10 9 16 1 21 -8 5 -8 10 0 20 7 9 8 15 1
19 -6 4 -7 15 -1 30 5 15 5 27 -2 34 -6 6 -6 12 1 16 7 5 7 15 1 32 -6 14 -7
23 -2 21 9 -6 7 76 -2 91 -3 6 -2 13 3 17 7 4 7 15 1 31 -6 15 -6 23 -1 19 6
-3 6 6 1 25 -5 18 -5 32 1 36 6 4 6 11 -1 19 -6 8 -7 16 -2 19 10 6 8 48 -3
65 -3 6 -3 11 2 11 10 0 9 303 -1 319 -4 6 -4 11 1 11 10 0 9 192 -1 208 -3 6
-2 14 4 17 8 5 8 11 0 20 -8 10 -8 15 0 20 8 5 8 10 0 20 -8 10 -8 15 0 20 8
5 8 11 -1 21 -9 11 -9 17 0 28 8 10 9 16 1 21 -6 3 -7 12 -3 18 10 16 10 38 0
60 -4 9 -4 17 0 17 4 0 8 59 8 130 0 72 -4 130 -9 130 -5 0 -3 6 3 14 9 10 9
16 1 21 -8 5 -8 10 0 20 8 10 8 15 0 20 -8 5 -8 10 0 20 8 10 8 15 0 20 -8 5
-8 10 0 20 8 10 8 15 0 20 -8 5 -8 10 0 20 8 10 8 15 0 20 -8 5 -8 11 -1 19 7
9 7 16 -1 24 -8 8 -8 15 1 26 8 10 9 16 1 21 -6 3 -7 12 -3 18 10 16 10 38 0
60 -4 9 -4 17 0 17 4 0 8 59 8 130 0 72 -4 130 -9 130 -5 0 -3 6 3 14 9 10 9
16 1 21 -8 5 -8 10 0 20 8 10 8 15 0 20 -8 5 -8 10 0 20 8 10 8 15 0 20 -8 5
-8 10 0 20 8 10 8 15 0 20 -8 5 -8 10 0 20 8 10 8 15 0 20 -8 5 -8 11 -1 19 7
9 7 16 -1 24 -8 8 -8 15 1 26 8 10 9 16 1 21 -6 3 -7 12 -3 18 10 16 10 38 0
60 -4 9 -4 17 0 17 4 0 8 59 8 130 0 72 -4 130 -9 130 -5 0 -3 6 3 14 9 10 9
16 1 21 -8 5 -8 10 0 20 8 10 8 15 0 20 -8 5 -8 10 0 20 8 10 8 15 0 20 -8 5
-8 10 0 20 8 10 8 15 0 20 -8 5 -8 10 0 20 8 10 8 15 0 20 -8 5 -8 11 -1 19 7
9 7 16 -1 24 -8 8 -8 15 1 26 8 10 9 16 1 21 -6 3 -7 12 -3 18 10 16 10 38 0
60 -4 9 -4 17 0 17 4 0 8 59 8 130 0 72 -4 130 -9 130 -5 0 -3 6 3 14 9 10 9
16 1 21 -8 5 -8 11 -1 19 7 9 7 16 -1 24 -8 8 -8 15 1 26 8 10 9 16 1 21 -6 3
-7 12 -3 18 10 16 10 38 0 60 -4 9 -4 17 0 17 10 0 9 303 -1 319 -4 6 -4 11 1
11 9 0 9 213 -1 228 -3 6 -2 13 3 17 7 4 7 15 1 31 -6 14 -7 23 -2 21 9 -6 7
76 -2 91 -3 6 -2 13 3 17 7 4 7 15 1 31 -6 14 -7 23 -2 21 9 -6 8 56 -2 71 -3
6 -2 14 4 17 8 5 8 11 0 20 -8 10 -8 15 0 20 8 5 8 10 0 20 -8 10 -8 15 0 20
8 5 8 11 -1 21 -9 11 -9 17 0 28 8 10 9 16 1 21 -6 3 -7 12 -3 18 10 16 10 38
0 60 -4 9 -4 17 0 17 4 0 8 59 8 130 0 72 -4 130 -9 130 -5 0 -3 6 3 14 9 10
9 16 1 21 -8 5 -8 10 0 20 7 9 8 15 1 19 -6 4 -7 15 -1 30 5 15 5 27 -2 34 -6
6 -6 12 1 16 7 5 7 15 1 32 -6 14 -7 23 -2 21 9 -6 7 76 -2 91 -3 6 -2 13 3
17 7 4 7 15 1 31 -6 15 -6 23 -1 19 6 -3 6 6 1 25 -5 18 -5 32 1 36 6 4 6 11
-1 19 -6 8 -7 16 -2 19 10 6 8 48 -3 65 -3 6 -3 11 2 11 10 0 9 303 -1 319 -4
6 -4 11 1 11 10 0 9 192 -1 208 -3 6 -2 14 4 17 8 5 8 11 0 20 -8 10 -8 15 0
20 8 5 8 10 0 20 -8 10 -8 15 0 20 8 5 8 11 -1 21 -9 11 -9 17 0 28 8 10 9 16
1 21 -6 3 -7 12 -3 18 10 16 10 38 0 60 -4 9 -4 17 0 17 4 0 8 59 8 130 0 72
-4 130 -9 130 -5 0 -3 6 3 14 9 10 9 16 1 21 -8 5 -8 11 -1 19 7 9 7 16 0 23
-8 8 -7 13 1 18 8 5 8 10 0 20 -8 10 -8 15 0 20 8 5 8 10 0 20 -8 10 -8 15 0
20 8 5 8 10 0 20 -8 10 -8 15 0 20 8 5 8 11 -1 21 -9 11 -9 17 0 28 8 10 9 16
1 21 -6 3 -7 12 -3 18 10 16 10 38 0 60 -4 9 -4 17 0 17 10 0 8 123 -1 139 -4
6 -2 11 4 11 8 0 8 6 0 20 -9 17 -5 31 21 78 18 31 40 69 50 83 10 14 16 29
12 33 -3 3 -1 6 5 6 7 0 12 7 12 15 0 8 5 15 10 15 6 0 10 7 10 15 0 8 5 15
11 15 5 0 8 4 4 9 -3 5 0 16 7 23 13 14 40 60 62 105 6 13 14 23 19 23 4 0 7
4 7 9 0 5 47 92 105 192 58 100 105 186 105 191 0 4 5 8 11 8 5 0 8 4 5 9 -4
5 -3 11 2 13 9 4 92 147 92 159 0 5 5 9 11 9 5 0 7 5 4 10 -3 6 -1 10 4 10 6
0 11 4 11 9 0 4 36 70 80 145 44 75 80 141 80 146 0 6 3 10 8 10 4 0 12 10 18
23 24 52 78 143 88 149 6 4 7 8 2 8 -5 0 -3 8 5 18 13 15 27 40 63 107 6 11
20 30 31 43 11 13 19 27 19 30 -2 8 22 51 98 178 26 45 48 87 48 93 0 6 5 11
10 11 6 0 10 4 10 8 0 13 152 276 165 284 5 4 6 8 1 8 -4 0 4 16 18 35 15 19
24 35 20 35 -4 0 0 8 8 18 9 9 24 33 33 52 10 19 21 37 24 40 9 7 35 64 33 73
-1 4 2 7 8 7 5 0 10 7 10 15 0 8 4 15 8 15 4 0 23 29 41 65 19 36 38 65 42 65
5 0 8 3 8 8 -3 18 2 30 24 52 12 14 20 25 19 25 -8 0 22 55 30 55 5 0 6 5 3
10 -3 6 -1 10 4 10 6 0 10 3 9 8 -1 4 14 35 35 70 20 35 37 67 37 73 0 5 4 9
9 9 5 0 11 8 14 18 8 23 40 75 52 84 6 4 6 8 2 8 -4 0 5 19 21 43 16 23 31 47
33 52 9 24 93 165 98 165 4 0 5 -728 4 -1618 -2 -2058 -5 -16041 -4 -16066 1
-13 5 -16 14 -9 10 8 85 9 202 4 17 -1 42 0 58 3 16 2 27 0 27 -7 1 -7 10 -1
21 12 13 16 16 28 10 34 -7 7 -7 16 0 29 7 12 6 18 -1 18 -6 0 -8 5 -4 12 10
16 10 50 0 66 -4 7 -4 18 1 25 10 13 10 54 0 63 -3 3 -2 17 3 30 5 13 6 26 0
29 -5 3 -5 18 0 35 11 38 11 42 -2 58 -7 7 -7 17 -1 25 10 13 10 54 0 63 -3 3
-2 17 3 30 5 13 6 26 0 29 -7 4 2 58 12 69 2 1 -3 10 -11 19 -9 11 -10 21 -4
30 10 13 10 54 0 63 -3 3 -2 17 3 30 5 13 6 26 0 29 -5 3 -5 18 0 35 11 38 11
42 -2 58 -7 7 -7 17 -1 25 10 12 10 54 0 63 -3 3 -1 19 3 35 5 17 5 31 -1 35
-6 4 -6 11 1 19 8 10 8 15 0 20 -8 5 -8 10 0 20 8 10 8 15 0 20 -8 5 -8 10 0
20 8 10 8 15 0 20 -8 5 -8 10 0 20 8 10 8 15 0 20 -8 5 -8 10 0 20 8 10 8 15
0 20 -8 5 -8 10 0 20 8 10 8 15 0 20 -8 5 -8 10 0 20 8 10 8 15 0 20 -8 5 -8
10 0 20 8 10 8 15 0 20 -8 5 -8 10 0 20 8 10 8 15 0 20 -8 5 -8 10 0 20 8 10
8 15 0 20 -8 5 -8 10 0 20 8 10 8 15 0 20 -8 5 -8 10 0 20 8 10 8 15 0 20 -8
5 -8 10 0 20 8 10 8 15 0 20 -8 5 -8 10 0 20 8 10 8 15 0 20 -8 5 -8 10 0 20
8 10 8 15 0 20 -8 5 -8 10 0 20 8 10 8 15 0 20 -8 5 -8 10 0 20 8 10 8 15 0
20 -8 5 -8 10 0 20 8 10 8 15 0 20 -8 5 -8 10 0 20 8 10 8 15 0 20 -8 5 -8 10
0 20 8 10 8 15 0 20 -8 5 -8 10 0 20 8 10 8 15 0 20 -8 5 -8 10 0 20 8 10 8
15 0 20 -8 5 -8 10 0 20 8 10 8 15 0 20 -8 5 -8 10 0 20 8 10 8 15 0 20 -8 5
-8 10 0 20 8 10 8 15 0 20 -8 5 -8 10 0 20 8 10 8 15 0 20 -8 5 -8 10 0 20 8
10 8 15 0 20 -8 5 -8 10 0 20 8 10 8 15 0 20 -8 5 -8 10 0 20 8 10 8 15 0 20
-8 5 -8 10 0 20 8 10 8 15 0 20 -8 5 -8 10 0 20 8 10 8 15 0 20 -7 5 -8 11 -1
19 6 7 6 18 1 26 -4 7 -4 24 0 36 6 14 5 26 0 29 -5 3 -5 18 0 35 11 38 11 42
-2 58 -7 7 -7 17 -1 25 10 13 10 54 0 63 -3 3 -2 17 3 30 5 13 6 26 0 29 -5 3
-5 18 0 35 11 38 11 42 -2 57 -7 8 -7 18 -1 25 10 14 10 55 0 64 -3 3 -2 17 3
30 5 13 6 26 0 29 -5 3 -5 18 0 35 11 38 11 42 -2 57 -7 8 -7 18 -1 25 10 14
10 55 0 64 -3 3 -2 17 3 30 5 13 6 26 0 29 -7 4 2 58 12 69 2 1 -3 10 -11 19
-9 11 -10 21 -4 29 10 14 10 55 0 64 -3 3 -2 17 3 30 5 13 6 26 0 29 -5 3 -5
18 0 35 11 38 11 42 -2 57 -7 8 -7 18 -1 25 10 13 10 55 0 64 -3 3 -1 19 3 35
5 17 5 31 -1 35 -6 4 -6 11 1 19 8 10 8 15 0 20 -8 5 -8 10 0 20 8 10 8 15 0
20 -8 5 -8 10 0 20 8 10 8 15 0 20 -8 5 -8 10 0 20 8 10 8 15 0 20 -8 5 -8 10
0 20 8 10 8 15 0 20 -8 5 -8 10 0 20 8 10 8 15 0 20 -8 5 -8 10 0 20 8 10 8
15 0 20 -8 5 -8 10 0 20 8 10 8 15 0 20 -8 5 -8 10 0 20 8 10 8 15 0 20 -8 5
-8 10 0 20 8 10 8 15 0 20 -8 5 -8 10 0 20 8 10 8 15 0 20 -8 5 -8 10 0 20 8
10 8 15 0 20 -8 5 -8 10 0 20 8 10 8 15 0 20 -8 5 -8 10 0 20 8 10 8 15 0 20
-8 5 -8 10 0 20 8 10 8 15 0 20 -8 5 -8 10 0 20 8 10 8 15 0 20 -8 5 -8 10 0
20 8 10 8 15 0 20 -8 5 -8 10 0 20 8 10 8 15 0 20 -8 5 -8 10 0 20 8 10 8 15
0 20 -8 5 -8 10 0 20 8 10 8 15 0 20 -8 5 -8 10 0 20 8 10 8 15 0 20 -8 5 -8
10 0 20 8 10 8 15 0 20 -8 5 -8 10 0 20 8 10 8 15 0 20 -8 5 -8 10 0 20 8 10
8 15 0 20 -8 5 -8 10 0 20 8 10 8 15 0 20 -8 5 -8 10 0 20 8 10 8 15 0 20 -8
5 -8 10 0 20 8 10 8 15 0 20 -8 5 -8 10 0 20 8 10 8 15 0 20 -8 5 -8 10 0 20
8 10 8 15 0 20 -8 5 -8 10 0 20 8 10 8 15 0 20 -8 5 -8 10 0 20 8 10 8 15 0
20 -7 5 -8 11 -1 19 6 7 6 18 1 26 -4 7 -4 24 0 36 6 14 5 26 0 29 -5 3 -5 18
-1 33 9 33 8 43 -3 60 -4 7 -4 18 1 25 10 13 10 54 0 63 -3 3 -2 17 3 30 5 13
6 26 0 29 -5 3 -5 18 -1 33 9 33 8 43 -3 60 -4 7 -4 18 1 25 10 13 10 54 0 63
-3 3 -2 17 3 30 5 13 6 26 0 29 -5 3 -5 18 -1 33 9 33 8 43 -3 60 -4 7 -4 18
1 25 10 13 10 54 0 63 -3 3 -2 17 3 30 5 13 6 26 0 29 -5 3 -5 18 -1 33 9 33
8 43 -3 60 -4 7 -4 18 1 25 10 13 10 54 0 63 -3 3 -2 17 3 30 5 13 6 26 0 29
-5 3 -5 18 -1 33 9 33 8 43 -3 60 -4 7 -4 18 1 25 10 13 10 54 0 63 -3 3 -1
19 3 35 5 17 5 31 -1 35 -6 4 -6 11 1 19 8 10 8 15 0 20 -8 5 -8 10 0 20 8 10
8 15 0 20 -8 5 -8 10 0 20 8 10 8 15 0 20 -8 5 -8 10 0 20 8 10 8 15 0 20 -8
5 -8 10 0 20 8 10 8 15 0 20 -8 5 -8 10 0 20 8 10 8 15 0 20 -8 5 -8 10 0 20
8 10 8 15 0 20 -8 5 -8 10 0 20 8 10 8 15 0 20 -8 5 -8 10 0 20 8 10 8 15 0
20 -8 5 -8 10 0 20 8 10 8 15 0 20 -8 5 -8 10 0 20 8 10 8 15 0 20 -8 5 -8 10
0 20 8 10 8 15 0 20 -8 5 -8 10 0 20 8 10 8 15 0 20 -8 5 -8 10 0 20 8 10 8
15 0 20 -8 5 -8 10 0 20 8 10 8 15 0 20 -8 5 -8 10 0 20 8 10 8 15 0 20 -8 5
-8 10 0 20 8 10 8 15 0 20 -8 5 -8 10 0 20 8 10 8 15 0 20 -8 5 -8 10 0 20 7
8 7 15 1 19 -6 4 -6 18 -1 36 5 17 9 33 10 37 1 3 -4 10 -12 14 -7 5 -8 9 -3
9 11 0 15 11903 5 11914 -3 3 -11 -7 -17 -22z m-2768 -9487 c0 -3827 0 -3834
-20 -3837 -11 -2 -174 -3 -362 -3 -189 0 -343 -4 -343 -8 0 -5 -5 -5 -11 -2
-17 11 -59 13 -65 3 -3 -5 -11 -4 -19 2 -7 6 -16 7 -18 3 -6 -10 -81 -8 -97 2
-6 3 -10 3 -10 -2 0 -4 -11 -8 -25 -8 -14 0 -25 4 -25 8 0 4 -9 3 -20 -3 -15
-8 -20 -8 -20 2 0 8 -3 9 -8 3 -8 -13 -92 -15 -92 -2 0 4 -5 5 -12 1 -17 -11
-98 -12 -98 -1 0 4 -6 5 -12 1 -7 -5 -188 -9 -403 -11 -214 -2 -396 -5 -402
-8 -7 -2 -13 0 -13 5 0 5 -12 6 -27 2 -16 -4 -223 -7 -460 -7 -238 0 -433 -3
-433 -7 0 -4 -11 -4 -23 1 -13 5 -30 5 -37 1 -8 -5 -18 -6 -23 -3 -5 3 -43 4
-85 4 -106 -3 -221 -3 -257 -2 -31 1 -810 -7 -810 -9 0 -1 -206 -2 -218 -1 -7
1 49 118 63 131 6 6 49 85 65 117 5 13 13 23 18 23 4 0 7 7 7 15 0 8 5 15 10
15 6 0 9 3 8 8 -2 6 48 99 82 152 5 8 17 30 26 48 9 17 21 32 26 32 5 0 7 4 4
9 -3 4 3 19 14 31 11 13 20 27 20 31 0 5 20 42 45 82 25 41 45 80 45 86 0 6 4
11 8 11 4 0 13 12 20 27 7 16 24 46 37 68 14 22 28 48 31 58 4 9 10 17 15 17
5 0 8 3 7 8 -3 9 53 106 64 110 5 2 6 8 2 13 -3 5 0 9 6 9 6 0 9 4 6 8 -3 5 2
18 12 28 9 11 26 37 37 59 11 22 26 46 32 53 7 7 13 20 13 28 0 8 5 14 12 14
6 0 8 3 5 7 -4 3 -1 13 5 21 14 16 23 32 57 96 14 25 28 46 33 46 4 0 8 6 8
13 0 6 23 50 50 96 28 46 50 88 50 93 0 4 5 8 11 8 5 0 7 5 4 10 -3 6 -1 10 5
10 6 0 9 4 6 9 -3 4 3 16 14 26 11 10 17 22 14 26 -3 5 0 9 5 9 6 0 11 6 11
13 0 7 11 28 25 47 13 18 22 37 19 41 -3 5 0 9 5 9 6 0 11 7 11 15 0 8 5 15
10 15 6 0 10 7 10 15 0 8 4 15 10 15 5 0 9 3 8 8 -2 4 8 25 21 47 14 22 36 60
49 85 14 25 28 47 32 50 4 3 11 16 15 30 4 14 11 27 15 30 4 3 18 25 32 50 14
25 38 68 54 95 15 28 32 52 36 53 4 2 6 8 2 13 -3 5 -2 9 3 9 4 0 14 15 22 33
8 17 27 51 42 73 16 23 25 44 22 48 -4 3 -1 6 5 6 7 0 12 7 12 15 0 8 5 15 10
15 6 0 10 6 10 13 0 7 11 29 25 50 14 20 22 37 18 37 -4 0 -3 4 3 8 13 8 59
85 75 125 6 15 14 27 17 27 4 0 16 19 27 43 11 23 23 44 26 47 3 3 16 24 28
47 11 23 25 45 31 48 6 4 8 11 5 16 -4 5 1 12 9 15 9 3 14 10 11 14 -3 5 1 14
8 22 7 7 18 24 25 38 7 14 20 39 30 55 30 48 74 127 95 168 10 20 23 37 28 37
5 0 9 9 9 19 0 11 4 22 9 25 5 3 19 25 31 48 12 24 25 45 29 48 3 3 14 21 24
40 9 19 27 51 38 70 12 19 33 56 46 83 14 26 29 47 34 47 5 0 9 8 9 19 0 10 7
24 15 31 8 7 15 16 15 20 0 11 112 204 123 211 5 3 8 8 7 10 -4 8 24 59 32 59
4 0 8 6 8 13 0 12 79 151 100 174 6 7 11 16 11 20 1 10 46 90 70 125 11 15 19
32 19 37 0 5 6 16 13 23 6 7 22 31 34 53 48 90 65 118 79 132 8 8 12 18 9 23
-3 4 2 13 10 20 8 7 12 16 9 21 -3 5 -1 9 4 9 4 0 19 19 31 43 12 23 36 65 52
92 16 28 35 61 42 75 6 14 14 27 18 30 3 3 14 21 24 40 10 19 21 37 24 40 3 3
21 34 40 70 19 36 37 67 40 70 4 3 12 16 18 30 19 39 73 132 95 163 11 15 16
27 12 27 -4 0 0 8 8 18 16 18 85 136 120 202 7 14 15 27 19 30 3 3 12 20 20
38 8 17 17 32 21 32 5 0 8 5 8 10 0 6 11 27 23 48 13 20 35 57 49 82 14 25 34
61 46 81 11 20 26 47 34 60 7 13 15 26 18 29 3 3 13 20 23 38 9 17 25 47 35
64 9 18 19 35 22 38 7 7 35 56 61 108 12 23 26 42 31 42 6 0 8 7 4 15 -3 8 -2
15 2 15 6 0 40 52 42 65 1 6 67 116 77 131 9 11 25 39 54 92 11 20 33 60 49
87 16 28 39 68 51 90 12 22 24 42 28 45 3 3 14 21 24 40 39 73 52 95 62 102 7
5 7 8 0 8 -6 0 -6 3 0 8 6 4 16 18 23 32 13 27 21 40 65 107 15 24 25 43 21
43 -4 0 0 8 8 18 20 22 53 85 50 95 -1 4 2 7 7 7 4 0 19 20 32 45 13 25 27 45
30 45 3 0 6 6 6 13 0 7 16 38 36 69 19 31 33 59 30 62 -4 3 -2 6 3 6 6 0 21
22 35 49 13 27 26 47 29 44 3 -2 5 -1730 5 -3838z"/>
<path d="M4896 3041 c-4 -6 4 -13 19 -17 13 -3 22 -10 19 -16 -3 -5 -13 -7
-21 -4 -8 3 -11 1 -8 -4 3 -6 1 -10 -4 -10 -6 0 -11 -5 -11 -11 0 -6 9 -4 21
5 12 8 26 13 33 12 6 -2 8 -1 3 1 -4 3 -5 9 -1 14 3 5 -3 12 -13 16 -10 4 -21
11 -24 16 -4 5 -9 5 -13 -2z"/>
<path d="M4872 3016 c7 -8 15 -12 17 -11 5 6 -10 25 -20 25 -5 0 -4 -6 3 -14z"/>
<path d="M4115 3010 c-3 -5 -3 -10 2 -10 4 0 2 -4 -5 -9 -11 -7 -10 -9 3 -14
11 -5 14 -3 9 5 -5 7 -2 9 8 6 8 -4 15 -1 15 7 0 8 -7 11 -15 7 -10 -3 -13 -1
-8 6 4 7 5 12 2 12 -3 0 -8 -4 -11 -10z"/>
<path d="M4800 3011 c0 -7 -5 -9 -12 -5 -7 5 -8 3 -3 -5 5 -9 10 -10 18 -2 6
6 8 14 4 18 -4 3 -7 1 -7 -6z"/>
<path d="M4841 3013 c-1 -17 16 -25 25 -12 4 7 3 9 -4 5 -5 -3 -13 0 -15 6 -4
9 -6 10 -6 1z"/>
<path d="M4930 2969 c0 -5 -4 -7 -10 -4 -6 4 -7 -1 -3 -11 4 -11 8 -13 11 -6
2 7 8 10 13 7 5 -4 6 1 3 9 -7 18 -14 21 -14 5z"/>
<path d="M4095 2960 c3 -5 8 -10 11 -10 2 0 4 5 4 10 0 6 -5 10 -11 10 -5 0
-7 -4 -4 -10z"/>
<path d="M4103 2934 c-17 -13 -17 -14 2 -7 20 6 20 6 1 -15 -26 -30 -13 -28
17 2 28 28 12 45 -20 20z"/>
<path d="M4727 2926 c-12 -9 -14 -16 -8 -21 6 -3 11 -1 11 5 0 6 4 9 8 6 5 -3
9 1 9 9 0 8 -1 15 -1 15 -1 0 -9 -7 -19 -14z"/>
<path d="M4935 2930 c-8 -13 3 -30 18 -29 9 0 9 2 0 6 -7 2 -13 9 -13 15 0 6
7 7 16 4 8 -3 12 -2 9 4 -8 13 -22 13 -30 0z"/>
<path d="M4917 2890 c6 -23 33 -49 33 -31 0 6 -4 11 -10 11 -5 0 -10 6 -10 14
0 8 -4 17 -9 20 -5 4 -7 -3 -4 -14z"/>
<path d="M4120 2879 c0 -5 5 -7 10 -4 6 3 10 8 10 11 0 2 -4 4 -10 4 -5 0 -10
-5 -10 -11z"/>
<path d="M4716 2879 c2 -4 -2 -10 -8 -12 -8 -4 -9 -6 -2 -6 6 -1 17 5 23 12 8
10 7 14 -4 14 -8 0 -12 -4 -9 -8z"/>
<path d="M4097 2873 c-4 -3 -7 -11 -7 -17 0 -6 5 -5 12 2 6 6 9 14 7 17 -3 3
-9 2 -12 -2z"/>
<path d="M4130 2849 c0 -5 -4 -8 -8 -5 -4 2 -14 0 -22 -6 -12 -8 -12 -9 3 -4
19 6 24 -10 5 -17 -10 -4 -10 -6 0 -6 7 -1 15 6 18 14 4 8 10 12 15 9 5 -3 6
2 3 10 -7 18 -14 21 -14 5z"/>
<path d="M4677 2841 c-4 -17 -3 -21 5 -13 5 5 8 16 6 23 -3 8 -7 3 -11 -10z"/>
<path d="M4918 2840 c12 -5 22 -15 22 -21 0 -7 3 -9 6 -6 10 10 -16 37 -35 36
-11 0 -9 -3 7 -9z"/>
<path d="M4693 2815 c-3 -9 -3 -18 -1 -21 3 -3 8 4 11 16 6 23 -1 27 -10 5z"/>
<path d="M4895 2820 c3 -5 8 -10 11 -10 2 0 4 5 4 10 0 6 -5 10 -11 10 -5 0
-7 -4 -4 -10z"/>
<path d="M4916 2805 c-3 -8 -1 -15 4 -15 6 0 10 7 10 15 0 8 -2 15 -4 15 -2 0
-6 -7 -10 -15z"/>
<path d="M4130 2802 c0 -6 -8 -13 -17 -15 -16 -4 -16 -5 -1 -6 18 -1 34 16 24
26 -3 4 -6 1 -6 -5z"/>
<path d="M4671 2794 c0 -11 3 -14 6 -6 3 7 2 16 -1 19 -3 4 -6 -2 -5 -13z"/>
<path d="M4653 2772 c0 -12 5 -22 9 -22 11 0 10 12 -2 30 -7 12 -9 10 -7 -8z"/>
<path d="M4895 2766 c2 -14 8 -33 15 -43 11 -17 11 -17 4 2 -3 11 -6 28 -6 37
0 10 -3 20 -7 23 -5 2 -7 -6 -6 -19z"/>
<path d="M4930 2769 c-7 -11 -9 -23 -6 -27 3 -3 6 0 6 7 0 7 4 10 8 7 4 -2 8
4 8 15 0 24 -3 24 -16 -2z"/>
<path d="M4099 2753 c25 -44 30 -49 28 -26 0 12 -5 19 -9 17 -4 -3 -8 2 -8 10
0 9 -5 16 -10 16 -7 0 -7 -6 -1 -17z"/>
<path d="M4666 2723 c-6 -14 -5 -15 5 -6 7 7 10 15 7 18 -3 3 -9 -2 -12 -12z"/>
<path d="M4090 2718 c0 -9 5 -20 10 -23 13 -8 13 5 0 25 -8 13 -10 13 -10 -2z"/>
<path d="M4630 2700 c0 -5 5 -10 11 -10 8 0 8 -5 -1 -15 -7 -8 -17 -12 -23 -8
-6 4 -7 1 -2 -7 4 -7 2 -16 -6 -21 -8 -5 -9 -9 -3 -9 15 0 52 53 47 68 -5 14
-23 16 -23 2z"/>
<path d="M4886 2701 c-4 -5 -2 -12 3 -16 6 -3 7 -13 4 -22 -4 -11 -3 -14 5 -9
7 4 10 16 9 26 -4 25 -13 34 -21 21z"/>
<path d="M4921 2684 c0 -11 3 -14 6 -6 3 7 2 16 -1 19 -3 4 -6 -2 -5 -13z"/>
<path d="M4077 2684 c-3 -4 -2 -15 3 -25 7 -12 7 -20 0 -24 -7 -4 -5 -14 5
-27 13 -19 12 -23 -3 -35 -15 -13 -15 -13 5 -3 12 5 25 15 29 22 4 6 3 8 -2 5
-6 -3 -15 3 -22 14 -9 13 -9 19 -1 19 7 0 8 7 4 18 -4 9 -8 23 -8 30 0 14 -1
14 -10 6z"/>
<path d="M4108 2673 c7 -3 16 -2 19 1 4 3 -2 6 -13 5 -11 0 -14 -3 -6 -6z"/>
<path d="M5513 2650 c-1 -11 2 -20 7 -20 4 0 7 7 6 15 -3 23 -12 26 -13 5z"/>
<path d="M4122 2638 c-15 -15 -15 -28 0 -28 6 0 8 3 5 7 -4 3 -2 12 4 20 14
16 7 17 -9 1z"/>
<path d="M4873 2623 c0 -7 4 -13 8 -13 4 0 9 6 12 13 3 8 0 14 -7 14 -7 0 -13
-6 -13 -14z"/>
<path d="M4630 2620 c0 -5 5 -10 10 -10 6 0 10 5 10 10 0 6 -4 10 -10 10 -5 0
-10 -4 -10 -10z"/>
<path d="M5468 2623 c6 -2 18 -2 25 0 6 3 1 5 -13 5 -14 0 -19 -2 -12 -5z"/>
<path d="M5510 2609 c0 -5 5 -7 10 -4 6 3 10 8 10 11 0 2 -4 4 -10 4 -5 0 -10
-5 -10 -11z"/>
<path d="M4900 2599 c0 -5 5 -7 10 -4 6 3 10 8 10 11 0 2 -4 4 -10 4 -5 0 -10
-5 -10 -11z"/>
<path d="M5449 2593 c-13 -16 -12 -17 4 -4 9 7 17 15 17 17 0 8 -8 3 -21 -13z"/>
<path d="M5480 2595 c-7 -9 -11 -17 -9 -20 3 -2 10 5 17 15 14 24 10 26 -8 5z"/>
<path d="M4623 2593 c-7 -2 -13 -9 -13 -15 0 -7 5 -7 13 1 8 6 18 7 22 3 5 -4
5 -1 1 6 -4 6 -8 12 -9 11 -1 0 -8 -3 -14 -6z"/>
<path d="M4880 2581 c10 -18 9 -25 -1 -32 -7 -4 -10 -11 -6 -16 5 -4 12 -1 17
7 13 20 12 23 -6 46 -14 18 -15 18 -4 -5z"/>
<path d="M5487 2570 c-9 -11 -13 -20 -8 -20 11 0 35 29 29 35 -2 2 -12 -4 -21
-15z"/>
<path d="M4108 2567 c-15 -12 -15 -14 5 -27 19 -12 20 -11 10 2 -10 11 -10 17
-1 26 16 16 7 15 -14 -1z"/>
<path d="M4856 2563 c-6 -14 -5 -15 5 -6 7 7 10 15 7 18 -3 3 -9 -2 -12 -12z"/>
<path d="M4593 2555 c0 -7 6 -11 14 -8 7 3 13 6 13 8 0 2 -6 5 -13 8 -8 3 -14
-1 -14 -8z"/>
<path d="M5440 2560 c0 -5 5 -10 10 -10 6 0 10 5 10 10 0 6 -4 10 -10 10 -5 0
-10 -4 -10 -10z"/>
<path d="M4990 2538 c0 -11 12 -10 30 2 12 7 10 9 -8 7 -12 0 -22 -5 -22 -9z"/>
<path d="M5110 2540 c0 -5 5 -10 10 -10 6 0 10 5 10 10 0 6 -4 10 -10 10 -5 0
-10 -4 -10 -10z"/>
<path d="M5497 2543 c-4 -3 -7 -11 -7 -17 0 -6 5 -5 12 2 6 6 9 14 7 17 -3 3
-9 2 -12 -2z"/>
<path d="M4074 2531 c4 -5 1 -12 -4 -14 -6 -3 -5 -4 2 -3 15 3 23 26 8 26 -6
0 -9 -4 -6 -9z"/>
<path d="M5428 2533 c7 -3 16 -2 19 1 4 3 -2 6 -13 5 -11 0 -14 -3 -6 -6z"/>
<path d="M5457 2526 c-4 -10 -3 -15 3 -11 6 3 10 1 10 -6 0 -7 3 -10 6 -6 3 3
2 13 -4 22 -8 16 -9 16 -15 1z"/>
<path d="M4105 2521 c3 -5 -1 -11 -7 -14 -7 -2 -11 -7 -8 -10 3 -3 13 0 23 8
16 11 16 13 2 19 -9 3 -14 2 -10 -3z"/>
<path d="M4857 2515 c7 -14 6 -28 -3 -45 -8 -14 -14 -19 -14 -11 0 11 -4 9
-14 -5 -8 -10 -12 -21 -10 -24 3 -2 9 2 14 10 8 13 10 12 10 -2 0 -9 -6 -19
-12 -21 -10 -4 -10 -6 0 -6 8 -1 16 8 19 20 4 12 11 18 20 15 8 -3 12 -2 8 3
-3 5 -2 11 2 14 5 2 3 2 -4 1 -7 -2 -10 3 -7 11 3 8 13 11 22 8 15 -5 15 -4 2
8 -8 8 -21 21 -29 29 -12 13 -12 12 -4 -5z"/>
<path d="M4935 2520 c-3 -5 -1 -10 4 -10 6 0 11 5 11 10 0 6 -2 10 -4 10 -3 0
-8 -4 -11 -10z"/>
<path d="M5066 2516 c25 -18 39 -19 39 -4 0 7 -13 14 -29 15 -27 2 -28 1 -10
-11z m34 -6 c0 -5 -2 -10 -4 -10 -3 0 -8 5 -11 10 -3 6 -1 10 4 10 6 0 11 -4
11 -10z"/>
<path d="M5140 2520 c0 -5 5 -10 11 -10 5 0 7 5 4 10 -3 6 -8 10 -11 10 -2 0
-4 -4 -4 -10z"/>
<path d="M4610 2501 c0 -6 4 -13 10 -16 6 -3 7 1 4 9 -7 18 -14 21 -14 7z"/>
<path d="M5040 2506 c0 -2 7 -7 16 -10 8 -3 12 -2 9 4 -6 10 -25 14 -25 6z"/>
<path d="M5116 2493 c-6 -14 -5 -15 5 -6 7 7 10 15 7 18 -3 3 -9 -2 -12 -12z"/>
<path d="M4592 2480 c0 -14 2 -19 5 -12 2 6 2 18 0 25 -3 6 -5 1 -5 -13z"/>
<path d="M5414 2476 c1 -12 7 -20 14 -19 7 2 11 -6 9 -20 -1 -12 3 -21 10 -20
6 2 11 -6 10 -17 -1 -11 -7 -20 -14 -20 -16 0 -17 -16 -1 -26 6 -4 8 -3 5 3
-4 6 -1 13 7 16 16 6 15 53 -1 50 -16 -3 -9 47 8 58 8 5 10 9 4 10 -48 7 -52
6 -51 -15z m26 -1 c-7 -9 -15 -13 -17 -11 -7 7 7 26 19 26 6 0 6 -6 -2 -15z"/>
<path d="M4065 2479 c-4 -6 -5 -12 -2 -15 2 -3 7 2 10 11 7 17 1 20 -8 4z"/>
<path d="M5126 2475 c-11 -8 -16 -18 -12 -22 4 -4 12 0 17 10 6 9 14 15 20 12
5 -4 9 -1 9 4 0 15 -11 13 -34 -4z"/>
<path d="M5472 2474 c-7 -8 -8 -14 -3 -14 10 0 25 19 20 25 -2 1 -10 -3 -17
-11z"/>
<path d="M4091 2473 c-1 -17 16 -25 25 -12 4 7 3 9 -4 5 -5 -3 -13 0 -15 6 -4
9 -6 10 -6 1z"/>
<path d="M5827 2463 c-4 -3 -7 -15 -7 -25 0 -11 -5 -16 -10 -13 -6 4 -8 10 -6
14 3 4 -1 8 -9 8 -13 0 -13 -3 0 -17 8 -9 12 -21 8 -25 -5 -5 -1 -4 8 3 9 7
19 24 22 37 5 27 4 29 -6 18z"/>
<path d="M4070 2440 c0 -5 5 -10 10 -10 6 0 10 5 10 10 0 6 -4 10 -10 10 -5 0
-10 -4 -10 -10z"/>
<path d="M4110 2440 c-11 -7 -11 -10 -2 -10 8 0 10 -5 6 -12 -4 -7 -3 -9 1 -5
7 6 17 37 12 37 -1 0 -9 -5 -17 -10z"/>
<path d="M4587 2442 c-3 -4 3 -17 13 -30 17 -21 19 -21 17 -3 0 11 -4 18 -8
15 -4 -2 -10 0 -13 5 -4 5 2 12 11 14 16 4 16 5 1 6 -9 0 -19 -2 -21 -7z"/>
<path d="M5466 2438 c3 -5 10 -6 15 -3 13 9 11 12 -6 12 -8 0 -12 -4 -9 -9z"/>
<path d="M5403 2412 c16 -18 17 -21 3 -25 -14 -4 -14 -5 0 -3 26 2 27 20 2 35
-23 14 -23 14 -5 -7z"/>
<path d="M5750 2426 c0 -2 9 -6 20 -9 11 -3 18 -1 14 4 -5 9 -34 13 -34 5z"/>
<path d="M4086 2405 c-3 -8 -1 -15 4 -15 6 0 10 7 10 15 0 8 -2 15 -4 15 -2 0
-6 -7 -10 -15z"/>
<path d="M4766 2403 c-6 -14 -5 -15 5 -6 7 7 10 15 7 18 -3 3 -9 -2 -12 -12z"/>
<path d="M5120 2410 c-8 -5 -12 -12 -9 -15 4 -3 12 1 19 10 14 17 11 19 -10 5z"/>
<path d="M5851 2404 c0 -11 3 -14 6 -6 3 7 2 16 -1 19 -3 4 -6 -2 -5 -13z"/>
<path d="M4570 2399 c0 -5 5 -7 10 -4 6 3 10 8 10 11 0 2 -4 4 -10 4 -5 0 -10
-5 -10 -11z"/>
<path d="M4846 2402 c-3 -5 1 -9 9 -9 8 0 12 4 9 9 -3 4 -7 8 -9 8 -2 0 -6 -4
-9 -8z"/>
<path d="M5010 2390 c-6 -11 -8 -20 -6 -20 3 0 10 9 16 20 6 11 8 20 6 20 -3
0 -10 -9 -16 -20z"/>
<path d="M5825 2401 c-3 -5 0 -13 6 -17 8 -5 8 -8 -1 -14 -8 -5 -7 -9 5 -13 9
-4 13 -3 10 3 -3 6 0 10 7 10 8 0 6 5 -5 11 -9 6 -15 14 -12 20 4 5 4 9 1 9
-3 0 -7 -4 -11 -9z"/>
<path d="M5780 2396 c0 -2 7 -9 15 -16 9 -7 15 -8 15 -2 0 5 -7 12 -15 16 -8
3 -15 4 -15 2z"/>
<path d="M4064 2377 c3 -10 6 -20 6 -23 0 -2 7 -1 15 3 10 3 15 1 13 -7 -2 -7
3 -14 10 -15 7 -2 8 -1 2 2 -7 3 -8 9 -1 17 7 8 4 12 -11 13 -12 1 -25 8 -31
15 -6 9 -7 8 -3 -5z"/>
<path d="M4590 2380 c0 -6 7 -10 15 -10 8 0 15 2 15 4 0 2 -7 6 -15 10 -8 3
-15 1 -15 -4z"/>
<path d="M4960 2379 c-13 -9 -13 -10 0 -6 8 2 21 -3 28 -12 11 -14 11 -13 2 7
-12 25 -11 25 -30 11z"/>
<path d="M5094 2382 c3 -5 1 -12 -6 -14 -8 -3 -9 -6 -1 -11 6 -4 13 0 17 8 3
8 0 17 -6 21 -6 4 -8 3 -4 -4z"/>
<path d="M4570 2376 c0 -5 7 -18 17 -28 10 -12 12 -18 4 -18 -7 0 -9 -4 -6
-10 11 -18 21 -11 21 14 0 14 -3 23 -7 20 -4 -2 -12 4 -18 13 -6 10 -11 14
-11 9z"/>
<path d="M4830 2369 c0 -5 5 -7 10 -4 6 3 10 8 10 11 0 2 -4 4 -10 4 -5 0 -10
-5 -10 -11z"/>
<path d="M5381 2357 c7 -15 13 -26 13 -25 1 2 8 12 16 23 11 16 11 17 0 8 -11
-10 -16 -9 -27 5 -11 15 -12 13 -2 -11z"/>
<path d="M5020 2366 c0 -2 7 -6 15 -10 8 -3 15 -1 15 4 0 6 -7 10 -15 10 -8 0
-15 -2 -15 -4z"/>
<path d="M4935 2351 c-3 -5 0 -13 6 -17 7 -4 9 -3 5 4 -3 5 0 13 6 15 9 4 10
6 1 6 -6 1 -14 -3 -18 -8z"/>
<path d="M5690 2351 c0 -6 4 -13 10 -16 6 -3 7 1 4 9 -7 18 -14 21 -14 7z"/>
<path d="M4557 2335 c-4 -8 -2 -17 4 -21 6 -4 5 -12 -3 -22 -12 -15 -11 -16 5
-3 9 7 17 10 17 6 0 -5 -8 -18 -17 -29 -16 -19 -16 -19 -1 -7 9 7 21 10 27 7
14 -9 1 32 -14 44 -8 6 -11 18 -8 26 3 8 3 14 0 14 -3 0 -7 -7 -10 -15z"/>
<path d="M5010 2340 c0 -5 -8 -7 -17 -4 -14 5 -15 4 -4 -4 7 -5 10 -15 7 -21
-14 -23 2 -10 18 14 9 14 12 25 6 25 -5 0 -10 -4 -10 -10z"/>
<path d="M5055 2339 c-6 -8 -4 -10 5 -4 10 6 12 4 6 -11 -6 -15 -5 -17 5 -6 9
9 10 15 2 23 -8 8 -13 7 -18 -2z"/>
<path d="M5413 2334 c-3 -10 -11 -22 -17 -26 -6 -4 -8 -10 -4 -13 4 -4 14 5
24 19 9 15 14 29 11 33 -4 3 -10 -3 -14 -13z"/>
<path d="M5827 2332 c1 -8 3 -16 3 -18 0 -3 5 -2 10 1 6 3 10 11 10 16 0 6 -4
8 -9 5 -5 -4 -11 -3 -14 1 -2 5 -2 2 0 -5z"/>
<path d="M5860 2341 c0 -6 4 -13 10 -16 6 -3 7 1 4 9 -7 18 -14 21 -14 7z"/>
<path d="M4077 2323 c-4 -3 -7 -11 -7 -17 0 -6 5 -5 12 2 6 6 9 14 7 17 -3 3
-9 2 -12 -2z"/>
<path d="M4795 2320 c-3 -6 1 -7 10 -4 11 5 14 2 9 -9 -3 -9 -13 -18 -22 -20
-15 -4 -15 -5 0 -6 18 -1 42 32 31 43 -9 9 -21 7 -28 -4z"/>
<path d="M4920 2310 c6 -11 12 -20 14 -20 2 0 2 9 -1 20 -3 11 -9 20 -15 20
-5 0 -4 -9 2 -20z"/>
<path d="M5022 2309 c-7 -11 -8 -19 -2 -19 5 0 10 5 10 11 0 5 5 7 10 4 6 -3
10 -2 10 4 0 19 -16 19 -28 0z"/>
<path d="M5680 2320 c0 -5 5 -10 11 -10 5 0 7 5 4 10 -3 6 -8 10 -11 10 -2 0
-4 -4 -4 -10z"/>
<path d="M5430 2311 c0 -6 4 -12 8 -15 5 -3 9 1 9 9 0 8 -4 15 -9 15 -4 0 -8
-4 -8 -9z"/>
<path d="M4095 2301 c-3 -5 0 -13 6 -17 7 -4 9 -3 5 4 -3 5 0 13 6 15 9 4 10
6 1 6 -6 1 -14 -3 -18 -8z"/>
<path d="M4895 2300 c-3 -5 -1 -10 4 -10 6 0 11 5 11 10 0 6 -2 10 -4 10 -3 0
-8 -4 -11 -10z"/>
<path d="M5655 2300 c-3 -5 -1 -10 4 -10 6 0 11 5 11 10 0 6 -2 10 -4 10 -3 0
-8 -4 -11 -10z"/>
<path d="M5814 2285 c0 -14 5 -21 12 -18 7 2 15 0 19 -6 3 -6 12 -11 18 -11 7
0 4 6 -5 14 -10 7 -15 16 -11 20 4 4 -1 4 -11 0 -13 -5 -17 -4 -12 4 3 6 3 13
-2 16 -4 2 -8 -6 -8 -19z"/>
<path d="M5855 2300 c3 -5 8 -10 11 -10 2 0 4 5 4 10 0 6 -5 10 -11 10 -5 0
-7 -4 -4 -10z"/>
<path d="M5371 2283 c-1 -31 10 -34 38 -12 13 10 19 19 13 19 -5 0 -16 -7 -23
-16 -12 -15 -14 -14 -20 7 -7 23 -7 23 -8 2z"/>
<path d="M4050 2278 c0 -6 3 -8 6 -5 4 3 16 2 28 -4 20 -10 20 -10 2 5 -24 19
-36 20 -36 4z"/>
<path d="M5030 2280 c-13 -8 -13 -10 1 -10 30 0 30 -29 1 -46 -15 -8 -18 -12
-7 -8 11 3 25 7 32 7 12 0 10 26 -4 51 -6 11 -13 12 -23 6z"/>
<path d="M4630 2270 c0 -5 5 -10 11 -10 5 0 7 5 4 10 -3 6 -8 10 -11 10 -2 0
-4 -4 -4 -10z"/>
<path d="M4889 2263 c-13 -17 -13 -17 6 -3 11 8 22 16 24 17 2 2 0 3 -6 3 -6
0 -17 -8 -24 -17z"/>
<path d="M5656 2268 c3 -4 0 -8 -7 -8 -7 0 -10 -3 -6 -6 3 -3 16 1 28 9 22 16
22 16 1 14 -11 0 -18 -5 -16 -9z"/>
<path d="M4605 2250 c-3 -11 -11 -20 -16 -20 -6 0 -7 5 -4 10 3 6 1 10 -4 10
-14 0 -14 -13 1 -28 7 -7 8 -12 2 -12 -5 0 -15 5 -20 10 -13 13 -13 -39 0 -59
7 -11 5 -13 -8 -8 -9 4 -14 3 -11 -2 3 -5 1 -12 -4 -16 -5 -3 -8 -14 -6 -25 2
-11 1 -20 -3 -20 -4 0 -8 -8 -8 -19 0 -10 5 -17 12 -14 6 2 10 15 8 28 -2 22
0 23 17 15 25 -14 24 -27 -2 -40 -11 -7 -18 -14 -15 -17 3 -3 1 -15 -5 -26 -8
-14 -8 -18 0 -13 6 4 11 3 11 -3 0 -5 9 -8 19 -6 13 2 18 -1 15 -9 -3 -7 2
-13 11 -13 11 0 13 6 9 21 -6 17 -4 19 8 11 7 -6 6 -3 -3 6 -14 13 -15 19 -6
28 9 10 9 12 -2 9 -7 -2 -16 3 -19 11 -3 8 0 11 7 7 7 -5 9 -1 5 8 -4 10 -1
16 7 16 11 0 11 2 -1 9 -8 6 -18 7 -23 4 -5 -3 -7 0 -5 8 3 8 11 13 17 11 9
-2 9 3 1 17 -13 25 -13 41 1 41 5 0 7 -5 3 -12 -5 -7 -3 -8 5 -3 9 5 10 10 2
18 -13 13 -15 31 -3 23 5 -3 9 0 9 7 0 7 3 22 7 35 4 12 5 22 2 22 -2 0 -8 -9
-11 -20z m-32 -65 c-7 -21 -12 -19 -10 4 0 11 5 18 9 15 4 -3 5 -11 1 -19z
m-4 -62 c-6 -7 -15 -10 -20 -7 -13 8 -3 21 15 21 12 0 13 -4 5 -14z m18 -98
c0 -10 -6 -14 -14 -10 -8 3 -18 5 -21 6 -4 0 2 4 13 9 11 5 20 9 21 9 0 1 1
-6 1 -14z"/>
<path d="M4770 2260 c-9 -6 -10 -10 -3 -10 6 0 15 5 18 10 8 12 4 12 -15 0z"/>
<path d="M4991 2247 c-13 -21 -12 -21 5 -5 10 10 16 20 13 22 -3 3 -11 -5 -18
-17z"/>
<path d="M5395 2240 c-24 -25 -26 -32 -15 -45 9 -11 16 -13 23 -6 7 7 6 15 -2
24 -9 11 -8 17 6 28 15 12 16 12 10 -3 -3 -10 -2 -20 2 -22 5 -3 8 5 7 17 -1
12 3 25 9 29 7 5 7 8 -1 8 -5 0 -23 -13 -39 -30z m5 -41 c0 -6 -4 -7 -10 -4
-5 3 -10 11 -10 16 0 6 5 7 10 4 6 -3 10 -11 10 -16z"/>
<path d="M5667 2246 c-17 -13 -17 -14 0 -20 10 -4 14 -4 10 0 -4 4 -2 13 4 21
14 17 9 16 -14 -1z"/>
<path d="M4067 2236 c-10 -8 -15 -16 -10 -18 4 -3 16 3 26 14 20 21 10 24 -16
4z"/>
<path d="M4111 2237 c-1 -11 -6 -15 -13 -11 -7 5 -8 3 -3 -5 10 -16 29 2 22
21 -4 8 -6 7 -6 -5z"/>
<path d="M4780 2240 c-9 -6 -10 -10 -3 -10 6 0 15 5 18 10 8 12 4 12 -15 0z"/>
<path d="M4894 2239 c-3 -6 -1 -16 6 -22 10 -9 11 -9 5 2 -4 8 -2 17 6 22 9 6
10 9 2 9 -6 0 -15 -5 -19 -11z"/>
<path d="M5015 2240 c-3 -6 1 -7 9 -4 18 7 21 14 7 14 -6 0 -13 -4 -16 -10z"/>
<path d="M5355 2240 c3 -5 8 -10 11 -10 2 0 4 5 4 10 0 6 -5 10 -11 10 -5 0
-7 -4 -4 -10z"/>
<path d="M5820 2246 c0 -2 6 -9 14 -15 11 -9 16 -9 22 0 4 8 3 9 -4 5 -7 -4
-12 -2 -12 3 0 6 -4 11 -10 11 -5 0 -10 -2 -10 -4z"/>
<path d="M4755 2196 c2 -26 -2 -36 -10 -32 -14 5 -14 -19 0 -31 4 -4 5 -3 2 3
-4 7 0 15 9 18 9 4 14 9 11 13 -4 3 -2 11 3 18 6 8 5 18 -3 30 -12 15 -13 13
-12 -19z"/>
<path d="M5816 2217 c4 -10 15 -22 25 -28 15 -8 17 -6 13 6 -4 9 -9 13 -12 11
-3 -3 -11 2 -19 12 -12 16 -13 16 -7 -1z"/>
<path d="M4867 2209 c7 -7 15 -10 18 -7 3 3 -2 9 -12 12 -14 6 -15 5 -6 -5z"/>
<path d="M5633 2205 c0 -8 4 -15 9 -15 4 0 8 7 8 15 0 8 -4 15 -8 15 -5 0 -9
-7 -9 -15z"/>
<path d="M4077 2203 c-13 -12 -7 -23 11 -22 10 0 12 3 4 6 -6 2 -10 9 -6 14 6
10 0 12 -9 2z"/>
<path d="M5050 2206 c0 -2 7 -7 16 -10 8 -3 12 -2 9 4 -6 10 -25 14 -25 6z"/>
<path d="M5030 2191 c0 -6 7 -11 15 -11 9 0 12 -6 9 -17 -5 -14 -4 -15 4 -4 8
12 11 11 15 -3 5 -15 5 -15 3 0 -1 19 -46 53 -46 35z"/>
<path d="M5353 2185 c0 -8 4 -15 9 -15 4 0 8 4 8 9 0 6 -4 12 -8 15 -5 3 -9
-1 -9 -9z"/>
<path d="M4866 2174 c-9 -22 -8 -26 6 -22 13 5 20 38 8 38 -4 0 -11 -7 -14
-16z"/>
<path d="M4935 2180 c-3 -6 1 -7 9 -4 18 7 21 14 7 14 -6 0 -13 -4 -16 -10z"/>
<path d="M5810 2181 c0 -5 7 -12 16 -15 14 -5 15 -4 4 9 -14 17 -20 19 -20 6z"/>
<path d="M5621 2164 c0 -11 3 -14 6 -6 3 7 2 16 -1 19 -3 4 -6 -2 -5 -13z"/>
<path d="M5650 2171 c0 -6 4 -13 10 -16 6 -3 7 1 4 9 -7 18 -14 21 -14 7z"/>
<path d="M4068 2154 c9 -7 19 -9 22 -6 3 4 9 10 13 13 4 3 -6 6 -23 6 -26 0
-27 -2 -12 -13z"/>
<path d="M5010 2166 c0 -2 7 -7 16 -10 8 -3 12 -2 9 4 -6 10 -25 14 -25 6z"/>
<path d="M5380 2155 c0 -13 -4 -14 -21 -5 -19 11 -20 10 -9 -10 12 -23 24 -19
40 11 7 13 7 19 0 19 -5 0 -10 -7 -10 -15z"/>
<path d="M5796 2132 l-19 -27 24 22 c12 12 21 24 18 27 -2 2 -13 -8 -23 -22z"/>
<path d="M4836 2135 c-9 -26 -7 -32 5 -12 6 10 9 21 6 23 -2 3 -7 -2 -11 -11z"/>
<path d="M5624 2135 c-18 -14 -18 -14 4 -8 12 3 22 9 22 14 0 12 -3 11 -26 -6z"/>
<path d="M4864 2125 c-10 -8 -14 -15 -9 -16 6 0 -1 -5 -15 -10 l-25 -8 25 2
c14 1 24 6 22 10 -2 5 5 15 15 23 10 7 15 14 12 14 -3 0 -14 -7 -25 -15z"/>
<path d="M5047 2124 c3 -9 0 -13 -8 -11 -8 2 -11 2 -6 0 4 -3 4 -9 1 -15 -3
-5 3 -4 15 4 25 15 26 24 7 31 -10 4 -13 1 -9 -9z"/>
<path d="M4090 2120 c0 -5 5 -10 10 -10 6 0 10 5 10 10 0 6 -4 10 -10 10 -5 0
-10 -4 -10 -10z"/>
<path d="M4715 2121 c-3 -5 -2 -12 3 -15 5 -3 9 1 9 9 0 17 -3 19 -12 6z"/>
<path d="M5391 2117 c-1 -11 -6 -15 -13 -11 -7 5 -8 3 -3 -5 10 -16 29 2 22
21 -4 8 -6 7 -6 -5z"/>
<path d="M5815 2121 c-3 -5 0 -13 6 -17 7 -4 9 -3 5 4 -3 5 0 13 6 15 9 4 10
6 1 6 -6 1 -14 -3 -18 -8z"/>
<path d="M5335 2111 c-3 -6 5 -15 17 -21 21 -10 21 -10 6 3 -10 8 -15 17 -11
20 3 4 4 7 0 7 -3 0 -8 -4 -12 -9z"/>
<path d="M5635 2090 c3 -25 1 -30 -8 -21 -10 8 -13 2 -14 -22 -1 -24 0 -27 5
-11 4 13 14 20 24 18 14 -2 16 1 8 16 -13 23 -13 33 -1 25 5 -3 13 0 17 7 4 7
4 10 -1 6 -4 -4 -14 -3 -21 3 -10 8 -12 4 -9 -21z"/>
<path d="M5074 2095 c-3 -8 -4 -20 -2 -27 3 -7 7 -1 10 15 6 29 1 36 -8 12z"/>
<path d="M4083 2088 c3 -9 1 -19 -6 -21 -7 -3 -2 -4 10 -4 18 1 20 4 10 17
-19 25 -20 26 -14 8z"/>
<path d="M5796 2093 c-3 -4 -6 -11 -6 -17 0 -6 5 -4 10 4 6 10 10 11 10 3 0
-7 5 -13 10 -13 6 0 10 4 10 9 0 11 -26 22 -34 14z"/>
<path d="M6113 2093 c-15 -5 -17 -23 -4 -23 5 0 11 7 15 15 3 8 4 15 3 14 -1
0 -8 -3 -14 -6z"/>
<path d="M4550 2080 c0 -5 5 -10 10 -10 6 0 10 5 10 10 0 6 -4 10 -10 10 -5 0
-10 -4 -10 -10z"/>
<path d="M5340 2074 c0 -2 9 -8 20 -14 11 -6 20 -7 20 -2 0 6 -9 12 -20 15
-11 3 -20 3 -20 1z"/>
<path d="M4695 2060 c3 -5 8 -10 11 -10 2 0 4 5 4 10 0 6 -5 10 -11 10 -5 0
-7 -4 -4 -10z"/>
<path d="M4828 2063 c6 -2 18 -2 25 0 6 3 1 5 -13 5 -14 0 -19 -2 -12 -5z"/>
<path d="M5033 2054 c0 -7 4 -11 9 -8 4 3 8 1 8 -3 0 -5 9 -14 20 -21 19 -11
19 -11 9 6 -17 27 -46 44 -46 26z"/>
<path d="M6070 2056 c-6 -9 -10 -21 -7 -28 4 -9 6 -7 6 4 1 9 7 18 14 21 6 2
9 7 6 11 -3 4 -12 0 -19 -8z"/>
<path d="M5333 2045 c0 -8 4 -12 9 -9 5 3 6 10 3 15 -9 13 -12 11 -12 -6z"/>
<path d="M5779 2058 c-5 -16 -4 -46 2 -42 4 2 7 13 6 24 -1 17 -5 26 -8 18z"/>
<path d="M5800 2055 c0 -5 5 -17 10 -25 5 -8 10 -10 10 -5 0 6 -5 17 -10 25
-5 8 -10 11 -10 5z"/>
<path d="M6110 2050 c-9 -6 -10 -10 -3 -10 6 0 15 5 18 10 8 12 4 12 -15 0z"/>
<path d="M4057 2044 c-12 -13 6 -34 24 -29 14 5 17 2 13 -8 -3 -8 -2 -17 3
-20 4 -3 9 10 9 29 1 19 -3 34 -8 34 -5 0 -7 -4 -4 -9 3 -5 -1 -11 -9 -15 -8
-3 -17 -1 -20 4 -3 4 1 11 7 13 7 3 8 6 2 6 -6 1 -13 -2 -17 -5z"/>
<path d="M4775 2040 c-3 -6 1 -7 9 -4 18 7 21 14 7 14 -6 0 -13 -4 -16 -10z"/>
<path d="M4817 2033 c5 -12 3 -14 -7 -8 -9 5 -11 4 -6 -3 4 -7 2 -12 -3 -12
-6 0 -11 -5 -11 -12 0 -6 9 -3 20 7 21 19 27 45 10 45 -5 0 -6 -7 -3 -17z"/>
<path d="M4516 2023 c-6 -14 -5 -15 5 -6 7 7 10 15 7 18 -3 3 -9 -2 -12 -12z"/>
<path d="M5354 2025 c-4 -8 -11 -12 -17 -8 -5 3 -7 1 -3 -5 3 -5 3 -12 -1 -15
-5 -2 -2 -2 4 -1 17 4 37 -32 23 -41 -5 -3 -10 2 -11 12 0 11 -3 13 -6 5 -2
-7 5 -27 16 -45 11 -17 21 -27 21 -20 0 6 -4 15 -10 18 -5 3 -10 11 -10 16 0
6 4 8 9 4 13 -8 5 33 -10 51 -9 11 -9 14 0 14 7 0 10 4 7 9 -4 5 0 12 6 14 10
4 10 6 0 6 -7 1 -15 -6 -18 -14z"/>
<path d="M5639 2033 c-1 -5 -1 -11 0 -15 0 -5 -4 -8 -11 -8 -6 0 -8 -3 -5 -7
4 -3 2 -12 -5 -20 -9 -11 -8 -18 5 -30 15 -15 15 -17 -1 -29 -14 -11 -15 -15
-3 -26 12 -11 13 -10 7 6 -4 13 -2 17 7 13 8 -3 13 3 13 18 0 13 -4 23 -9 22
-5 -1 -11 3 -14 10 -3 8 3 11 17 8 17 -3 19 -1 11 9 -6 7 -9 22 -6 34 2 12 2
22 -1 22 -2 0 -5 -3 -5 -7z"/>
<path d="M4737 2019 c7 -7 15 -10 18 -7 3 3 -2 9 -12 12 -14 6 -15 5 -6 -5z"/>
<path d="M5033 2008 c-2 -16 1 -18 10 -9 7 7 8 14 1 21 -6 6 -10 2 -11 -12z"/>
<path d="M6095 2019 c-4 -6 -4 -13 -1 -16 3 -4 6 -1 6 6 0 7 5 9 12 5 7 -4 8
-3 4 4 -9 15 -13 15 -21 1z"/>
<path d="M7107 2016 c-4 -10 -1 -13 9 -9 7 3 14 9 14 14 0 14 -17 10 -23 -5z"/>
<path d="M7168 2018 c6 -6 8 -18 5 -27 -4 -14 -3 -14 5 -1 18 27 17 33 -2 36
-13 2 -15 -1 -8 -8z"/>
<path d="M5596 2007 c3 -10 9 -15 12 -12 3 3 0 11 -7 18 -10 9 -11 8 -5 -6z"/>
<path d="M7210 2016 c0 -2 8 -10 18 -17 15 -13 16 -12 3 4 -13 16 -21 21 -21
13z"/>
<path d="M7256 2005 c-9 -26 -7 -32 5 -12 6 10 9 21 6 23 -2 3 -7 -2 -11 -11z"/>
<path d="M4659 2005 c-1 -3 -2 -11 -3 -17 0 -7 -10 -13 -21 -13 -11 0 -19 -5
-18 -10 1 -6 -3 -16 -9 -22 -7 -9 -7 -13 0 -13 6 0 14 5 17 10 4 6 12 10 18 9
7 -1 21 -1 32 0 17 1 17 3 5 11 -17 11 -20 32 -5 42 6 5 6 8 -2 8 -7 0 -14 -2
-14 -5z"/>
<path d="M4831 1997 c-1 -11 -6 -15 -13 -11 -7 5 -8 3 -3 -5 10 -16 29 2 22
21 -4 8 -6 7 -6 -5z"/>
<path d="M5795 2000 c3 -5 8 -10 11 -10 2 0 4 5 4 10 0 6 -5 10 -11 10 -5 0
-7 -4 -4 -10z"/>
<path d="M6022 1996 c7 -8 15 -12 17 -11 5 6 -10 25 -20 25 -5 0 -4 -6 3 -14z"/>
<path d="M6375 2001 c-3 -5 -2 -12 3 -15 5 -3 9 1 9 9 0 17 -3 19 -12 6z"/>
<path d="M6853 1995 c0 -8 4 -12 9 -9 5 3 6 10 3 15 -9 13 -12 11 -12 -6z"/>
<path d="M7056 1995 c4 -8 8 -15 10 -15 2 0 4 7 4 15 0 8 -4 15 -10 15 -5 0
-7 -7 -4 -15z"/>
<path d="M7130 2000 c-8 -5 -10 -10 -5 -10 6 0 17 5 25 10 8 5 11 10 5 10 -5
0 -17 -5 -25 -10z"/>
<path d="M7301 1998 c-1 -12 -7 -16 -18 -12 -15 5 -16 4 -3 -5 17 -12 35 1 27
21 -4 9 -6 8 -6 -4z"/>
<path d="M5776 1986 c3 -9 13 -16 22 -16 8 0 13 1 11 3 -2 1 -12 9 -22 16 -15
12 -17 12 -11 -3z"/>
<path d="M6820 1991 c0 -7 -5 -9 -12 -5 -7 5 -8 3 -3 -5 5 -9 10 -10 18 -2 6
6 8 14 4 18 -4 3 -7 1 -7 -6z"/>
<path d="M7199 1999 c-7 -37 -7 -40 6 -29 10 8 14 7 18 -7 4 -15 5 -15 6 -2 1
14 -27 49 -30 38z"/>
<path d="M4534 1978 c-3 -4 2 -8 10 -8 10 0 13 -6 10 -15 -4 -8 -1 -15 5 -15
9 0 9 -5 1 -20 -7 -14 -7 -20 0 -20 5 0 10 7 10 15 0 8 4 15 9 15 14 0 7 -30
-9 -40 -8 -5 -18 -6 -24 -3 -5 4 -6 1 -1 -7 6 -10 4 -12 -8 -7 -10 4 -14 2
-11 -7 3 -7 11 -13 19 -13 8 0 12 4 9 9 -3 4 0 8 5 8 6 0 11 -4 11 -10 0 -5 5
-10 11 -10 8 0 9 4 0 13 -13 16 -5 27 20 27 10 0 21 9 24 20 4 11 11 17 17 14
7 -5 8 -2 3 6 -6 10 -12 7 -25 -10 -13 -17 -19 -20 -25 -10 -6 9 -4 11 6 5 12
-7 12 -6 1 7 -9 11 -10 18 -2 23 6 3 8 11 4 16 -3 6 -11 3 -18 -7 -10 -13 -15
-14 -21 -4 -5 9 -4 11 3 6 7 -4 12 -2 12 3 0 6 -5 11 -11 11 -5 0 -8 4 -5 8 3
5 -2 9 -10 9 -8 0 -17 -4 -20 -9z"/>
<path d="M4690 1980 c-9 -6 -10 -10 -3 -10 6 0 15 5 18 10 8 12 4 12 -15 0z"/>
<path d="M5050 1979 c0 -5 -4 -8 -8 -5 -5 3 -9 -1 -9 -7 0 -19 34 -18 48 1 11
14 11 15 -1 5 -20 -18 -35 -16 -20 2 9 10 9 15 1 15 -6 0 -11 -5 -11 -11z"/>
<path d="M6070 1981 c0 -6 4 -12 8 -15 5 -3 9 1 9 9 0 8 -4 15 -9 15 -4 0 -8
-4 -8 -9z"/>
<path d="M6350 1981 c0 -5 6 -12 13 -15 6 -4 2 -4 -11 -2 -12 2 -20 0 -16 -5
3 -5 12 -9 20 -9 13 0 16 -5 18 -39 1 -8 7 -16 14 -17 7 -1 8 0 2 3 -5 2 -8 9
-5 14 3 5 1 18 -6 30 -10 19 -9 21 5 16 23 -9 20 -2 -9 17 -14 9 -25 12 -25 7z"/>
<path d="M7014 1978 c-4 -5 -3 -12 0 -15 3 -4 6 -1 6 6 0 7 4 10 9 6 5 -3 12
-2 15 3 3 5 -2 9 -10 9 -8 0 -17 -4 -20 -9z"/>
<path d="M4080 1976 c0 -3 9 -10 20 -16 11 -6 20 -8 20 -6 0 3 -9 10 -20 16
-11 6 -20 8 -20 6z"/>
<path d="M5314 1969 c-3 -6 -2 -15 3 -20 5 -5 9 -1 9 11 0 23 -2 24 -12 9z"/>
<path d="M5995 1970 c-8 -13 9 -20 24 -11 10 6 9 10 -3 14 -8 3 -18 2 -21 -3z"/>
<path d="M6917 1959 c4 -13 8 -18 11 -10 2 7 -1 18 -6 23 -8 8 -9 4 -5 -13z"/>
<path d="M4807 1959 c7 -7 15 -10 18 -7 3 3 -2 9 -12 12 -14 6 -15 5 -6 -5z"/>
<path d="M5755 1960 c-3 -5 -1 -10 4 -10 6 0 11 5 11 10 0 6 -2 10 -4 10 -3 0
-8 -4 -11 -10z"/>
<path d="M6037 1956 c-16 -12 -16 -14 -2 -20 10 -3 13 -11 9 -18 -4 -7 -3 -9
2 -5 6 6 16 59 10 57 -1 0 -9 -7 -19 -14z"/>
<path d="M6750 1955 c0 -8 2 -15 4 -15 2 0 6 7 10 15 3 8 1 15 -4 15 -6 0 -10
-7 -10 -15z"/>
<path d="M6792 1956 c7 -8 15 -12 17 -11 5 6 -10 25 -20 25 -5 0 -4 -6 3 -14z"/>
<path d="M6825 1959 c-7 -11 23 -32 35 -24 6 3 8 10 5 15 -3 5 5 10 17 13 13
2 6 4 -15 4 -21 0 -40 -4 -42 -8z m30 -9 c3 -5 2 -10 -4 -10 -5 0 -13 5 -16
10 -3 6 -2 10 4 10 5 0 13 -4 16 -10z"/>
<path d="M6980 1960 c-9 -6 -10 -10 -3 -10 6 0 15 5 18 10 8 12 4 12 -15 0z"/>
<path d="M7272 1956 c7 -8 15 -12 17 -11 5 6 -10 25 -20 25 -5 0 -4 -6 3 -14z"/>
<path d="M7306 1962 c-2 -4 4 -8 14 -8 10 0 16 4 14 8 -3 4 -9 8 -14 8 -5 0
-11 -4 -14 -8z"/>
<path d="M4068 1953 c6 -2 10 -9 7 -14 -4 -5 2 -6 11 -2 10 4 15 2 11 -4 -3
-5 1 -10 10 -10 12 0 11 5 -7 19 -12 10 -27 18 -34 17 -7 0 -6 -2 2 -6z"/>
<path d="M5781 1946 c-9 -11 -9 -16 1 -22 7 -4 10 -4 6 1 -4 4 -3 14 3 22 6 7
9 13 6 13 -2 0 -10 -6 -16 -14z"/>
<path d="M6317 1944 c5 -13 3 -15 -7 -9 -8 5 -11 4 -6 -3 3 -6 2 -13 -4 -17
-6 -4 -8 -11 -5 -16 4 -5 -2 -9 -12 -9 -15 0 -16 -2 -3 -10 17 -11 20 -8 25
17 1 10 7 17 12 16 12 -2 14 35 2 42 -5 4 -6 -2 -2 -11z"/>
<path d="M4793 1938 c3 -9 1 -19 -6 -22 -9 -3 -9 -5 0 -5 18 -1 27 19 13 32
-10 9 -12 8 -7 -5z"/>
<path d="M5074 1939 c-3 -6 -2 -15 3 -20 5 -5 9 -1 10 11 2 22 -2 25 -13 9z"/>
<path d="M5595 1940 c-3 -5 -1 -10 4 -10 6 0 11 5 11 10 0 6 -2 10 -4 10 -3 0
-8 -4 -11 -10z"/>
<path d="M6883 1935 c-7 -8 -13 -16 -13 -18 0 -2 6 -4 13 -5 6 0 21 -2 32 -5
11 -2 14 -2 7 0 -7 3 -10 9 -7 14 4 5 -2 6 -12 2 -16 -6 -16 -5 -4 10 16 20 1
22 -16 2z"/>
<path d="M5040 1931 c0 -7 -5 -9 -12 -5 -7 5 -8 3 -3 -5 5 -9 10 -10 18 -2 6
6 8 14 4 18 -4 3 -7 1 -7 -6z"/>
<path d="M5296 1931 c-10 -15 4 -39 25 -44 20 -5 28 -29 8 -24 -6 1 -14 -5
-16 -13 -4 -12 -3 -12 5 -2 5 8 13 13 18 12 20 -4 13 20 -11 36 -14 9 -24 23
-21 30 6 16 0 19 -8 5z"/>
<path d="M6000 1931 c0 -7 -4 -9 -10 -6 -5 3 -10 1 -10 -4 0 -6 4 -11 9 -11
13 0 25 20 17 27 -3 4 -6 1 -6 -6z"/>
<path d="M6708 1933 c7 -3 16 -2 19 1 4 3 -2 6 -13 5 -11 0 -14 -3 -6 -6z"/>
<path d="M6942 1931 c-11 -6 -10 -10 4 -15 9 -3 19 -4 22 -1 3 3 -1 5 -9 5
-11 0 -11 2 1 10 8 5 11 10 5 10 -5 0 -16 -4 -23 -9z"/>
<path d="M7296 1932 c-3 -5 6 -7 21 -4 18 3 24 1 19 -7 -4 -6 -2 -11 4 -11 7
0 10 6 8 13 -5 15 -44 22 -52 9z"/>
<path d="M4660 1920 c0 -5 5 -10 10 -10 6 0 10 5 10 10 0 6 -4 10 -10 10 -5 0
-10 -4 -10 -10z"/>
<path d="M5320 1920 c0 -5 5 -10 10 -10 6 0 10 5 10 10 0 6 -4 10 -10 10 -5 0
-10 -4 -10 -10z"/>
<path d="M5745 1920 c-3 -5 -1 -10 4 -10 6 0 11 5 11 10 0 6 -2 10 -4 10 -3 0
-8 -4 -11 -10z"/>
<path d="M6343 1908 c-2 -18 0 -20 7 -8 12 18 13 30 2 30 -4 0 -9 -10 -9 -22z"/>
<path d="M4695 1910 c3 -5 2 -10 -2 -10 -5 0 -18 -7 -29 -15 -16 -14 -15 -14
14 0 18 9 30 20 27 25 -4 6 -8 10 -11 10 -3 0 -2 -4 1 -10z"/>
<path d="M4814 1905 c-4 -8 -10 -12 -15 -9 -5 3 -4 -6 3 -20 6 -14 16 -26 21
-26 5 0 4 6 -2 14 -9 11 -10 20 -1 35 6 12 8 21 5 21 -3 0 -8 -7 -11 -15z"/>
<path d="M4099 1897 c7 -7 14 -8 21 -1 6 6 2 10 -12 11 -16 2 -18 -1 -9 -10z"/>
<path d="M4630 1900 c0 -5 5 -10 10 -10 6 0 10 5 10 10 0 6 -4 10 -10 10 -5 0
-10 -4 -10 -10z"/>
<path d="M5062 1891 c7 -12 18 -17 27 -13 14 6 14 7 -1 10 -10 2 -18 8 -18 13
0 5 -5 9 -10 9 -6 0 -6 -7 2 -19z"/>
<path d="M5350 1902 c0 -6 5 -14 10 -17 6 -4 7 -11 4 -17 -4 -7 -2 -8 5 -4 9
6 9 12 -1 24 -7 10 -14 19 -15 21 -2 2 -3 -1 -3 -7z"/>
<path d="M6000 1900 c-13 -8 -13 -10 2 -10 9 0 20 5 23 10 8 13 -5 13 -25 0z"/>
<path d="M6977 1903 c-9 -8 12 -33 27 -33 6 0 3 5 -7 11 -9 6 -15 14 -12 20 7
10 2 12 -8 2z"/>
<path d="M7379 1903 c-1 -5 -1 -11 0 -15 2 -13 -17 -9 -22 5 -2 6 -4 0 -4 -15
0 -16 4 -28 9 -28 5 0 7 4 4 9 -3 5 1 12 10 15 8 3 13 10 10 15 -4 5 0 12 6
14 10 4 10 6 1 6 -7 1 -14 -2 -14 -6z"/>
<path d="M4766 1884 c-4 -9 -4 -19 -1 -22 3 -3 5 0 5 7 0 7 4 9 10 6 6 -3 7 1
4 9 -8 20 -10 20 -18 0z"/>
<path d="M5034 1881 c0 -11 3 -18 7 -15 4 2 9 -2 12 -8 2 -7 7 -11 10 -8 3 3
-2 16 -12 28 -16 21 -17 22 -17 3z"/>
<path d="M5593 1885 c0 -8 4 -15 9 -15 4 0 8 4 8 9 0 6 -4 12 -8 15 -5 3 -9
-1 -9 -9z"/>
<path d="M6026 1885 c-11 -8 -15 -15 -9 -15 6 0 16 7 23 15 16 19 11 19 -14 0z"/>
<path d="M6896 1887 c3 -10 9 -15 12 -12 3 3 0 11 -7 18 -10 9 -11 8 -5 -6z"/>
<path d="M6950 1893 c0 -5 6 -15 13 -22 10 -11 9 -13 -5 -8 -24 8 -31 -8 -11
-24 9 -8 14 -9 10 -3 -4 7 0 15 9 18 12 4 14 1 9 -13 -3 -11 -1 -22 4 -25 17
-11 8 38 -11 63 -10 13 -18 19 -18 14z"/>
<path d="M7317 1886 c-4 -10 -3 -15 3 -11 6 3 10 1 10 -6 0 -7 3 -10 6 -6 3 3
2 13 -4 22 -8 16 -9 16 -15 1z"/>
<path d="M4068 1883 c7 -3 16 -2 19 1 4 3 -2 6 -13 5 -11 0 -14 -3 -6 -6z"/>
<path d="M4700 1880 c-18 -12 -2 -12 25 0 13 6 15 9 5 9 -8 0 -22 -4 -30 -9z"/>
<path d="M5287 1879 c7 -7 15 -10 18 -7 3 3 -2 9 -12 12 -14 6 -15 5 -6 -5z"/>
<path d="M5757 1883 c-4 -3 -7 -11 -7 -17 0 -6 5 -5 12 2 6 6 9 14 7 17 -3 3
-9 2 -12 -2z"/>
<path d="M5965 1881 c-3 -5 -1 -12 5 -16 5 -3 10 -3 10 1 0 3 8 0 18 -7 14
-11 13 -10 -2 9 -22 25 -23 25 -31 13z"/>
<path d="M6350 1880 c-13 -8 -12 -10 3 -10 9 0 17 5 17 10 0 12 -1 12 -20 0z"/>
<path d="M6650 1880 c-9 -6 -10 -10 -3 -10 6 0 15 5 18 10 8 12 4 12 -15 0z"/>
<path d="M7411 1874 c0 -11 3 -14 6 -6 3 7 2 16 -1 19 -3 4 -6 -2 -5 -13z"/>
<path d="M5628 1873 c6 -2 10 -9 7 -14 -4 -5 1 -6 10 -2 13 5 14 7 3 14 -7 5
-17 8 -23 8 -5 0 -4 -3 3 -6z"/>
<path d="M6875 1870 c-3 -5 -3 -10 1 -10 4 0 -1 -7 -12 -16 -18 -15 -18 -15 0
-6 11 5 21 17 22 26 3 18 -2 21 -11 6z"/>
<path d="M4078 1863 c7 -3 16 -2 19 1 4 3 -2 6 -13 5 -11 0 -14 -3 -6 -6z"/>
<path d="M4606 1853 c-6 -14 -5 -15 5 -6 7 7 10 15 7 18 -3 3 -9 -2 -12 -12z"/>
<path d="M4670 1860 c0 -5 5 -10 11 -10 5 0 7 5 4 10 -3 6 -8 10 -11 10 -2 0
-4 -4 -4 -10z"/>
<path d="M4730 1859 c0 -5 -4 -7 -10 -4 -5 3 -10 2 -10 -4 0 -5 9 -13 20 -16
11 -4 27 -19 34 -34 9 -16 23 -27 37 -28 18 -2 20 0 9 7 -8 5 -18 6 -24 3 -5
-4 -7 1 -3 11 4 9 3 15 -2 12 -9 -6 -26 22 -23 36 1 4 -6 4 -16 1 -15 -6 -15
-5 -3 10 9 11 10 17 2 17 -6 0 -11 -5 -11 -11z"/>
<path d="M6379 1868 c-11 -40 1 -73 17 -47 5 8 3 9 -5 5 -15 -10 -11 25 4 36
6 5 5 8 -2 8 -7 0 -13 -1 -14 -2z"/>
<path d="M7380 1850 c-6 -11 -7 -20 -3 -20 4 0 1 -5 -7 -11 -10 -7 -11 -9 -2
-7 8 2 14 8 14 13 0 6 4 18 9 28 5 9 7 17 5 17 -3 0 -10 -9 -16 -20z"/>
<path d="M4112 1840 c0 -14 2 -19 5 -12 2 6 2 18 0 25 -3 6 -5 1 -5 -13z"/>
<path d="M4487 1849 c7 -7 15 -10 18 -7 3 3 -2 9 -12 12 -14 6 -15 5 -6 -5z"/>
<path d="M4783 1853 c-19 -7 -16 -16 8 -31 12 -8 18 -9 15 -4 -3 6 -3 12 1 15
5 2 2 2 -6 0 -8 -2 -11 2 -7 12 3 8 4 15 3 14 -1 0 -8 -3 -14 -6z"/>
<path d="M5275 1850 c3 -5 8 -10 11 -10 2 0 4 5 4 10 0 6 -5 10 -11 10 -5 0
-7 -4 -4 -10z"/>
<path d="M5611 1843 c-1 -12 4 -25 9 -28 12 -7 12 2 0 30 -8 19 -9 19 -9 -2z"/>
<path d="M5720 1856 c0 -2 7 -7 16 -10 8 -3 12 -2 9 4 -6 10 -25 14 -25 6z"/>
<path d="M6254 1834 c-1 -13 1 -24 5 -24 9 0 12 38 3 44 -4 2 -8 -7 -8 -20z"/>
<path d="M7006 1845 c-9 -26 -7 -32 5 -12 6 10 9 21 6 23 -2 3 -7 -2 -11 -11z"/>
<path d="M4827 1820 c-10 -17 -14 -30 -9 -30 5 0 12 10 15 22 5 17 9 19 21 9
11 -9 16 -9 22 0 4 7 3 9 -4 5 -6 -3 -15 0 -19 9 -7 12 -12 9 -26 -15z"/>
<path d="M5346 1841 c-4 -5 0 -12 6 -14 10 -4 9 -8 -2 -16 -8 -6 -15 -16 -15
-23 -1 -7 -7 -12 -14 -10 -7 1 -10 -2 -6 -8 5 -8 11 -8 21 1 7 6 11 15 8 20
-3 5 -1 9 5 9 5 0 11 -6 14 -12 2 -7 4 4 4 25 -1 36 -10 47 -21 28z"/>
<path d="M5645 1839 c-4 -6 -5 -12 -2 -15 2 -3 7 2 10 11 7 17 1 20 -8 4z"/>
<path d="M5971 1847 c2 -1 13 -9 24 -17 19 -14 19 -14 6 3 -7 9 -18 17 -24 17
-6 0 -8 -1 -6 -3z"/>
<path d="M6345 1840 c3 -5 8 -10 11 -10 2 0 4 5 4 10 0 6 -5 10 -11 10 -5 0
-7 -4 -4 -10z"/>
<path d="M7403 1839 c3 -9 0 -22 -6 -28 -8 -8 -8 -14 2 -23 10 -11 11 -10 6 3
-4 10 -2 20 4 24 7 3 11 -2 11 -14 0 -11 4 -22 9 -25 5 -4 7 3 4 15 -4 12 0
25 8 31 11 8 10 9 -3 4 -10 -3 -22 2 -28 12 -10 14 -11 15 -7 1z"/>
<path d="M4416 1823 c-6 -14 -5 -15 5 -6 7 7 10 15 7 18 -3 3 -9 -2 -12 -12z"/>
<path d="M4470 1830 c8 -5 20 -10 25 -10 6 0 3 5 -5 10 -8 5 -19 10 -25 10 -5
0 -3 -5 5 -10z"/>
<path d="M4570 1825 c6 -7 22 -12 36 -12 17 0 22 2 13 7 -6 5 -19 6 -27 2 -9
-3 -13 -1 -9 5 3 5 0 10 -8 10 -10 0 -12 -4 -5 -12z"/>
<path d="M5035 1830 c-3 -5 -1 -10 4 -10 6 0 11 5 11 10 0 6 -2 10 -4 10 -3 0
-8 -4 -11 -10z"/>
<path d="M5060 1836 c0 -2 7 -9 15 -16 9 -7 15 -8 15 -2 0 5 -7 12 -15 16 -8
3 -15 4 -15 2z"/>
<path d="M4436 1813 c-6 -14 -5 -15 5 -6 7 7 10 15 7 18 -3 3 -9 -2 -12 -12z"/>
<path d="M5267 1813 c3 -7 6 -13 8 -13 1 0 7 6 13 13 8 10 6 13 -7 13 -11 0
-17 -6 -14 -13z"/>
<path d="M5315 1820 c-3 -5 -1 -10 4 -10 6 0 11 5 11 10 0 6 -2 10 -4 10 -3 0
-8 -4 -11 -10z"/>
<path d="M5735 1820 c-3 -6 1 -7 9 -4 18 7 21 14 7 14 -6 0 -13 -4 -16 -10z"/>
<path d="M5969 1824 c5 -3 7 -13 4 -23 -3 -10 -1 -21 4 -24 5 -3 8 6 7 21 0
14 -6 27 -13 28 -6 1 -7 0 -2 -2z"/>
<path d="M6830 1820 c0 -5 5 -10 11 -10 5 0 7 5 4 10 -3 6 -8 10 -11 10 -2 0
-4 -4 -4 -10z"/>
<path d="M4080 1810 c12 -8 12 -10 1 -10 -8 0 -12 -2 -9 -5 3 -3 13 -2 22 1
14 5 15 9 4 15 -7 5 -17 9 -23 9 -5 0 -3 -5 5 -10z"/>
<path d="M4352 1801 c7 -9 13 -18 15 -20 1 -2 1 5 0 16 0 11 -7 20 -14 20 -10
0 -10 -4 -1 -16z"/>
<path d="M4550 1810 c0 -5 5 -10 11 -10 5 0 7 5 4 10 -3 6 -8 10 -11 10 -2 0
-4 -4 -4 -10z"/>
<path d="M6341 1815 c0 -5 3 -16 8 -23 7 -11 9 -10 14 3 4 9 3 14 -2 10 -5 -3
-12 1 -14 7 -3 7 -6 9 -6 3z"/>
<path d="M6956 1807 c3 -10 9 -15 12 -12 3 3 0 11 -7 18 -10 9 -11 8 -5 -6z"/>
<path d="M4380 1802 c0 -5 7 -9 15 -9 8 0 12 4 9 9 -3 4 -9 8 -15 8 -5 0 -9
-4 -9 -8z"/>
<path d="M4837 1791 c-3 -13 -3 -20 0 -17 4 3 14 -1 23 -9 15 -14 19 -13 35 5
10 11 13 20 8 20 -6 0 -14 -7 -17 -16 -7 -19 -25 -9 -35 19 -8 20 -8 20 -14
-2z"/>
<path d="M4875 1799 c-11 -16 -1 -19 13 -3 7 8 8 14 3 14 -5 0 -13 -5 -16 -11z"/>
<path d="M4916 1795 c4 -8 8 -15 10 -15 2 0 4 7 4 15 0 8 -4 15 -10 15 -5 0
-7 -7 -4 -15z"/>
<path d="M5045 1800 c-3 -6 1 -7 9 -4 18 7 21 14 7 14 -6 0 -13 -4 -16 -10z"/>
<path d="M5077 1794 l-28 -15 21 -29 c12 -16 26 -33 33 -37 8 -5 8 -2 -1 9 -7
9 -9 18 -5 20 4 3 3 4 -3 2 -6 -1 -16 7 -22 17 -13 20 -4 25 16 9 9 -7 9 -7 2
2 -6 8 -4 16 8 24 23 18 13 17 -21 -2z"/>
<path d="M5700 1788 c-10 -21 -10 -21 3 -6 8 10 18 14 22 10 5 -4 5 -1 1 6
-10 17 -14 15 -26 -10z"/>
<path d="M6995 1800 c-13 -6 -15 -9 -5 -9 8 0 22 4 30 9 18 12 2 12 -25 0z"/>
<path d="M7032 1794 c-7 -8 -8 -14 -3 -14 10 0 25 19 20 25 -2 1 -10 -3 -17
-11z"/>
<path d="M4107 1788 c-15 -12 -15 -15 1 -35 13 -17 20 -20 32 -12 13 9 12 10
-2 5 -17 -5 -26 8 -10 17 4 2 2 3 -5 1 -22 -5 -23 10 -1 23 13 7 18 12 12 13
-5 0 -18 -6 -27 -12z"/>
<path d="M4325 1791 c-3 -6 -13 -8 -23 -5 -14 5 -14 4 -2 -4 9 -7 18 -7 26 -1
8 7 14 6 17 -3 4 -9 6 -9 6 -1 1 16 -16 26 -24 14z"/>
<path d="M4598 1793 c7 -3 16 -2 19 1 4 3 -2 6 -13 5 -11 0 -14 -3 -6 -6z"/>
<path d="M5621 1798 c2 -2 17 -14 34 -28 22 -19 26 -20 15 -5 -18 24 -32 35
-44 35 -5 0 -7 -1 -5 -2z"/>
<path d="M6226 1788 c3 -5 0 -16 -7 -24 -6 -8 -10 -16 -7 -19 2 -2 12 8 21 24
13 23 14 28 2 28 -8 0 -12 -4 -9 -9z"/>
<path d="M6376 1791 c-4 -5 -2 -12 3 -15 5 -4 12 -2 15 3 4 5 2 12 -3 15 -5 4
-12 2 -15 -3z"/>
<path d="M5950 1781 c0 -6 4 -13 10 -16 6 -3 7 1 4 9 -7 18 -14 21 -14 7z"/>
<path d="M4496 1763 c-6 -14 -5 -15 5 -6 7 7 10 15 7 18 -3 3 -9 -2 -12 -12z"/>
<path d="M4591 1772 c-1 -8 -6 -10 -13 -6 -10 5 -10 4 -1 -6 15 -16 28 -8 20
12 -4 11 -6 11 -6 0z"/>
<path d="M4615 1758 c1 -12 7 -23 14 -24 6 -1 7 0 2 2 -6 3 -8 11 -5 19 3 7 1
15 -4 19 -5 3 -8 -5 -7 -16z"/>
<path d="M4943 1772 c-9 -5 -6 -12 10 -21 20 -13 21 -13 9 1 -10 13 -10 17 0
21 7 3 9 6 3 6 -5 0 -15 -3 -22 -7z"/>
<path d="M4981 1770 c-1 -21 16 -46 26 -37 4 5 3 11 -3 15 -6 4 -14 14 -17 22
-5 13 -5 13 -6 0z"/>
<path d="M5252 1760 c0 -14 2 -19 5 -12 2 6 2 18 0 25 -3 6 -5 1 -5 -13z"/>
<path d="M5628 1765 c22 -17 22 -19 5 -39 -18 -21 -18 -21 3 -3 21 18 22 17
28 -8 4 -14 11 -25 17 -25 6 0 7 -4 4 -10 -3 -5 -1 -10 4 -10 15 0 14 16 -1
32 -7 8 -18 22 -24 33 -5 10 -21 25 -35 33 l-24 15 23 -18z"/>
<path d="M6557 1761 c-4 -17 -3 -21 5 -13 5 5 8 16 6 23 -3 8 -7 3 -11 -10z"/>
<path d="M6798 1773 c6 -2 9 -10 6 -15 -4 -7 -2 -8 5 -4 13 9 5 26 -12 25 -9
0 -8 -2 1 -6z"/>
<path d="M6997 1766 c-5 -11 -3 -15 5 -10 8 5 9 2 5 -9 -9 -24 0 -21 14 4 6
13 7 19 1 15 -6 -3 -12 -1 -14 6 -3 7 -7 5 -11 -6z"/>
<path d="M4076 1757 c3 -10 9 -15 12 -12 3 3 0 11 -7 18 -10 9 -11 8 -5 -6z"/>
<path d="M4912 1753 c1 -12 7 -19 15 -16 8 3 11 -2 8 -15 -3 -17 -1 -18 20 -9
l22 11 -26 14 c-14 7 -29 18 -33 25 -4 7 -6 3 -6 -10z"/>
<path d="M5335 1750 c-8 -9 -15 -23 -15 -31 0 -8 6 -3 13 11 7 14 18 25 24 25
6 0 14 3 17 6 3 3 -1 6 -9 6 -8 0 -22 -8 -30 -17z"/>
<path d="M5925 1760 c-3 -5 -1 -10 4 -10 6 0 11 5 11 10 0 6 -2 10 -4 10 -3 0
-8 -4 -11 -10z"/>
<path d="M6350 1761 c0 -6 4 -10 9 -8 5 1 17 -7 26 -18 17 -19 17 -19 3 4 -16
27 -38 39 -38 22z"/>
<path d="M7399 1768 c-6 -22 -5 -38 3 -38 6 0 8 7 4 15 -6 18 -2 19 27 4 21
-10 21 -10 3 5 -18 14 -35 20 -37 14z"/>
<path d="M4556 1747 c3 -10 9 -15 12 -12 3 3 0 11 -7 18 -10 9 -11 8 -5 -6z"/>
<path d="M4790 1749 c0 -5 5 -7 10 -4 6 3 10 8 10 11 0 2 -4 4 -10 4 -5 0 -10
-5 -10 -11z"/>
<path d="M5690 1751 c0 -6 4 -13 10 -16 6 -3 7 1 4 9 -7 18 -14 21 -14 7z"/>
<path d="M7035 1750 c-3 -5 -3 -10 2 -10 4 0 2 -4 -6 -9 -8 -5 -16 -17 -17
-25 -1 -9 2 -13 8 -10 5 3 7 8 4 11 -3 3 4 13 16 23 14 11 17 19 10 24 -6 3
-13 2 -17 -4z"/>
<path d="M4815 1740 c-3 -5 -3 -10 2 -10 4 0 1 -5 -7 -11 -12 -8 -12 -10 -1
-7 8 2 15 12 17 21 3 19 -2 22 -11 7z"/>
<path d="M5375 1740 c-4 -6 -11 -8 -16 -5 -5 4 -9 1 -9 -4 0 -16 16 -13 30 4
7 8 10 15 7 15 -3 0 -9 -5 -12 -10z"/>
<path d="M5610 1739 c0 -5 5 -7 10 -4 6 3 10 8 10 11 0 2 -4 4 -10 4 -5 0 -10
-5 -10 -11z"/>
<path d="M5950 1740 c0 -5 5 -10 10 -10 6 0 10 5 10 10 0 6 -4 10 -10 10 -5 0
-10 -4 -10 -10z"/>
<path d="M6775 1741 c-6 -11 13 -26 22 -17 4 3 1 6 -6 6 -7 0 -9 5 -6 10 3 6
4 10 1 10 -3 0 -7 -4 -11 -9z"/>
<path d="M7062 1729 c-8 -12 -9 -18 -3 -14 6 3 11 1 11 -4 0 -6 5 -11 12 -11
9 0 9 3 1 11 -6 6 -9 18 -6 25 8 21 0 17 -15 -7z"/>
<path d="M4755 1731 c-4 -7 0 -8 11 -4 12 4 15 3 10 -5 -4 -7 -2 -12 4 -12 14
0 8 22 -7 27 -6 2 -14 -1 -18 -6z"/>
<path d="M5226 1723 c2 -6 -2 -14 -9 -17 -8 -3 -8 -5 -1 -5 6 -1 18 7 25 16 8
9 9 14 2 10 -6 -4 -13 -4 -16 0 -2 5 -2 3 -1 -4z"/>
<path d="M6357 1726 c-4 -10 -3 -15 3 -11 6 3 10 1 10 -6 0 -7 3 -10 6 -6 3 3
2 13 -4 22 -8 16 -9 16 -15 1z"/>
<path d="M4121 1711 c19 -9 34 -21 34 -28 0 -6 3 -14 7 -18 11 -12 3 22 -10
37 -6 8 -10 17 -8 19 2 2 -10 5 -27 5 l-31 1 35 -16z"/>
<path d="M4588 1723 c7 -3 16 -2 19 1 4 3 -2 6 -13 5 -11 0 -14 -3 -6 -6z"/>
<path d="M5050 1720 c0 -5 5 -10 10 -10 6 0 10 5 10 10 0 6 -4 10 -10 10 -5 0
-10 -4 -10 -10z"/>
<path d="M5930 1720 c0 -5 5 -10 11 -10 5 0 7 5 4 10 -3 6 -8 10 -11 10 -2 0
-4 -4 -4 -10z"/>
<path d="M4610 1711 c-8 -6 -18 -7 -24 -4 -5 3 -6 1 -2 -5 5 -9 13 -9 27 -2
10 6 19 13 19 15 0 7 -3 6 -20 -4z"/>
<path d="M5953 1705 c-10 -11 -9 -13 6 -12 11 1 17 7 14 14 -6 16 -5 16 -20
-2z"/>
<path d="M6767 1709 c7 -7 15 -10 18 -7 3 3 -2 9 -12 12 -14 6 -15 5 -6 -5z"/>
<path d="M4080 1706 c0 -2 7 -7 16 -10 8 -3 12 -2 9 4 -6 10 -25 14 -25 6z"/>
<path d="M4821 1688 c-7 -11 -8 -17 -3 -14 6 3 12 3 15 -1 2 -5 2 -3 1 4 -2 6
2 13 9 16 7 2 7 6 1 10 -5 3 -16 -3 -23 -15z"/>
<path d="M4979 1696 c6 -7 8 -22 4 -32 -7 -18 -6 -18 11 -1 10 9 22 15 27 12
5 -4 9 -1 9 5 0 7 -7 9 -15 6 -9 -3 -18 1 -21 9 -4 8 -11 15 -16 15 -7 0 -6
-5 1 -14z"/>
<path d="M5075 1701 c-3 -6 -10 -9 -14 -7 -4 3 -7 -6 -7 -19 0 -19 3 -22 13
-13 7 5 11 14 8 18 -3 5 1 10 7 13 7 2 10 7 7 11 -4 4 -10 2 -14 -3z"/>
<path d="M5329 1688 c-6 -12 -6 -18 1 -18 5 0 10 7 10 16 0 8 4 12 10 9 5 -3
18 -2 27 4 14 7 12 9 -11 8 -15 -1 -32 -10 -37 -19z"/>
<path d="M5639 1708 c-5 -17 -6 -39 -2 -35 3 3 14 -3 26 -14 11 -10 24 -19 29
-19 4 0 -6 13 -22 28 -16 16 -27 32 -23 35 3 4 3 7 0 7 -4 0 -7 -1 -8 -2z"/>
<path d="M5830 1700 c0 -5 5 -10 10 -10 6 0 10 5 10 10 0 6 -4 10 -10 10 -5 0
-10 -4 -10 -10z"/>
<path d="M6335 1689 c2 -29 23 -47 31 -25 4 9 4 20 0 23 -3 4 -6 -1 -6 -11 0
-9 -4 -15 -10 -11 -5 3 -7 12 -4 19 3 8 1 16 -4 20 -5 3 -8 -4 -7 -15z"/>
<path d="M4630 1690 c0 -5 5 -10 10 -10 6 0 10 5 10 10 0 6 -4 10 -10 10 -5 0
-10 -4 -10 -10z"/>
<path d="M4790 1689 c0 -5 5 -7 10 -4 6 3 10 8 10 11 0 2 -4 4 -10 4 -5 0 -10
-5 -10 -11z"/>
<path d="M5100 1693 c0 -6 8 -17 18 -24 16 -13 16 -13 2 6 -8 11 -16 22 -17
24 -2 2 -3 0 -3 -6z"/>
<path d="M5750 1689 c0 -5 5 -7 10 -4 6 3 10 8 10 11 0 2 -4 4 -10 4 -5 0 -10
-5 -10 -11z"/>
<path d="M7039 1698 c-6 -21 -5 -37 2 -32 5 3 7 9 4 14 -3 4 1 11 7 13 10 4
10 6 1 6 -7 1 -13 0 -14 -1z"/>
<path d="M4104 1668 l-19 -23 25 20 c14 11 27 21 29 22 2 2 0 3 -6 3 -5 0 -18
-10 -29 -22z"/>
<path d="M4600 1680 c-9 -6 -10 -10 -3 -10 6 0 15 5 18 10 8 12 4 12 -15 0z"/>
<path d="M5380 1680 c0 -5 5 -10 11 -10 5 0 7 5 4 10 -3 6 -8 10 -11 10 -2 0
-4 -4 -4 -10z"/>
<path d="M5720 1675 c-7 -9 -11 -17 -9 -20 3 -2 10 5 17 15 14 24 10 26 -8 5z"/>
<path d="M5791 1674 c0 -11 3 -14 6 -6 3 7 2 16 -1 19 -3 4 -6 -2 -5 -13z"/>
<path d="M5927 1679 c7 -7 15 -10 18 -7 3 3 -2 9 -12 12 -14 6 -15 5 -6 -5z"/>
<path d="M6750 1686 c0 -2 7 -7 16 -10 8 -3 12 -2 9 4 -6 10 -25 14 -25 6z"/>
<path d="M7090 1680 c0 -5 5 -10 11 -10 5 0 7 5 4 10 -3 6 -8 10 -11 10 -2 0
-4 -4 -4 -10z"/>
<path d="M4780 1663 c6 -14 16 -20 25 -17 18 7 20 17 3 11 -7 -2 -19 3 -26 12
-11 14 -12 13 -2 -6z"/>
<path d="M5197 1669 c7 -7 15 -10 18 -7 3 3 -2 9 -12 12 -14 6 -15 5 -6 -5z"/>
<path d="M6150 1670 c0 -5 5 -10 11 -10 5 0 7 5 4 10 -3 6 -8 10 -11 10 -2 0
-4 -4 -4 -10z"/>
<path d="M4123 1658 c-16 -26 -12 -38 8 -28 10 6 19 15 19 20 0 15 -18 21 -27
8z m17 -8 c0 -5 -5 -10 -11 -10 -5 0 -7 5 -4 10 3 6 8 10 11 10 2 0 4 -4 4
-10z"/>
<path d="M4613 1658 c-14 -19 -24 -50 -14 -44 5 3 14 -1 22 -10 7 -8 22 -20
33 -25 12 -6 6 1 -11 16 -34 27 -42 50 -20 58 6 2 9 7 6 11 -3 4 -11 1 -16 -6z"/>
<path d="M4645 1660 c-6 -9 -4 -11 5 -5 10 6 12 4 7 -9 -4 -9 -3 -15 2 -11 5
3 12 -1 14 -7 3 -7 6 -8 6 -2 1 5 -5 18 -12 29 -11 14 -16 15 -22 5z"/>
<path d="M4850 1659 c0 -5 5 -7 10 -4 6 3 10 8 10 11 0 2 -4 4 -10 4 -5 0 -10
-5 -10 -11z"/>
<path d="M5074 1648 l-19 -23 23 19 c24 21 30 12 8 -13 -16 -17 -4 -53 11 -37
4 5 2 11 -5 13 -10 4 -9 9 4 24 12 13 14 23 8 29 -7 7 -17 3 -30 -12z"/>
<path d="M5342 1645 c-7 -15 -8 -25 -2 -25 6 0 10 7 10 15 0 8 5 15 10 15 6 0
10 5 10 10 0 19 -17 10 -28 -15z"/>
<path d="M5734 1658 c-3 -5 -1 -15 5 -21 9 -9 11 -8 6 5 -5 13 -2 15 14 11 12
-3 21 -3 21 0 0 10 -40 15 -46 5z"/>
<path d="M5916 1657 c3 -10 9 -15 12 -12 3 3 0 11 -7 18 -10 9 -11 8 -5 -6z"/>
<path d="M6735 1660 c-3 -5 -3 -10 2 -10 4 0 2 -4 -5 -9 -11 -7 -11 -9 1 -14
12 -4 15 0 12 14 -3 15 0 19 11 15 9 -3 12 -1 9 4 -8 13 -22 13 -30 0z"/>
<path d="M7055 1661 c-3 -6 -3 -11 2 -11 4 0 1 -5 -7 -11 -13 -9 -13 -10 0 -6
8 2 14 10 13 16 -4 14 14 15 20 1 3 -6 4 -5 3 2 -3 16 -23 22 -31 9z"/>
<path d="M5615 1649 c-4 -6 -5 -12 -2 -15 2 -3 7 2 10 11 7 17 1 20 -8 4z"/>
<path d="M5951 1644 c0 -11 3 -14 6 -6 3 7 2 16 -1 19 -3 4 -6 -2 -5 -13z"/>
<path d="M4168 1632 c3 -10 1 -13 -6 -8 -7 4 -12 2 -12 -3 0 -17 18 -13 29 7
7 14 6 19 -4 19 -7 0 -11 -7 -7 -15z"/>
<path d="M4822 1641 c-11 -6 -10 -10 5 -16 10 -5 21 -7 26 -7 4 1 7 -2 7 -8 0
-5 10 -15 22 -21 17 -9 13 -2 -12 24 -19 21 -35 37 -35 37 0 0 -6 -4 -13 -9z"/>
<path d="M4870 1643 c0 -5 5 -15 10 -23 7 -12 9 -10 7 8 -1 19 -17 33 -17 15z"/>
<path d="M5155 1639 c-16 -7 -15 -8 7 -6 15 2 30 5 33 8 8 8 -18 7 -40 -2z"/>
<path d="M5374 1639 c-3 -6 -1 -16 6 -22 10 -9 12 -8 6 7 -5 14 -2 17 9 12 8
-3 15 -1 15 4 0 14 -27 13 -36 -1z"/>
<path d="M6353 1631 c-19 -16 -20 -20 -8 -25 14 -5 14 -9 -1 -33 l-16 -28 20
25 c14 17 17 28 11 36 -7 9 -3 17 13 28 12 9 18 16 13 16 -6 -1 -20 -9 -32
-19z"/>
<path d="M7110 1640 c-11 -7 -11 -10 -2 -10 8 0 10 -5 6 -12 -4 -7 -3 -9 1 -5
7 6 17 37 12 37 -1 0 -9 -5 -17 -10z"/>
<path d="M4630 1632 c0 -9 43 -42 55 -42 3 0 5 5 5 11 0 5 -4 8 -8 5 -5 -3
-19 4 -30 15 -12 11 -22 16 -22 11z"/>
<path d="M4900 1636 c0 -2 7 -7 16 -10 8 -3 12 -2 9 4 -6 10 -25 14 -25 6z"/>
<path d="M4950 1630 c-8 -5 -10 -10 -5 -10 6 0 17 5 25 10 8 5 11 10 5 10 -5
0 -17 -5 -25 -10z"/>
<path d="M4355 1619 c-4 -6 -5 -12 -2 -15 2 -3 7 2 10 11 7 17 1 20 -8 4z"/>
<path d="M4690 1626 c0 -3 9 -10 20 -16 11 -6 20 -8 20 -6 0 3 -9 10 -20 16
-11 6 -20 8 -20 6z"/>
<path d="M5110 1620 c0 -6 4 -9 9 -6 5 4 12 1 14 -4 3 -6 4 -5 3 2 -3 15 -26
23 -26 8z"/>
<path d="M5930 1620 c0 -5 5 -10 12 -10 6 0 8 -3 5 -7 -4 -3 -2 -12 3 -18 8
-9 6 -14 -6 -19 -13 -5 -14 -9 -4 -21 7 -8 18 -15 24 -15 6 0 2 6 -8 12 -18
10 -18 11 4 23 13 7 25 20 26 30 1 9 0 14 -3 11 -4 -3 -17 1 -30 9 -13 9 -23
11 -23 5z m45 -30 c3 -5 2 -10 -4 -10 -5 0 -13 5 -16 10 -3 6 -2 10 4 10 5 0
13 -4 16 -10z"/>
<path d="M6375 1620 c-3 -5 -1 -10 4 -10 6 0 11 5 11 10 0 6 -2 10 -4 10 -3 0
-8 -4 -11 -10z"/>
<path d="M7070 1620 c0 -6 5 -8 12 -4 8 5 9 2 5 -9 -3 -10 -2 -17 4 -17 14 0
7 32 -8 38 -7 2 -13 -1 -13 -8z"/>
<path d="M4226 1605 c-3 -8 -1 -15 4 -15 6 0 10 7 10 15 0 8 -2 15 -4 15 -2 0
-6 -7 -10 -15z"/>
<path d="M4810 1616 c0 -2 8 -10 18 -17 15 -13 16 -12 3 4 -13 16 -21 21 -21
13z"/>
<path d="M5392 1604 c-7 -8 -8 -14 -3 -14 10 0 25 19 20 25 -2 1 -10 -3 -17
-11z"/>
<path d="M6710 1616 c0 -2 7 -7 16 -10 8 -3 12 -2 9 4 -6 10 -25 14 -25 6z"/>
<path d="M4128 1603 c6 -2 10 -9 7 -14 -4 -5 1 -6 10 -2 13 5 14 7 3 14 -7 5
-17 8 -23 8 -5 0 -4 -3 3 -6z"/>
<path d="M4200 1580 c27 -39 34 -39 12 0 -9 16 -21 30 -25 30 -5 0 1 -13 13
-30z"/>
<path d="M4316 1593 c-6 -14 -5 -15 5 -6 7 7 10 15 7 18 -3 3 -9 -2 -12 -12z"/>
<path d="M4930 1599 c0 -5 5 -7 10 -4 6 3 10 8 10 11 0 2 -4 4 -10 4 -5 0 -10
-5 -10 -11z"/>
<path d="M5350 1600 c0 -5 5 -10 10 -10 6 0 10 5 10 10 0 6 -4 10 -10 10 -5 0
-10 -4 -10 -10z"/>
<path d="M6390 1600 c-11 -7 -11 -10 -2 -10 8 0 10 -5 6 -12 -4 -7 -3 -9 1 -5
7 6 17 37 12 37 -1 0 -9 -5 -17 -10z"/>
<path d="M6704 1589 c-5 -8 -3 -9 6 -4 9 5 10 2 5 -14 -3 -11 -3 -21 2 -21 12
0 14 38 3 45 -5 3 -12 0 -16 -6z"/>
<path d="M4164 1578 c-4 -7 -4 -10 1 -6 4 4 16 -3 27 -15 l19 -22 -17 28 c-19
31 -20 32 -30 15z"/>
<path d="M4250 1579 c0 -5 -4 -7 -10 -4 -6 3 -7 -1 -4 -10 4 -9 7 -15 8 -13 1
2 8 11 15 21 9 11 10 17 2 17 -6 0 -11 -5 -11 -11z"/>
<path d="M5418 1578 c7 -7 16 -7 28 0 14 8 13 10 -10 10 -18 0 -24 -4 -18 -10z"/>
<path d="M5474 1575 c-4 -8 -10 -12 -15 -9 -16 10 -9 -3 9 -17 9 -7 14 -10 10
-5 -4 5 -3 17 3 27 5 11 7 19 4 19 -3 0 -8 -7 -11 -15z"/>
<path d="M5526 1583 c-4 -5 -13 -8 -19 -8 -7 0 -13 -9 -14 -20 l-3 -20 9 20
c5 11 10 16 10 11 1 -5 7 -3 14 3 8 6 18 7 22 3 5 -4 5 -1 1 6 -8 14 -10 15
-20 5z"/>
<path d="M5915 1580 c-3 -5 -1 -10 4 -10 6 0 11 5 11 10 0 6 -2 10 -4 10 -3 0
-8 -4 -11 -10z"/>
<path d="M6055 1579 c-4 -6 -5 -12 -2 -15 2 -3 7 2 10 11 7 17 1 20 -8 4z"/>
<path d="M7110 1582 c0 -4 9 -13 20 -19 14 -9 21 -10 26 -1 4 7 3 8 -5 4 -6
-4 -14 0 -17 8 -6 16 -24 22 -24 8z"/>
<path d="M4269 1563 c-13 -16 -12 -17 4 -4 9 7 17 15 17 17 0 8 -8 3 -21 -13z"/>
<path d="M5381 1567 c9 -7 14 -19 12 -27 -4 -13 -3 -13 6 0 15 22 14 27 -11
33 -20 5 -21 4 -7 -6z"/>
<path d="M5982 1561 c-11 -6 -10 -10 4 -15 20 -8 32 0 18 14 -5 5 -15 5 -22 1z"/>
<path d="M7082 1563 c11 -3 15 -10 11 -21 -5 -13 -3 -14 7 -5 15 14 5 33 -18
32 -16 -1 -16 -2 0 -6z"/>
<path d="M5425 1549 c-4 -6 -4 -13 -1 -16 3 -4 6 -1 6 7 0 10 4 10 18 -1 15
-13 16 -12 3 4 -16 20 -18 20 -26 6z"/>
<path d="M6684 1538 c-4 -7 -4 -10 1 -6 4 4 14 0 22 -10 13 -15 13 -15 3 6
-12 25 -16 27 -26 10z"/>
<path d="M7107 1525 c-12 -17 -14 -26 -5 -31 7 -4 8 -3 4 4 -4 7 -3 12 2 12 9
0 26 30 20 35 -2 2 -11 -7 -21 -20z"/>
<path d="M7145 1531 c-3 -5 0 -13 6 -17 7 -4 9 -3 5 4 -3 5 0 13 6 15 9 4 10
6 1 6 -6 1 -14 -3 -18 -8z"/>
<path d="M6690 1500 c0 -7 -7 -9 -17 -5 -14 5 -15 3 -6 -5 7 -8 17 -9 28 -2
12 6 14 11 6 16 -6 4 -11 2 -11 -4z"/>
<path d="M7130 1501 c0 -6 5 -11 11 -11 5 0 7 -6 3 -12 -6 -10 -4 -10 8 0 11
9 18 9 21 2 3 -6 4 -5 3 2 -2 7 -7 13 -12 13 -5 0 -15 4 -21 8 -8 5 -13 4 -13
-2z"/>
<path d="M7114 1471 c4 -5 1 -12 -4 -14 -6 -3 -5 -4 2 -3 15 3 23 26 8 26 -6
0 -9 -4 -6 -9z"/>
<path d="M6673 1459 c9 -6 14 -16 11 -22 -4 -7 -3 -8 1 -4 17 15 12 33 -9 34
-19 2 -19 1 -3 -8z"/>
<path d="M7130 1444 l-25 -15 25 7 c22 6 23 5 11 -10 -9 -10 -10 -16 -2 -16
10 0 12 6 10 27 0 4 8 10 18 14 13 5 14 8 3 8 -8 0 -26 -6 -40 -15z"/>
<path d="M6652 1438 c1 -7 -3 -24 -10 -38 l-13 -25 18 24 c20 27 25 51 12 51
-6 0 -9 -6 -7 -12z"/>
<path d="M7176 1427 c3 -10 9 -15 12 -12 3 3 0 11 -7 18 -10 9 -11 8 -5 -6z"/>
<path d="M7164 1406 c4 -11 -1 -27 -10 -37 -10 -11 -13 -19 -8 -19 19 0 35 40
24 58 -10 15 -11 15 -6 -2z"/>
<path d="M6661 1388 c-6 -10 -9 -18 -6 -18 3 0 15 8 26 18 13 13 15 19 5 19
-7 0 -18 -9 -25 -19z"/>
<path d="M7137 1393 c-4 -3 -7 -11 -7 -17 0 -6 5 -5 12 2 6 6 9 14 7 17 -3 3
-9 2 -12 -2z"/>
<path d="M6662 1343 l-23 -28 6 25 c5 21 4 22 -5 7 -15 -23 -3 -42 16 -26 15
12 38 49 31 49 -2 0 -13 -12 -25 -27z"/>
<path d="M7162 1335 c-14 -16 -12 -17 30 -19 15 -1 24 2 21 6 -2 5 -14 6 -26
2 -19 -6 -20 -5 -8 10 17 20 1 21 -17 1z"/>
<path d="M6661 1306 c-9 -11 -9 -16 1 -22 7 -4 10 -4 6 1 -4 4 -3 14 3 22 6 7
9 13 6 13 -2 0 -10 -6 -16 -14z"/>
<path d="M7155 1285 c0 -13 3 -21 8 -18 4 2 7 10 7 18 0 8 -3 16 -7 18 -5 3
-8 -5 -8 -18z"/>
<path d="M7189 1295 c-1 -3 -2 -8 -3 -12 -1 -5 -10 -24 -19 -43 -12 -22 -13
-28 -3 -17 13 17 15 17 31 -5 15 -21 16 -21 13 -3 -2 12 2 19 10 17 8 -1 11 2
7 8 -5 8 -11 8 -19 1 -13 -11 -26 -5 -26 11 0 5 4 7 9 3 5 -3 12 -1 15 4 4 5
1 13 -5 17 -8 4 -7 9 2 15 10 6 11 9 2 9 -7 0 -14 -2 -14 -5z"/>
<path d="M6626 1275 c4 -8 8 -15 10 -15 2 0 4 7 4 15 0 8 -4 15 -10 15 -5 0
-7 -7 -4 -15z"/>
<path d="M6650 1265 c0 -5 5 -17 10 -25 5 -8 10 -10 10 -5 0 6 -5 17 -10 25
-5 8 -10 11 -10 5z"/>
<path d="M6626 1236 c10 -8 21 -12 24 -10 5 6 -21 24 -34 24 -6 0 -1 -6 10
-14z"/>
<path d="M6610 1220 c0 -5 5 -10 11 -10 5 0 7 5 4 10 -3 6 -8 10 -11 10 -2 0
-4 -4 -4 -10z"/>
<path d="M6634 1199 c-3 -6 0 -15 7 -20 22 -14 36 -10 17 5 -10 7 -15 16 -11
19 3 4 4 7 0 7 -3 0 -9 -5 -13 -11z"/>
<path d="M7170 1200 c0 -5 5 -10 10 -10 6 0 10 5 10 10 0 6 -4 10 -10 10 -5 0
-10 -4 -10 -10z"/>
<path d="M6610 1181 c0 -6 4 -13 10 -16 6 -3 7 1 4 9 -7 18 -14 21 -14 7z"/>
<path d="M7160 1173 c0 -6 4 -14 9 -17 4 -3 7 -17 6 -30 -3 -25 20 -55 32 -42
3 3 1 6 -6 6 -8 0 -6 7 6 18 10 9 13 13 6 9 -13 -9 -33 -1 -33 13 0 5 8 7 18
4 16 -5 16 -5 0 6 -10 6 -22 18 -27 28 -6 9 -11 12 -11 5z"/>
<path d="M7190 1171 c0 -5 7 -11 15 -15 8 -3 15 -1 15 3 0 5 -7 11 -15 15 -8
3 -15 1 -15 -3z"/>
<path d="M6630 1150 c-8 -5 -12 -11 -10 -14 3 -2 14 2 24 10 22 15 10 19 -14
4z"/>
<path d="M6647 1128 c-16 -12 -16 -14 3 -26 12 -7 20 -8 20 -2 0 5 -5 10 -11
10 -8 0 -8 5 1 15 15 18 10 19 -13 3z"/>
<path d="M6621 1082 c6 -18 15 -35 20 -38 5 -3 4 7 -3 23 -17 41 -30 53 -17
15z"/>
<path d="M6646 1077 c3 -10 9 -15 12 -12 3 3 0 11 -7 18 -10 9 -11 8 -5 -6z"/>
<path d="M7170 1076 c14 -18 13 -19 -5 -12 -16 6 -18 5 -7 -5 8 -9 15 -10 22
-3 8 8 5 15 -7 25 -17 13 -17 13 -3 -5z"/>
<path d="M7200 1062 c0 -6 -12 -18 -27 -26 -16 -8 -23 -15 -17 -16 18 0 60 37
52 46 -5 4 -8 2 -8 -4z"/>
<path d="M6660 1035 c0 -13 -4 -14 -22 -5 -21 10 -22 10 -5 -4 18 -14 18 -14
0 -19 -15 -4 -16 -5 -1 -6 9 0 23 8 31 19 8 11 17 17 22 12 5 -4 5 -1 1 6 -10
17 -26 15 -26 -3z"/>
<path d="M7195 1019 c-4 -6 -5 -12 -2 -15 2 -3 7 2 10 11 7 17 1 20 -8 4z"/>
<path d="M6665 1000 c-18 -20 -18 -21 4 -27 17 -4 19 -8 9 -14 -9 -6 -9 -9 -1
-9 22 0 25 21 4 27 -11 3 -18 9 -15 14 3 5 9 7 13 5 4 -3 8 1 8 9 0 19 0 19
-22 -5z"/>
<path d="M7159 993 c-13 -16 -12 -17 4 -4 9 7 17 15 17 17 0 8 -8 3 -21 -13z"/>
<path d="M7173 973 c-3 -10 -8 -22 -11 -27 -3 -5 0 -6 6 -2 7 4 12 14 12 22 0
9 5 12 12 8 7 -4 8 -3 4 4 -10 16 -16 15 -23 -5z"/>
<path d="M6630 960 c0 -6 7 -13 15 -16 8 -4 12 -11 8 -17 -4 -6 -1 -7 7 -2 10
6 10 11 -3 20 -9 7 -14 15 -10 18 3 4 1 7 -5 7 -7 0 -12 -5 -12 -10z"/>
<path d="M7145 959 c-4 -6 -5 -12 -2 -15 2 -3 7 2 10 11 7 17 1 20 -8 4z"/>
<path d="M6684 927 c-10 -12 -15 -19 -10 -15 5 4 14 1 20 -6 8 -10 17 -11 31
-5 19 9 19 9 -2 5 -22 -4 -40 18 -23 29 4 3 11 -1 13 -7 4 -9 6 -10 6 -1 2 22
-16 23 -35 0z"/>
<path d="M7155 920 c3 -5 8 -10 11 -10 2 0 4 5 4 10 0 6 -5 10 -11 10 -5 0 -7
-4 -4 -10z"/>
<path d="M6656 897 c3 -10 9 -15 12 -12 3 3 0 11 -7 18 -10 9 -11 8 -5 -6z"/>
<path d="M6690 875 c14 -17 13 -18 -2 -12 -10 3 -18 2 -18 -3 0 -13 27 -13 35
0 4 6 12 7 18 4 7 -4 8 -3 4 2 -5 5 -12 9 -15 9 -4 0 -14 4 -22 10 -13 8 -13
7 0 -10z"/>
<path d="M6737 873 c3 -7 6 -13 8 -13 2 0 5 6 8 13 3 8 -1 14 -8 14 -7 0 -11
-6 -8 -14z"/>
<path d="M7130 879 c0 -5 5 -7 10 -4 6 3 10 8 10 11 0 2 -4 4 -10 4 -5 0 -10
-5 -10 -11z"/>
<path d="M6770 851 c0 -7 -4 -9 -10 -6 -6 3 -7 -1 -4 -10 5 -11 2 -14 -12 -8
-12 4 -15 3 -10 -5 4 -7 11 -12 16 -12 12 0 33 40 26 48 -3 3 -6 0 -6 -7z"/>
<path d="M7108 853 c7 -3 16 -2 19 1 4 3 -2 6 -13 5 -11 0 -14 -3 -6 -6z"/>
<path d="M6710 840 c0 -5 7 -7 15 -4 8 4 15 8 15 10 0 2 -7 4 -15 4 -8 0 -15
-4 -15 -10z"/>
<path d="M6770 800 c0 -5 5 -10 10 -10 6 0 10 5 10 10 0 6 -4 10 -10 10 -5 0
-10 -4 -10 -10z"/>
<path d="M6807 799 c7 -7 15 -10 18 -7 3 3 -2 9 -12 12 -14 6 -15 5 -6 -5z"/>
<path d="M6893 777 c31 -26 34 -34 12 -34 -8 0 -15 4 -15 9 0 4 -7 8 -16 8 -8
0 -13 4 -9 9 9 16 -15 24 -31 11 -10 -9 -11 -16 -4 -25 5 -6 8 -14 5 -17 -3
-2 2 -5 10 -5 13 0 13 2 0 17 -15 16 -11 30 7 30 5 0 6 -5 3 -10 -3 -6 1 -13
9 -16 9 -3 14 -9 12 -13 -3 -4 10 -7 28 -7 42 0 38 24 -7 49 l-32 17 28 -23z"/>
<path d="M6752 776 c7 -8 15 -12 17 -11 5 6 -10 25 -20 25 -5 0 -4 -6 3 -14z"/>
<path d="M6786 772 c-3 -5 1 -9 9 -9 8 0 15 4 15 9 0 4 -4 8 -9 8 -6 0 -12 -4
-15 -8z"/>
<path d="M6965 770 c3 -6 1 -10 -4 -10 -6 0 -11 -5 -11 -11 0 -8 4 -8 13 0 10
8 17 7 26 -2 10 -9 11 -9 6 5 -4 9 -13 19 -21 22 -9 3 -12 1 -9 -4z"/>
</g>
</svg>
