<svg xmlns="http://www.w3.org/2000/svg" viewBox="0 0 30.73 24.94"><defs><style>.cls-1{fill:#434343;}</style></defs><title>art</title><g id="Layer_2" data-name="Layer 2"><g id="Layer_1-2" data-name="Layer 1"><g id="Interests"><path class="cls-1" d="M30.11.79A.43.43,0,0,0,29.37.7,3.77,3.77,0,0,1,27.3,2a7.73,7.73,0,0,0-2.08,1,2.66,2.66,0,0,0-1.28,2.74l0,0A14,14,0,0,0,22.49,4a13.2,13.2,0,0,0-9-4h-.45A13,13,0,0,0,3.19,4.61,13,13,0,0,0,.15,15c0,.31.11.62.18.93C1.25,20,3.61,23.12,6.8,24.45a6.13,6.13,0,0,0,2.36.49A5.25,5.25,0,0,0,13.8,22.1,6.14,6.14,0,0,0,14.53,20a5.09,5.09,0,0,0,0-1.25,4.7,4.7,0,0,1,0-1.22,1.63,1.63,0,0,1,1.71-1.46,2.64,2.64,0,0,1,.8.13c-.31.58-.6,1.13-.85,1.64a16.64,16.64,0,0,0-1.09,2.66c-.12.42-.43,1.55.33,2.07a1.14,1.14,0,0,0,.87.17c.29-.05,1.16-.22,3.66-3.05.67-.76,1.39-1.64,2.14-2.62a5.8,5.8,0,0,0,3.83-4.13A6.09,6.09,0,0,0,26,11.45c.72-1.12,1.36-2.16,2-3.28l0-.07a3.52,3.52,0,0,0,2.19-2A6.78,6.78,0,0,0,30.11.79Zm-10.45,7a1.82,1.82,0,1,1,.23-1.37A1.81,1.81,0,0,1,19.66,7.76ZM22,11.06c.92-1.36,1.89-2.7,2.82-3.9a5,5,0,0,0,.5.39,3.83,3.83,0,0,0,.94.48c-.78,1.33-1.62,2.66-2.64,4.15a68.31,68.31,0,0,1-4.89,6.43,18.84,18.84,0,0,1-2.11,2.12A19,19,0,0,1,17.85,18,68.52,68.52,0,0,1,22,11.06ZM5.87,11a1.82,1.82,0,1,1,1.54-.85A1.81,1.81,0,0,1,5.87,11ZM4,15.06a1.82,1.82,0,1,1-.23,1.37A1.81,1.81,0,0,1,4,15.06ZM9.79,4.25a1.82,1.82,0,1,1-.23,1.37A1.81,1.81,0,0,1,9.79,4.25Z"/></g></g></g></svg>