<svg xmlns="http://www.w3.org/2000/svg" viewBox="0 0 25 25"><defs><style>.cls-1{fill:#434343;}</style></defs><title>basketball</title><g id="Layer_2" data-name="Layer 2"><g id="Layer_1-2" data-name="Layer 1"><g id="Interests"><g id="_14" data-name="14"><path class="cls-1" d="M13.52,2a3.34,3.34,0,0,0,.2-1.87V.06c-.4,0-.8-.06-1.2-.06A12.48,12.48,0,0,0,8.09.81a29.13,29.13,0,0,1,4.19,2.48A9,9,0,0,0,13.52,2Z"/><path class="cls-1" d="M19.85,9.15a8.29,8.29,0,0,0-1.58.31,28.23,28.23,0,0,1,3.16,11.79A12.45,12.45,0,0,0,25,13C23.55,11.22,21.63,9,19.85,9.15Z"/><path class="cls-1" d="M7.22,6a11.06,11.06,0,0,0,4-1.85A26.58,26.58,0,0,0,6.57,1.5,12.55,12.55,0,0,0,1.08,7.41,24.53,24.53,0,0,1,5.69,6.25Z"/><path class="cls-1" d="M15.86,6.31l.4.41A13.29,13.29,0,0,1,17.6,8.38a8.78,8.78,0,0,1,2.12-.47c2-.22,3.7,1.33,5.2,3a12.44,12.44,0,0,0-3.09-6.78,17.76,17.76,0,0,0-2.94.6A14.38,14.38,0,0,0,15.86,6.31Z"/><path class="cls-1" d="M14.22,12.77A6.54,6.54,0,0,1,16.48,9a11.69,11.69,0,0,0-1.12-1.38L14.79,7C10.17,10.16,3.85,15.93,3.27,20.93a12.48,12.48,0,0,0,7.51,3.95c1.08-2.14,2.09-6.5,2.69-9.09C13.76,14.54,14,13.47,14.22,12.77Z"/><path class="cls-1" d="M9,10a44.6,44.6,0,0,1,4.87-3.88c-.52-.46-1-.88-1.55-1.27A12.56,12.56,0,0,1,7.47,7.17l-1.55.3A17.8,17.8,0,0,0,.48,9.08,12.48,12.48,0,0,0,2.24,19.64C3.16,16,6.3,12.49,9,10Z"/><path class="cls-1" d="M14.93,5.42a16.54,16.54,0,0,1,3.6-1.85,18.48,18.48,0,0,1,2.17-.5A12.46,12.46,0,0,0,15,.24a3.8,3.8,0,0,1-.46,2.53A9.73,9.73,0,0,1,13.3,4C13.83,4.47,14.38,4.92,14.93,5.42Z"/><path class="cls-1" d="M15.42,13.12c-.2.66-.44,1.72-.73,2.95A53.85,53.85,0,0,1,12.1,25h.4a12.45,12.45,0,0,0,7.72-2.67A27.74,27.74,0,0,0,17.14,10,5.51,5.51,0,0,0,15.42,13.12Z"/></g></g></g></g></svg>