<svg xmlns="http://www.w3.org/2000/svg" viewBox="0 0 31.97 24.95"><defs><style>.cls-1{fill:#434343;}</style></defs><title>books</title><g id="Layer_2" data-name="Layer 2"><g id="Layer_1-2" data-name="Layer 1"><g id="Interests"><path class="cls-1" d="M29.69,7.54c-.13-1-.15-2.65.76-3.21l0,0c.74-.24,1.25-.57.85-1L20.45,0,2.82,2.45S.8,2.74,1,5.88a4.05,4.05,0,0,0,1.1,3L.64,9.27c-.4.45.11.78.85,1l0,0c.9.56.88,2.24.75,3.21C-1,14.45.2,14.75.2,14.75l.71.17A3.45,3.45,0,0,0,0,17.85C.19,21,1.85,21.21,1.85,21.21L13.38,25,30.8,20.74s1.16-.3-2.08-1.22c-.13-1-.15-2.64.76-3.21l0,0c.74-.24,1.25-.57.85-1L29.61,15c.5-.3,1.26-1.1,1.38-3.17a3.67,3.67,0,0,0-.72-2.74l1.5-.36S32.93,8.46,29.69,7.54Zm-14.56,0,2.93-.6,9.89-2,1.47-.3A5.1,5.1,0,0,0,29,7.36c0,.17,0,.33.06.45l-1.61.4L15,11.32ZM2.55,10.55l1.47.3,9.5,2,.83.17h0l2.49.51L17,17.31,4.13,14.11,2.87,13.8c0-.12,0-.28.06-.45A5.1,5.1,0,0,0,2.55,10.55ZM2,5.72A2.48,2.48,0,0,1,2.41,4,.78.78,0,0,1,3,3.74h.14l7.59,2.48,3.79,1.24-.12,3.84-10.63-3-.56-.16H3.12S2,8.06,2,5.72ZM13.41,23.29,2.22,20.15H2.15S1.06,20,1,17.7A2.48,2.48,0,0,1,1.44,16,.78.78,0,0,1,2,15.72h.14l11.38,3.71Zm14.66-4c0,.17,0,.33.06.45L14,23.29l.12-3.82,3-.62.45.11,1.67-.54L27,16.84l1.47-.3A5.1,5.1,0,0,0,28.08,19.34Zm.78-5.19h-.08l-1.06.3L17.59,17.3l-.12-3.84,3.32-1.08,8-2.62a.84.84,0,0,1,.73.22A2.48,2.48,0,0,1,30,11.71C29.94,14.05,28.89,14.15,28.85,14.15Z"/></g></g></g></svg>