<svg xmlns="http://www.w3.org/2000/svg" viewBox="0 0 31.36 25.09"><defs><style>.cls-1{fill:#434343;}</style></defs><title>camera</title><g id="Layer_2" data-name="Layer 2"><g id="Layer_1-2" data-name="Layer 1"><g id="Interests"><path class="cls-1" d="M15.68,9.41a4.7,4.7,0,1,0,4.7,4.7A4.7,4.7,0,0,0,15.68,9.41ZM28.22,4.7H24.46a1.4,1.4,0,0,1-1.24-.89l-1-2.92A1.4,1.4,0,0,0,21,0H10.35A1.4,1.4,0,0,0,9.11.89l-1,2.92A1.4,1.4,0,0,1,6.9,4.7H3.14A3.15,3.15,0,0,0,0,7.84V22a3.15,3.15,0,0,0,3.14,3.14H28.22A3.15,3.15,0,0,0,31.36,22V7.84A3.15,3.15,0,0,0,28.22,4.7ZM15.68,22a7.84,7.84,0,1,1,7.84-7.84A7.84,7.84,0,0,1,15.68,22ZM27.13,10a1.1,1.1,0,1,1,1.1-1.1A1.1,1.1,0,0,1,27.13,10Z"/></g></g></g></svg>