<svg xmlns="http://www.w3.org/2000/svg" viewBox="0 0 25 25"><defs><style>.cls-1{fill:#434343;}</style></defs><title>dog</title><g id="Layer_2" data-name="Layer 2"><g id="Layer_1-2" data-name="Layer 1"><g id="Interests"><path class="cls-1" d="M21.1,21.26c.67,3.33-2.67,4.06-4.13,3.62a23.77,23.77,0,0,0-4.46-.51A23.84,23.84,0,0,0,8,24.89c-1.47.44-4.81-.29-4.14-3.62s3.6-3.19,4.41-7.68,4.21-4.2,4.21-4.2,3.4-.29,4.2,4.2S20.44,17.93,21.1,21.26ZM15.59,9.08c1.81.57,3.8-1,4.46-3.46S19.78.68,18,.12s-3.8,1-4.46,3.46S13.78,8.52,15.59,9.08Zm7.49-.9c-1.74-.77-3.88.54-4.78,2.92s-.21,4.95,1.53,5.71,3.88-.54,4.78-2.92S24.82,9,23.08,8.18Zm-13.67.9c1.81-.57,2.74-3,2.08-5.51S8.83-.45,7,.12s-2.74,3-2.08,5.51S7.6,9.65,9.41,9.08ZM5.17,16.82C6.91,16,7.59,13.49,6.7,11.11s-3-3.7-4.78-2.92S-.5,11.51.39,13.9,3.43,17.59,5.17,16.82Z"/></g></g></g></svg>