<svg xmlns="http://www.w3.org/2000/svg" viewBox="0 0 25 25"><defs><style>.cls-1{fill:#434343;}</style></defs><title>music</title><g id="Layer_2" data-name="Layer 2"><g id="Layer_1-2" data-name="Layer 1"><g id="Interests"><path class="cls-1" d="M24.32,16.81l.36.23a.33.33,0,0,1,.12.42l-3.25,6.79a.32.32,0,0,1-.29.18l-.1,0-2-.7-.53,1.1a.32.32,0,0,1-.2.17H18.3a.32.32,0,0,1-.18-.05l-3.81-2.48a.33.33,0,0,1-.12-.42l4.33-9a.32.32,0,0,1,.4-.17l3.79,1.32a10.68,10.68,0,0,0-1.24-6.68,10.44,10.44,0,0,0-7.22-5.12,10.34,10.34,0,0,0-8.64,2.5,10.62,10.62,0,0,0-3.43,8.43c0,.29,0,.59.09.88l3.8-1.32a.32.32,0,0,1,.4.17l4.33,9a.33.33,0,0,1-.12.42L6.89,24.95a.32.32,0,0,1-.18.05H6.62a.33.33,0,0,1-.2-.17l-.53-1.1-2,.7-.11,0a.32.32,0,0,1-.29-.18L.22,17.47A.33.33,0,0,1,.34,17l.36-.23A12.7,12.7,0,0,1,0,13.41,12.85,12.85,0,0,1,4.18,3.21a12.52,12.52,0,0,1,10.46-3,12.64,12.64,0,0,1,8.74,6.2A13,13,0,0,1,24.32,16.81Z"/></g></g></g></svg>