<svg xmlns="http://www.w3.org/2000/svg" viewBox="0 0 32 24.85"><defs><style>.cls-1{fill:#434343;}</style></defs><title>yoga</title><g id="Layer_2" data-name="Layer 2"><g id="Layer_1-2" data-name="Layer 1"><g id="Interests"><path class="cls-1" d="M12.87,19.22a16.71,16.71,0,0,1-1.73.09,12,12,0,0,1-7-2A14.34,14.34,0,0,0,0,20.7c1,1.17,3.88,4.15,7.15,4.15s6.16-3,7.15-4.15A16.47,16.47,0,0,0,12.87,19.22Z"/><path class="cls-1" d="M27.89,17.34a12,12,0,0,1-7.05,2,16.75,16.75,0,0,1-1.71-.08A16.48,16.48,0,0,0,17.7,20.7c1,1.17,3.88,4.15,7.15,4.15S31,21.87,32,20.7A14.32,14.32,0,0,0,27.89,17.34Z"/><path class="cls-1" d="M12.4,17.72v-.14c-1.72-2-3.49-4.87-3.49-8.09,0-.25,0-.5,0-.75A12.69,12.69,0,0,0,2.29,7.61c-.12,1.53-.19,5.68,2.12,8S10.87,17.84,12.4,17.72Z"/><path class="cls-1" d="M19.57,17.63v.09c1.53.12,5.67.19,8-2.12s2.24-6.46,2.12-8a12.75,12.75,0,0,0-6.62,1.11c0,.26,0,.51,0,.77C23.11,12.74,21.3,15.62,19.57,17.63Z"/><path class="cls-1" d="M16,0c-1.41,1.18-5.56,5-5.56,9.49S14.61,17.8,16,19c1.4-1.18,5.56-5,5.56-9.49S17.42,1.18,16,0Z"/></g></g></g></svg>