<?xml version="1.0" encoding="utf-8"?>
<!-- Generator: Adobe Illustrator 24.2.1, SVG Export Plug-In . SVG Version: 6.00 Build 0)  -->
<svg version="1.1" xmlns="http://www.w3.org/2000/svg" xmlns:xlink="http://www.w3.org/1999/xlink" x="0px" y="0px"
	 viewBox="0 0 500 500" style="enable-background:new 0 0 500 500;" xml:space="preserve">
<style type="text/css">
	.st0{fill:#998751;stroke:#998751;stroke-width:12;stroke-miterlimit:10;}
	.st1{fill:#BFA965;stroke:#BFA965;stroke-width:6;stroke-miterlimit:10;}
</style>
<g id="Layer_2">
</g>
<g id="Layer_1">
	<g>
		<polygon class="st0" points="320.1,13.5 380.1,118.1 376.6,124.1 320.1,25.6 70.7,460.5 70.7,460.5 67.2,466.5 60.3,466.5 		"/>
		<polygon class="st0" points="439.9,234.8 439.9,466.5 433.9,466.5 433.9,224.1 		"/>
		<polygon class="st0" points="434,36 383.5,124.1 380.1,118.1 440,13.5 439.9,222.5 434,212 		"/>
		<polygon class="st0" points="433.9,224.1 434,212 439.9,222.5 439.9,234.6 		"/>
	</g>
	<g>
		<polygon class="st1" points="377.1,343.6 258.2,344.7 261.7,338.4 377.1,337.3 		"/>
		<polygon class="st1" points="377.1,121.7 377.1,130.5 261.7,338.4 254.8,338.5 376.6,118.9 378.1,121.7 		"/>
		<polygon class="st1" points="383.1,118.2 383.1,469.5 377.1,469.5 377.1,341.1 381.4,341 381.3,334.4 377.1,334.5 377.1,118 
			380.1,112.5 		"/>
		<polygon class="st1" points="381.3,337.3 381.4,343.6 377.1,343.6 377.1,337.3 		"/>
		<polygon class="st1" points="254,344.8 258.2,344.8 188.1,469.3 180.9,469.3 253.9,339.6 		"/>
	</g>
</g>
</svg>
