<svg id="Layer_1" data-name="Layer 1" xmlns="http://www.w3.org/2000/svg" viewBox="0 0 500 500"><defs><style>.cls-1{fill:#2e1122;stroke:#2e1122;stroke-width:2px;}.cls-1,.cls-2,.cls-3,.cls-4{stroke-miterlimit:10;}.cls-2,.cls-3,.cls-4{fill:#76323f;stroke:#76323f;}.cls-2{stroke-width:6px;}.cls-3{stroke-width:6.14px;}.cls-4{stroke-width:6.18px;}</style></defs><title>logo</title><polygon class="cls-1" points="320.11 16 380.07 119.86 376.61 125.86 320.11 28 70.69 460 70.7 460 67.23 466 60.3 466 320.11 16"/><polygon class="cls-2" points="377.11 341.92 258.24 342.96 261.72 336.93 377.11 335.92 377.11 341.92"/><polygon class="cls-1" points="439.94 235.82 439.86 466 433.86 466 433.94 225.17 439.94 235.82"/><polygon class="cls-1" points="434.01 38.41 383.54 125.86 380.07 119.86 440.02 16 439.94 223.56 433.95 213.18 434.01 38.41"/><polygon class="cls-2" points="377.11 128.5 377.11 137 261.72 336.93 254.75 336.99 376.61 125.86 378.13 128.5 377.11 128.5"/><polygon class="cls-1" points="433.94 225.17 433.95 213.18 439.94 223.56 439.94 235.56 433.94 225.17"/><polygon class="cls-3" points="383.11 125.17 383.11 463 377.11 463 377.11 339.45 381.37 339.41 381.31 333.13 377.11 333.17 377.11 125.04 380.07 119.67 383.11 125.17"/><polygon class="cls-2" points="381.31 335.88 381.37 341.88 377.11 341.92 377.11 335.92 381.31 335.88"/><polygon class="cls-4" points="253.98 343.11 258.24 343.07 188.06 462.75 180.86 462.75 253.93 338.14 253.98 343.11"/></svg>