<?xml version="1.0" encoding="utf-8"?>
<!-- Generator: Adobe Illustrator 24.0.2, SVG Export Plug-In . SVG Version: 6.00 Build 0)  -->
<svg version="1.1" id="Layer_1" xmlns="http://www.w3.org/2000/svg" xmlns:xlink="http://www.w3.org/1999/xlink" x="0px" y="0px"
	 viewBox="0 0 500 500" style="enable-background:new 0 0 500 500;" xml:space="preserve">
<style type="text/css">
	.st0{fill:#998751;stroke:#998751;stroke-width:2;stroke-miterlimit:10;}
	.st1{fill:#BFA965;stroke:#BFA965;stroke-width:6;stroke-miterlimit:10;}
	.st2{fill:#BFA965;stroke:#BFA965;stroke-width:6.14;stroke-miterlimit:10;}
	.st3{fill:#BFA965;stroke:#BFA965;stroke-width:6.18;stroke-miterlimit:10;}
</style>
<title>logo</title>
<g>
	<polygon class="st0" points="320.1,16 380.1,119.9 376.6,125.9 320.1,28 70.7,460 70.7,460 67.2,466 60.3,466 	"/>
	<polygon class="st0" points="439.9,235.8 439.9,466 433.9,466 433.9,225.2 	"/>
	<polygon class="st0" points="434,38.4 383.5,125.9 380.1,119.9 440,16 439.9,223.6 434,213.2 	"/>
	<polygon class="st0" points="433.9,225.2 434,213.2 439.9,223.6 439.9,235.6 	"/>
</g>
<g>
	<polygon class="st1" points="377.1,341.9 258.2,343 261.7,336.9 377.1,335.9 	"/>
	<polygon class="st1" points="377.1,128.5 377.1,137 261.7,336.9 254.8,337 376.6,125.9 378.1,128.5 	"/>
	<polygon class="st2" points="383.1,125.2 383.1,463 377.1,463 377.1,339.5 381.4,339.4 381.3,333.1 377.1,333.2 377.1,125 
		380.1,119.7 	"/>
	<polygon class="st1" points="381.3,335.9 381.4,341.9 377.1,341.9 377.1,335.9 	"/>
	<polygon class="st3" points="254,343.1 258.2,343.1 188.1,462.8 180.9,462.8 253.9,338.1 	"/>
</g>
</svg>
